<svg xmlns="http://www.w3.org/2000/svg" xmlns:xlink="http://www.w3.org/1999/xlink" width="1336" height="647" viewBox="0 0 1336 647"><defs><clipPath id="a"><path d="M0,0H1336a0,0,0,0,1,0,0V643a4,4,0,0,1-4,4H4a4,4,0,0,1-4-4V0A0,0,0,0,1,0,0Z" transform="translate(15 106)" fill="#fff"/></clipPath></defs><g transform="translate(-15 -106)" opacity="0.2" clip-path="url(#a)" style="mix-blend-mode:screen;isolation:isolate"><g transform="translate(-2328.49 -158.92)"><g transform="translate(134.446 889.262)"><path d="M3730.469,1041.727H240.07v-3.215H3727.257v-21.5H169.954v-20.51H3777.277V977.483H134.446v-3.215H3780.49v25.451H173.165V1013.8h3557.3Z" transform="translate(-134.446 -974.268)" fill="#fff"/></g><g transform="translate(160.749 360.942)"><path d="M2149.174,954.991h-4.652V923.042h427.747V927.7H2149.174Z" transform="translate(-439.342 -438.848)" fill="#fff"/><path d="M2168.669,922.217h-4.651V900.3h263.315v4.653H2168.669Z" transform="translate(-442.044 -435.696)" fill="#fff"/><rect width="128.746" height="4.654" transform="translate(2004.181 464.603)" fill="#fff"/><path d="M2192.225,899.473h-4.651V877.556H2427.1v4.654H2192.225Z" transform="translate(-445.309 -432.544)" fill="#fff"/><rect width="128.746" height="4.654" transform="translate(2004.181 445.012)" fill="#fff"/><path d="M2211.719,876.73h-4.651V854.81H2423.5v4.654H2211.719Z" transform="translate(-448.011 -429.391)" fill="#fff"/><rect width="140.64" height="4.654" transform="translate(2004.181 425.418)" fill="#fff"/><path d="M2228.777,854.322h-4.651V834.5h195.444v4.654H2228.777Z" transform="translate(-450.375 -426.577)" fill="#fff"/><rect width="171.776" height="4.654" transform="translate(1792.054 391.135)" fill="#fff"/><rect width="171.778" height="4.654" transform="translate(1800.1 374.34)" fill="#fff"/><rect width="169.094" height="4.654" transform="translate(1810.83 357.548)" fill="#fff"/><rect width="169.096" height="4.654" transform="translate(1818.875 340.755)" fill="#fff"/><rect width="169.094" height="4.654" transform="translate(1829.605 323.963)" fill="#fff"/><rect width="166.414" height="4.654" transform="translate(1840.333 307.168)" fill="#fff"/><rect width="181.808" height="4.654" transform="translate(1851.061 290.376)" fill="#fff"/><path d="M2238.344,812.814l-4.219-1.954c2.963-6.4,73.05-156.685,114.355-156.685h163.468v4.653H2348.48C2310.123,658.829,2239.059,811.275,2238.344,812.814Z" transform="translate(-451.761 -401.584)" fill="#fff"/><path d="M2438.188,812.751l-4.274-1.827c2.735-6.4,67.446-156.748,105.724-156.748,38.683,0,66.18,150.83,67.331,157.251l-4.578.823c-7.657-42.672-33.853-153.42-62.753-153.42C2510.4,658.829,2456.493,769.94,2438.188,812.751Z" transform="translate(-479.452 -401.584)" fill="#fff"/><path d="M2619.664,942.72h-4.654V839.157H2469.7V834.5h149.964Z" transform="translate(-484.412 -426.577)" fill="#fff"/><rect width="23.962" height="4.654" transform="translate(2068.553 290.376)" fill="#fff"/><rect width="74.626" height="4.654" transform="translate(2024.473 307.168)" fill="#fff"/><rect width="87.33" height="4.654" transform="translate(2017.475 324.231)" fill="#fff"/><rect width="99.199" height="4.654" transform="translate(2010.477 340.755)" fill="#fff"/><rect width="115.441" height="4.654" transform="translate(1998.699 357.548)" fill="#fff"/><rect width="123.789" height="4.654" transform="translate(1993.684 374.34)" fill="#fff"/><rect width="133.354" height="4.654" transform="translate(1987.971 391.135)" fill="#fff"/><rect width="23.09" height="6.399" transform="translate(1733.395 498.299)" fill="#fff"/><rect width="23.09" height="6.399" transform="translate(1768.964 498.299)" fill="#fff"/><rect width="23.09" height="6.399" transform="translate(1804.531 498.299)" fill="#fff"/><rect width="23.09" height="6.399" transform="translate(1840.1 498.299)" fill="#fff"/><rect width="23.09" height="6.399" transform="translate(1875.668 498.299)" fill="#fff"/><rect width="23.09" height="6.399" transform="translate(1911.237 498.299)" fill="#fff"/><rect width="9.793" height="6.399" transform="translate(2004.181 498.299)" fill="#fff"/><rect width="9.793" height="6.399" transform="translate(2020.467 498.299)" fill="#fff"/><rect width="9.793" height="6.399" transform="translate(2036.753 498.299)" fill="#fff"/><rect width="9.793" height="6.399" transform="translate(2053.039 498.299)" fill="#fff"/><rect width="9.793" height="6.399" transform="translate(2069.326 498.299)" fill="#fff"/><rect width="9.793" height="6.399" transform="translate(2085.612 498.299)" fill="#fff"/><rect width="9.793" height="6.399" transform="translate(2111.533 498.299)" fill="#fff"/><path d="M3056.85,884.965c-1.289-6.188-31.527-152.026-30.134-195.882,1.274-40.2,16.04-126.5,18.562-141a120.559,120.559,0,0,0-52.068,0c2.52,14.493,17.287,100.8,18.561,141,1.392,43.856-28.845,189.694-30.135,195.882l-4.553-.949c.313-1.508,31.415-151.484,30.039-194.786-1.379-43.407-18.683-141.422-18.857-142.407l-.351-1.977,1.906-.636c.442-.148,11.063-3.618,29.423-3.618s28.981,3.47,29.423,3.618l1.906.636-.351,1.977c-.174.984-17.479,99-18.858,142.407-1.375,43.305,29.727,193.278,30.039,194.786Z" transform="translate(-554.734 -385.841)" fill="#fff"/><path d="M3006.855,885.258l-2.563-.3c.179-1.519,17.935-152.506,17.147-196.238-.787-43.765-10.667-142.43-10.765-143.422l2.569-.256c.1.991,9.991,99.763,10.781,143.633C3024.814,732.575,3007.037,883.736,3006.855,885.258Z" transform="translate(-558.505 -386.457)" fill="#fff"/><path d="M3042.019,885.258c-.182-1.522-17.958-152.682-17.168-196.586.79-43.87,10.68-142.642,10.782-143.633l2.568.256c-.1.992-9.978,99.657-10.766,143.422-.787,43.732,16.97,194.719,17.149,196.238Z" transform="translate(-561.351 -386.457)" fill="#fff"/><path d="M3168.366,956.886h-4.654v-9.118h-79.767v-6.4H2957.054v6.4h-47.581v9.118h-4.653V943.115H2952.4v-6.4h136.2v6.4h79.767Z" transform="translate(-544.718 -440.743)" fill="#fff"/><path d="M2820.581,930.56H2707.7v-4.654h108.229V914.644h50.365l6.273-6.274h34.161l6.251,6.251h31.472v4.653h-33.4l-6.252-6.251h-30.3l-6.274,6.274h-47.638Z" transform="translate(-517.398 -436.815)" fill="#fff"/><rect width="137.142" height="4.654" transform="translate(2148.321 464.603)" fill="#fff"/><rect width="4.654" height="48.212" transform="translate(2336.314 431.944)" fill="#fff"/><rect width="4.654" height="41.938" transform="translate(2353.805 431.944)" fill="#fff"/><path d="M3255.466,913.173h-75.1V893.579H3080.54v-4.653h104.484v19.593h70.442Z" transform="translate(-569.073 -434.12)" fill="#fff"/><path d="M3456.345,953.415h-4.653V940.931h-50.38V916.326h-99.83v-4.654h104.484v24.606h50.379Z" transform="translate(-599.695 -437.272)" fill="#fff"/><rect width="4.654" height="25.188" transform="translate(2528.731 431.944)" fill="#fff"/><rect width="4.654" height="25.188" transform="translate(2541.326 431.944)" fill="#fff"/><rect width="266.256" height="4.654" transform="translate(2170.011 429.618)" fill="#fff"/><rect width="221.689" height="4.654" transform="translate(2491.876 429.618)" fill="#fff"/><rect width="280.351" height="4.654" transform="translate(2158.816 413.524)" fill="#fff"/><rect width="199.186" height="4.654" transform="translate(2487.207 413.524)" fill="#fff"/><rect width="89.561" height="4.654" transform="translate(2524.062 474.4)" fill="#fff"/><path d="M2659.827,814.869H2648.4v-4.654h6.771V799.894H2695.4V780.419h52.934v18.567h-4.654V785.073h-43.625v19.475h-40.232Z" transform="translate(-509.179 -419.081)" fill="#fff"/><path d="M2767.524,837.545h-4.654v-33.62h-32.832v-4.654h37.486Z" transform="translate(-520.494 -421.694)" fill="#fff"/><path d="M2850.9,838.15h-4.654V808.29h-36.28v29.86h-4.654V803.637H2850.9Z" transform="translate(-530.927 -422.299)" fill="#fff"/><path d="M2883.052,839.726H2878.4V819.663h-22.861V815.01h27.515Z" transform="translate(-537.888 -423.875)" fill="#fff"/><path d="M2902.165,834.772h-4.654V779.267H2946.6v35.8h-4.654V783.921h-39.777Z" transform="translate(-543.705 -418.921)" fill="#fff"/><path d="M2920.237,838.619h-4.654v-31.6h19.644v4.654h-14.99Z" transform="translate(-546.21 -422.768)" fill="#fff"/><path d="M2940.341,840.437h-4.654v-20.3h32.24v4.654h-27.586Z" transform="translate(-548.997 -424.586)" fill="#fff"/><path d="M2975.066,830.064h-4.654V810.135h27.106v4.654h-22.453Z" transform="translate(-553.809 -423.199)" fill="#fff"/><path d="M2933.935,775.874h-4.653v-8.482l-5.587-5.59-5.59,5.59v8.482h-4.653v-10.41l5.958-5.953,4.285-21.519,4.284,21.519,5.956,5.953Z" transform="translate(-545.915 -413.2)" fill="#fff"/><path d="M2786.47,828.758h-14.4v-4.653h9.744v-9.1h21.219v4.654H2786.47Z" transform="translate(-526.319 -423.875)" fill="#fff"/><rect width="35.503" height="4.654" transform="translate(2303.138 464.603)" fill="#fff"/><rect width="88.951" height="4.654" transform="translate(2249.69 449.035)" fill="#fff"/><rect width="64.373" height="4.654" transform="translate(2356.132 449.035)" fill="#fff"/><rect width="29.087" height="4.654" transform="translate(2400.563 464.603)" fill="#fff"/><rect width="5.948" height="3.673" transform="translate(2152.868 477.862)" fill="#fff"/><rect width="5.947" height="2.674" transform="translate(2160.565 391.624)" fill="#fff"/><rect width="5.947" height="2.674" transform="translate(2160.565 398.246)" fill="#fff"/><rect width="5.947" height="2.674" transform="translate(2160.565 404.868)" fill="#fff"/><rect width="5.947" height="2.674" transform="translate(2171.454 398.246)" fill="#fff"/><rect width="5.947" height="2.674" transform="translate(2171.454 404.868)" fill="#fff"/><rect width="5.947" height="2.674" transform="translate(2182.343 391.624)" fill="#fff"/><rect width="5.947" height="2.674" transform="translate(2182.343 398.246)" fill="#fff"/><rect width="5.947" height="2.674" transform="translate(2182.343 404.868)" fill="#fff"/><rect width="2.872" height="2.674" transform="translate(2285.462 391.624)" fill="#fff"/><rect width="2.872" height="2.674" transform="translate(2363.843 370.626)" fill="#fff"/><rect width="2.872" height="2.674" transform="translate(2371.701 370.626)" fill="#fff"/><rect width="2.872" height="2.674" transform="translate(2379.559 370.626)" fill="#fff"/><rect width="2.872" height="2.674" transform="translate(2363.843 377.225)" fill="#fff"/><rect width="2.872" height="2.674" transform="translate(2371.701 377.225)" fill="#fff"/><rect width="2.872" height="2.674" transform="translate(2379.559 377.225)" fill="#fff"/><rect width="2.872" height="2.674" transform="translate(2285.462 398.246)" fill="#fff"/><rect width="2.872" height="2.674" transform="translate(2285.462 404.868)" fill="#fff"/><rect width="2.872" height="2.674" transform="translate(2292.432 391.624)" fill="#fff"/><rect width="2.872" height="2.674" transform="translate(2292.432 398.246)" fill="#fff"/><rect width="2.872" height="2.674" transform="translate(2292.432 404.868)" fill="#fff"/><rect width="8.484" height="2.674" transform="translate(2301.992 391.624)" fill="#fff"/><rect width="8.484" height="2.674" transform="translate(2301.992 398.246)" fill="#fff"/><rect width="8.484" height="2.674" transform="translate(2301.992 404.868)" fill="#fff"/><rect width="2.318" height="2.734" transform="translate(2232.838 399.876)" fill="#fff"/><rect width="2.318" height="2.734" transform="translate(2232.838 406.645)" fill="#fff"/><rect width="2.318" height="2.733" transform="translate(2225.885 393.108)" fill="#fff"/><rect width="2.318" height="2.734" transform="translate(2225.885 399.876)" fill="#fff"/><rect width="2.318" height="2.733" transform="translate(2218.932 393.108)" fill="#fff"/><rect width="2.318" height="2.734" transform="translate(2232.838 386.339)" fill="#fff"/><rect width="2.318" height="2.734" transform="translate(2225.885 386.339)" fill="#fff"/><rect width="2.318" height="2.734" transform="translate(2218.932 399.876)" fill="#fff"/><rect width="2.318" height="2.734" transform="translate(2218.932 406.645)" fill="#fff"/><rect width="5.947" height="2.674" transform="translate(2193.232 391.624)" fill="#fff"/><rect width="5.947" height="2.674" transform="translate(2193.232 398.246)" fill="#fff"/><rect width="5.948" height="2.674" transform="translate(2204.121 391.624)" fill="#fff"/><rect width="5.948" height="2.674" transform="translate(2196.206 371.963)" fill="#fff"/><rect width="5.948" height="2.674" transform="translate(2224.07 371.963)" fill="#fff"/><rect width="5.948" height="2.674" transform="translate(2204.121 404.868)" fill="#fff"/><rect width="5.947" height="3.673" transform="translate(2172.81 477.862)" fill="#fff"/><rect width="5.947" height="3.673" transform="translate(2192.751 477.862)" fill="#fff"/><rect width="5.948" height="3.673" transform="translate(2212.693 477.862)" fill="#fff"/><rect width="5.947" height="3.673" transform="translate(2232.635 477.862)" fill="#fff"/><rect width="5.947" height="3.673" transform="translate(2252.576 477.862)" fill="#fff"/><rect width="5.948" height="3.673" transform="translate(2272.517 477.862)" fill="#fff"/><rect width="4.654" height="14.811" transform="translate(2151.591 501.332)" fill="#fff"/><rect width="4.654" height="14.811" transform="translate(2170.483 501.332)" fill="#fff"/><rect width="4.654" height="14.811" transform="translate(2189.375 501.332)" fill="#fff"/><rect width="4.654" height="14.811" transform="translate(2208.267 501.332)" fill="#fff"/><rect width="4.654" height="14.811" transform="translate(2227.159 501.332)" fill="#fff"/><rect width="4.654" height="14.811" transform="translate(2246.051 501.332)" fill="#fff"/><rect width="4.654" height="14.811" transform="translate(2264.943 501.332)" fill="#fff"/><rect width="4.654" height="14.811" transform="translate(2283.835 501.332)" fill="#fff"/><rect width="12.595" height="2.624" transform="translate(2153.917 440.545)" fill="#fff"/><rect width="12.595" height="2.624" transform="translate(2153.917 454.189)" fill="#fff"/><rect width="6.297" height="2.624" transform="translate(2174.427 440.545)" fill="#fff"/><rect width="6.297" height="2.624" transform="translate(2174.427 447.367)" fill="#fff"/><rect width="6.297" height="2.624" transform="translate(2188.159 447.367)" fill="#fff"/><rect width="6.297" height="2.624" transform="translate(2188.159 454.189)" fill="#fff"/><rect width="6.297" height="2.624" transform="translate(2201.891 440.545)" fill="#fff"/><rect width="6.297" height="2.624" transform="translate(2201.891 454.189)" fill="#fff"/><rect width="6.297" height="2.624" transform="translate(2215.623 440.545)" fill="#fff"/><rect width="6.297" height="2.624" transform="translate(2215.623 447.367)" fill="#fff"/><rect width="6.297" height="2.624" transform="translate(2229.354 447.367)" fill="#fff"/><rect width="6.297" height="2.624" transform="translate(2229.354 454.189)" fill="#fff"/><rect width="4.654" height="32.187" transform="translate(2630.189 431.944)" fill="#fff"/><rect width="53.877" height="4.654" transform="translate(2632.515 446.352)" fill="#fff"/><rect width="4.654" height="25.188" transform="translate(2699.46 431.944)" fill="#fff"/><rect width="153.235" height="4.654" transform="translate(2650.709 499.005)" fill="#fff"/><rect width="4.654" height="9.913" transform="translate(2699.46 491.419)" fill="#fff"/><rect width="4.654" height="9.913" transform="translate(2718.352 491.419)" fill="#fff"/><rect width="4.654" height="9.913" transform="translate(2737.244 491.419)" fill="#fff"/><rect width="4.654" height="9.913" transform="translate(2756.136 491.419)" fill="#fff"/><rect width="15.505" height="9.913" transform="translate(2774.967 491.419)" fill="#fff"/><rect width="52.123" height="2.584" transform="translate(2437.327 175.851)" fill="#fff"/><rect width="46.758" height="2.584" transform="translate(2442.693 191.003)" fill="#fff"/><rect width="44.078" height="2.584" transform="translate(2442.693 206.157)" fill="#fff"/><rect width="38.715" height="2.584" transform="translate(2445.373 221.309)" fill="#fff"/><rect width="33.35" height="2.584" transform="translate(2448.055 236.463)" fill="#fff"/><rect width="27.985" height="2.584" transform="translate(2450.738 251.615)" fill="#fff"/><rect width="22.619" height="2.584" transform="translate(2453.42 266.77)" fill="#fff"/><rect width="19.939" height="2.584" transform="translate(2453.42 281.922)" fill="#fff"/><rect width="19.939" height="2.584" transform="translate(2453.42 297.074)" fill="#fff"/><rect width="19.939" height="2.584" transform="translate(2453.42 312.228)" fill="#fff"/><rect width="19.939" height="2.584" transform="translate(2453.42 327.38)" fill="#fff"/><rect width="22.619" height="2.584" transform="translate(2453.42 342.534)" fill="#fff"/><rect width="33.895" height="2.584" transform="translate(2448.055 357.686)" fill="#fff"/><rect width="33.895" height="2.584" transform="translate(2448.055 372.841)" fill="#fff"/><rect width="33.895" height="2.584" transform="translate(2448.055 387.993)" fill="#fff"/><rect width="44.623" height="2.584" transform="translate(2442.693 403.147)" fill="#fff"/><rect width="49.988" height="2.584" transform="translate(2440.01 418.299)" fill="#fff"/><rect width="55.353" height="2.584" transform="translate(2437.327 433.454)" fill="#fff"/><rect width="60.716" height="2.584" transform="translate(2434.645 448.605)" fill="#fff"/><rect width="66.081" height="2.584" transform="translate(2431.962 463.76)" fill="#fff"/><rect width="74.127" height="2.584" transform="translate(2426.599 478.912)" fill="#fff"/><path d="M3025.932,513.779l-2.445,25.423h4.889Z" transform="translate(-561.166 -382.125)" fill="#fff"/><path d="M3451.584,661.615l-2.445,25.422h4.89Z" transform="translate(-620.16 -402.615)" fill="#fff"/><path d="M3090.072,839.051h-4.653V814.788h-23.576v-4.654h28.229Z" transform="translate(-566.482 -423.199)" fill="#fff"/><rect width="37.784" height="4.654" transform="translate(2531.058 381.338)" fill="#fff"/><path d="M3197.03,837.114h-4.653v-36.3H3149.1v36.3h-4.654V796.16h52.585Z" transform="translate(-577.93 -421.263)" fill="#fff"/><path d="M3219.97,836.052h-4.654V788.5H3265.1V806.78h-4.654V793.153H3219.97Z" transform="translate(-587.753 -420.201)" fill="#fff"/><path d="M3360.592,837.329h-4.653V824.587l-11.175-22.221h-56.959l-11.177,22.221v12.742h-4.654V823.482l12.964-25.769h62.692l12.961,25.769Z" transform="translate(-595.606 -421.478)" fill="#fff"/><rect width="4.654" height="18.637" transform="translate(2502.066 370.625)" fill="#fff"/><path d="M3341.978,796.906h-4.654v-7.5h-28.409v7.5h-4.654V784.752h37.716Z" transform="translate(-600.08 -419.681)" fill="#fff"/><rect width="34.112" height="2.584" transform="translate(2582.661 386.413)" fill="#fff"/><rect width="34.112" height="2.584" transform="translate(2582.661 394.549)" fill="#fff"/><rect width="34.112" height="2.584" transform="translate(2582.661 402.685)" fill="#fff"/><rect width="2.828" height="3.664" transform="translate(2638.026 378.562)" fill="#fff"/><rect width="2.828" height="3.664" transform="translate(2638.026 387.176)" fill="#fff"/><rect width="2.828" height="3.664" transform="translate(2638.026 395.789)" fill="#fff"/><rect width="2.828" height="3.664" transform="translate(2638.026 404.403)" fill="#fff"/><rect width="2.828" height="3.664" transform="translate(2646.32 378.562)" fill="#fff"/><rect width="2.828" height="3.664" transform="translate(2646.32 387.176)" fill="#fff"/><rect width="2.828" height="3.664" transform="translate(2646.32 395.789)" fill="#fff"/><rect width="2.828" height="3.664" transform="translate(2646.32 404.403)" fill="#fff"/><rect width="2.828" height="3.664" transform="translate(2654.615 378.562)" fill="#fff"/><rect width="2.828" height="3.664" transform="translate(2654.615 387.176)" fill="#fff"/><rect width="2.828" height="3.664" transform="translate(2654.615 395.789)" fill="#fff"/><rect width="2.828" height="3.664" transform="translate(2654.615 404.403)" fill="#fff"/><rect width="21.778" height="6.215" transform="translate(2545.665 393.238)" fill="#fff"/><path d="M3229.4,784.318l-4.624-.52,4.956-44.128h6.784l4.953,44.128-4.623.52-3.722-33.166Z" transform="translate(-589.064 -413.433)" fill="#fff"/><path d="M3456.6,758.336l-4.575-66.659h-3.645l-4.575,66.659-4.638-.318,4.867-70.995h12.336l4.868,70.995Z" transform="translate(-618.778 -406.136)" fill="#fff"/><rect width="34.637" height="2.584" transform="translate(2708.083 391.947)" fill="#fff"/><rect width="34.637" height="2.584" transform="translate(2708.083 401.002)" fill="#fff"/><rect width="34.637" height="2.584" transform="translate(2708.083 410.057)" fill="#fff"/><rect width="4.462" height="2.584" transform="translate(2697.325 391.947)" fill="#fff"/><rect width="4.462" height="2.584" transform="translate(2697.325 401.002)" fill="#fff"/><rect width="4.462" height="2.584" transform="translate(2697.325 410.057)" fill="#fff"/><path d="M3622.641,856.808c-.956,0-1.914-.023-2.869-.066l.218-4.648c43.109,2.109,91.853-47.152,92.34-47.649l3.321,3.261C3713.641,809.75,3666.938,856.808,3622.641,856.808Z" transform="translate(-643.809 -422.411)" fill="#fff"/><path d="M3726.223,915.585h-4.653v-30.32c-10.4-40.734-7.172-67.055-7.028-68.158l4.612.6c-.032.262-3.25,26.74,7,66.692l.073.578Z" transform="translate(-656.864 -424.166)" fill="#fff"/><path d="M3609.842,901.833h-4.653V871.695a148.81,148.81,0,0,1-32.709-47.31c-80.024,13.319-197.215-98.352-202.2-103.149l3.225-3.351c1.214,1.165,122.321,116.526,199.988,101.594l1.923-.37.691,1.832c.1.264,10.259,26.672,33,48.062l.733.689Z" transform="translate(-609.23 -410.414)" fill="#fff"/><path d="M3575.688,871.082h-89.846l-.7-.929L3379.183,729.4l3.715-2.8,105.267,139.825h87.524Z" transform="translate(-610.464 -411.622)" fill="#fff"/><rect width="51.952" height="4.654" transform="translate(2998.286 457.956)" fill="#fff"/><path d="M3391.941,875.739l-4.578-.813c14.094-79.408,7.831-122.457,7.765-122.883l4.6-.7C3399.792,751.77,3406.19,795.472,3391.941,875.739Z" transform="translate(-611.598 -415.05)" fill="#fff"/><path d="M3319.882,904.843h-4.653v-13.35l.444-.611c14.067-19.425,13.733-35.835,13.728-36l-.085-2.75,2.728.376c29.393,4.05,52.335-6.784,52.562-6.895l2.018,4.19c-.956.459-23.133,10.945-52.672,7.631-.44,5.678-2.716,19.609-14.07,35.563Z" transform="translate(-601.601 -428.117)" fill="#fff"/><path d="M3407.853,892.061h-33.91l-.485-.24c-33.763-16.641-41.271-34.051-41.573-34.786l4.295-1.786c.071.164,7.278,16.469,38.851,32.159h32.823Z" transform="translate(-603.909 -429.452)" fill="#fff"/><path d="M3421.236,912.041l-2.765-3.74,32.8-24.247h22.809v4.654h-21.274Z" transform="translate(-615.91 -433.444)" fill="#fff"/><path d="M3550.719,912.607h-73V901.8l-13.663-13.663,3.292-3.291,15.025,15.026v8.083h68.343Z" transform="translate(-622.228 -433.554)" fill="#fff"/><rect width="55.626" height="4.654" transform="translate(2942.66 474.4)" fill="#fff"/><path d="M3789.738,957.374h-4.654v-6.6h-72.942V944.89H3498.258v-4.654h218.537v5.888h72.943Z" transform="translate(-626.968 -441.231)" fill="#fff"/><rect width="4.654" height="14.811" transform="translate(2894.153 501.332)" fill="#fff"/><rect width="4.654" height="14.811" transform="translate(2931.413 501.332)" fill="#fff"/><rect width="4.654" height="14.811" transform="translate(2968.672 501.332)" fill="#fff"/><rect width="4.654" height="14.811" transform="translate(3005.931 501.332)" fill="#fff"/><rect width="4.654" height="14.811" transform="translate(3043.19 501.332)" fill="#fff"/><path d="M3695.389,887.98c-11.606-22.157-7.937-48.6-7.776-49.72l2.56.37c-.038.265-3.7,26.751,7.508,48.149Z" transform="translate(-653.119 -427.098)" fill="#fff"/><path d="M3673.1,889.9c-11.627-17.226-7.953-37.8-7.789-38.667l2.539.475c-.038.2-3.629,20.419,7.389,36.749Z" transform="translate(-650.028 -428.895)" fill="#fff"/><rect width="2.583" height="35.524" transform="translate(2826.485 362.004) rotate(-5.904)" fill="#fff"/><rect width="2.586" height="52.449" transform="matrix(0.994, -0.113, 0.113, 0.994, 2847.09, 375.66)" fill="#fff"/><rect width="2.583" height="69.805" transform="matrix(0.995, -0.104, 0.104, 0.995, 2868.011, 387.839)" fill="#fff"/><rect width="2.585" height="57.417" transform="translate(2891.607 400.464) rotate(-8.057)" fill="#fff"/><rect width="2.585" height="51.209" transform="matrix(0.994, -0.11, 0.11, 0.994, 2915.93, 406.375)" fill="#fff"/><rect width="2.585" height="48.085" transform="translate(2937.404 411.744) rotate(-17.798)" fill="#fff"/><path d="M3409.165,879.444l-2.554-.394c6.219-40.525,10.269-98.887,10.309-99.472l2.579.177C3419.458,780.34,3415.4,838.81,3409.165,879.444Z" transform="translate(-614.266 -418.964)" fill="#fff"/><path d="M3436.755,888.789l-2.559-.343c5.317-39.586.05-87.431-.005-87.911l2.569-.288C3436.813,800.729,3442.115,848.89,3436.755,888.789Z" transform="translate(-618.089 -421.829)" fill="#fff"/><path d="M3463.585,879.273l-2.579-.152a194.906,194.906,0,0,0-2.608-46.359l2.529-.535A197.832,197.832,0,0,1,3463.585,879.273Z" transform="translate(-621.443 -426.261)" fill="#fff"/><rect width="4.961" height="9.938" transform="translate(2876.538 466.788)" fill="#fff"/><rect width="4.961" height="9.938" transform="translate(2888.443 466.788)" fill="#fff"/><rect width="4.961" height="9.938" transform="translate(2900.349 466.788)" fill="#fff"/><rect width="4.961" height="9.938" transform="translate(2912.254 466.788)" fill="#fff"/><rect width="4.961" height="9.938" transform="translate(2950.659 466.788)" fill="#fff"/><rect width="4.961" height="9.938" transform="translate(3011.693 469.138)" fill="#fff"/><rect width="4.961" height="9.938" transform="translate(3026.384 469.138)" fill="#fff"/><rect width="4.961" height="9.938" transform="translate(3041.075 469.138)" fill="#fff"/><rect width="4.961" height="4.969" transform="translate(3011.693 486.45)" fill="#fff"/><rect width="4.961" height="4.969" transform="translate(3026.384 486.45)" fill="#fff"/><rect width="4.961" height="4.969" transform="translate(3041.075 486.45)" fill="#fff"/><rect width="4.961" height="9.938" transform="translate(2962.565 466.788)" fill="#fff"/><rect width="4.961" height="9.938" transform="translate(2974.47 466.788)" fill="#fff"/><rect width="4.961" height="4.969" transform="translate(2876.538 486.45)" fill="#fff"/><rect width="4.961" height="4.969" transform="translate(2888.443 486.45)" fill="#fff"/><rect width="4.961" height="4.969" transform="translate(2900.349 486.45)" fill="#fff"/><rect width="4.961" height="4.969" transform="translate(2912.254 486.45)" fill="#fff"/><rect width="4.961" height="4.969" transform="translate(2950.659 486.45)" fill="#fff"/><rect width="4.961" height="4.969" transform="translate(2962.565 486.45)" fill="#fff"/><rect width="4.961" height="4.969" transform="translate(2974.47 486.45)" fill="#fff"/><rect width="92.956" height="4.654" transform="translate(3059.442 417.264)" fill="#fff"/><rect width="89.16" height="4.654" transform="translate(3063.238 439.101)" fill="#fff"/><path d="M3877.236,954.98h-4.654V927.614h-58.549V922.96h63.2Z" transform="translate(-670.733 -438.837)" fill="#fff"/><path d="M3839.543,853.7h-4.653V406.43h157.889V799.191h-4.654V411.081H3839.543Z" transform="translate(-673.625 -367.246)" fill="#fff"/><path d="M3968.53,402.451h-4.653V365.593h-102.4v36.858h-4.653V360.942H3968.53Z" transform="translate(-676.664 -360.942)" fill="#fff"/><rect width="4.654" height="39.183" transform="translate(3243.13 2.326)" fill="#fff"/><rect width="66.47" height="4.651" transform="translate(3163.592 100.057)" fill="#fff"/><rect width="52.479" height="4.651" transform="translate(3264.348 100.057)" fill="#fff"/><rect width="66.47" height="4.651" transform="translate(3163.592 117.55)" fill="#fff"/><rect width="52.479" height="4.651" transform="translate(3264.348 117.55)" fill="#fff"/><rect width="66.47" height="4.651" transform="translate(3163.592 135.042)" fill="#fff"/><rect width="52.479" height="4.651" transform="translate(3264.348 135.042)" fill="#fff"/><rect width="66.47" height="4.651" transform="translate(3163.592 152.535)" fill="#fff"/><rect width="52.479" height="4.651" transform="translate(3264.348 152.535)" fill="#fff"/><rect width="66.47" height="4.654" transform="translate(3163.592 170.026)" fill="#fff"/><rect width="52.479" height="4.654" transform="translate(3264.348 170.026)" fill="#fff"/><rect width="66.47" height="4.654" transform="translate(3163.592 187.52)" fill="#fff"/><rect width="52.479" height="4.654" transform="translate(3264.348 187.52)" fill="#fff"/><rect width="66.47" height="4.654" transform="translate(3163.592 205.011)" fill="#fff"/><rect width="52.479" height="4.654" transform="translate(3264.348 205.011)" fill="#fff"/><rect width="66.47" height="4.654" transform="translate(3163.592 222.505)" fill="#fff"/><rect width="52.479" height="4.654" transform="translate(3264.348 222.505)" fill="#fff"/><rect width="66.47" height="4.654" transform="translate(3163.592 239.997)" fill="#fff"/><rect width="52.479" height="4.654" transform="translate(3264.348 239.997)" fill="#fff"/><rect width="66.47" height="4.654" transform="translate(3163.592 257.49)" fill="#fff"/><rect width="52.479" height="4.654" transform="translate(3264.348 257.49)" fill="#fff"/><rect width="66.47" height="4.654" transform="translate(3163.592 274.982)" fill="#fff"/><rect width="52.479" height="4.654" transform="translate(3264.348 274.982)" fill="#fff"/><rect width="66.47" height="4.654" transform="translate(3163.592 292.476)" fill="#fff"/><rect width="52.479" height="4.654" transform="translate(3264.348 292.476)" fill="#fff"/><rect width="66.47" height="4.654" transform="translate(3163.592 309.967)" fill="#fff"/><rect width="52.479" height="4.654" transform="translate(3264.348 309.967)" fill="#fff"/><rect width="66.47" height="4.654" transform="translate(3163.592 327.461)" fill="#fff"/><rect width="52.479" height="4.654" transform="translate(3264.348 327.461)" fill="#fff"/><rect width="66.47" height="4.654" transform="translate(3163.592 344.952)" fill="#fff"/><rect width="52.479" height="4.654" transform="translate(3264.348 344.952)" fill="#fff"/><rect width="66.47" height="4.654" transform="translate(3163.592 362.446)" fill="#fff"/><rect width="52.479" height="4.654" transform="translate(3264.348 362.446)" fill="#fff"/><rect width="66.47" height="4.654" transform="translate(3163.592 379.937)" fill="#fff"/><rect width="52.479" height="4.654" transform="translate(3264.348 379.937)" fill="#fff"/><rect width="66.47" height="4.654" transform="translate(3163.592 397.431)" fill="#fff"/><rect width="52.479" height="4.654" transform="translate(3264.348 397.431)" fill="#fff"/><rect width="66.47" height="4.654" transform="translate(3163.592 414.923)" fill="#fff"/><rect width="52.479" height="4.654" transform="translate(3264.348 414.923)" fill="#fff"/><rect width="6.299" height="4.651" transform="translate(3245.456 100.057)" fill="#fff"/><rect width="6.299" height="4.651" transform="translate(3245.456 117.55)" fill="#fff"/><rect width="6.299" height="4.651" transform="translate(3245.456 135.042)" fill="#fff"/><rect width="6.299" height="4.651" transform="translate(3245.456 152.535)" fill="#fff"/><rect width="6.299" height="4.654" transform="translate(3245.456 170.026)" fill="#fff"/><rect width="6.299" height="4.654" transform="translate(3245.456 187.52)" fill="#fff"/><rect width="6.299" height="4.654" transform="translate(3245.456 205.011)" fill="#fff"/><rect width="6.299" height="4.654" transform="translate(3245.456 222.505)" fill="#fff"/><rect width="6.299" height="4.654" transform="translate(3245.456 239.997)" fill="#fff"/><rect width="6.299" height="4.654" transform="translate(3245.456 257.49)" fill="#fff"/><rect width="6.299" height="4.654" transform="translate(3245.456 274.982)" fill="#fff"/><rect width="6.299" height="4.654" transform="translate(3245.456 292.476)" fill="#fff"/><rect width="6.299" height="4.654" transform="translate(3245.456 309.967)" fill="#fff"/><rect width="6.299" height="4.654" transform="translate(3245.456 327.461)" fill="#fff"/><rect width="6.299" height="4.654" transform="translate(3245.456 344.952)" fill="#fff"/><rect width="6.299" height="4.654" transform="translate(3245.456 362.446)" fill="#fff"/><rect width="6.299" height="4.654" transform="translate(3245.456 379.937)" fill="#fff"/><rect width="6.299" height="4.654" transform="translate(3245.456 397.431)" fill="#fff"/><rect width="6.299" height="4.654" transform="translate(3245.456 414.923)" fill="#fff"/><rect width="66.472" height="25.189" transform="translate(3163.592 61.8)" fill="#fff"/><rect width="50.729" height="25.189" transform="translate(3264.349 61.8)" fill="#fff"/><rect width="6.297" height="25.189" transform="translate(3245.457 61.8)" fill="#fff"/><rect width="6.297" height="34.131" transform="translate(3245.457 440.34)" fill="#fff"/><path d="M4083.182,953.793h-4.654v-34.74h-91.557v23.311h-4.654V914.4h100.865Z" transform="translate(-694.058 -437.65)" fill="#fff"/><rect width="130.846" height="4.654" transform="translate(3237.061 501.688)" fill="#fff"/><path d="M4017.434,910.814h-4.654V871.74h33.812v4.654h-29.158Z" transform="translate(-698.279 -431.738)" fill="#fff"/><path d="M4261.1,946.579h-4.654V929.2h-30.788V867H4053.985v28.262h-4.654V862.35h180.981v62.193H4261.1Z" transform="translate(-703.345 -430.436)" fill="#fff"/><rect width="4.654" height="80.327" transform="translate(3465.637 435.816)" fill="#fff"/><path d="M4142.222,804.873h-4.654V558.107h-98.2v234.7h-4.654V553.454h107.509Z" transform="translate(-701.32 -387.624)" fill="#fff"/><path d="M4243.11,793.744h-4.654V697.818h-81.637v-4.653h86.291Z" transform="translate(-718.244 -406.987)" fill="#fff"/><path d="M4276.817,899.522h-4.654V845.269l-10.157-10.16v-23.23h-56.448v-4.654h61.1v25.956l10.158,10.16Z" transform="translate(-724.999 -422.796)" fill="#fff"/><path d="M4329.529,949.587h-4.654V907.529h-7.7V888.707h-31.6v-4.654h36.249v18.821h7.7Z" transform="translate(-736.09 -433.444)" fill="#fff"/><rect width="4.654" height="83.966" transform="translate(3492.225 288.503)" fill="#fff"/><rect width="4.654" height="20.992" transform="translate(3356.482 147.165)" fill="#fff"/><rect width="79.767" height="4.651" transform="translate(3345.514 144.839)" fill="#fff"/><rect width="4.654" height="258.022" transform="translate(3410.359 147.165)" fill="#fff"/><rect width="166.53" height="4.654" transform="translate(3351.813 414.923)" fill="#fff"/><rect width="2.584" height="237.03" transform="translate(3350.521 168.156)" fill="#fff"/><rect width="2.584" height="237.03" transform="translate(3384.105 168.156)" fill="#fff"/><rect width="62.273" height="2.584" transform="translate(3335.719 182.957)" fill="#fff"/><rect width="62.273" height="2.584" transform="translate(3335.719 206.046)" fill="#fff"/><rect width="62.273" height="2.584" transform="translate(3335.719 229.137)" fill="#fff"/><rect width="62.273" height="2.584" transform="translate(3335.719 252.226)" fill="#fff"/><rect width="62.273" height="2.584" transform="translate(3335.719 275.317)" fill="#fff"/><rect width="62.273" height="2.584" transform="translate(3335.719 298.409)" fill="#fff"/><rect width="62.273" height="2.584" transform="translate(3335.719 321.498)" fill="#fff"/><rect width="62.273" height="2.584" transform="translate(3335.719 344.589)" fill="#fff"/><rect width="62.273" height="2.584" transform="translate(3335.719 367.678)" fill="#fff"/><rect width="62.273" height="2.584" transform="translate(3335.719 390.769)" fill="#fff"/><rect width="51.078" height="4.654" transform="translate(3456.07 303.671)" fill="#fff"/><rect width="51.078" height="4.654" transform="translate(3456.07 320.463)" fill="#fff"/><rect width="51.078" height="4.654" transform="translate(3456.07 337.255)" fill="#fff"/><rect width="51.078" height="4.654" transform="translate(3456.07 354.05)" fill="#fff"/><rect width="25.539" height="41.283" transform="translate(3456.068 375.968)" fill="#fff"/><rect width="9.392" height="16.757" transform="translate(3103.238 452.935)" fill="#fff"/><rect width="9.393" height="16.757" transform="translate(3121.678 452.935)" fill="#fff"/><rect width="9.392" height="16.757" transform="translate(3103.238 478.072)" fill="#fff"/><rect width="9.393" height="16.757" transform="translate(3121.678 478.072)" fill="#fff"/><rect width="9.393" height="16.757" transform="translate(3140.119 452.935)" fill="#fff"/><rect width="8.921" height="5.21" transform="translate(3180.385 441.428)" fill="#fff"/><rect width="8.921" height="5.21" transform="translate(3199.714 441.428)" fill="#fff"/><rect width="8.921" height="5.21" transform="translate(3219.043 441.428)" fill="#fff"/><rect width="43.207" height="5.21" transform="translate(3385.398 447.181)" fill="#fff"/><rect width="28.338" height="5.21" transform="translate(3400.267 475.466)" fill="#fff"/><rect width="28.338" height="5.21" transform="translate(3400.267 495.004)" fill="#fff"/><rect width="9.533" height="5.21" transform="translate(3365.544 447.181)" fill="#fff"/><rect width="9.533" height="5.21" transform="translate(3442.336 447.181)" fill="#fff"/><rect width="9.533" height="5.21" transform="translate(3442.336 475.466)" fill="#fff"/><rect width="9.533" height="5.21" transform="translate(3442.336 495.004)" fill="#fff"/><rect width="9.533" height="5.21" transform="translate(3487.336 447.181)" fill="#fff"/><rect width="9.533" height="5.21" transform="translate(3539.959 429.466)" fill="#fff"/><rect width="9.533" height="5.21" transform="translate(3539.959 444.033)" fill="#fff"/><rect width="9.533" height="5.21" transform="translate(3539.959 458.599)" fill="#fff"/><rect width="9.533" height="5.21" transform="translate(3487.336 467.088)" fill="#fff"/><rect width="9.533" height="5.21" transform="translate(3487.336 486.994)" fill="#fff"/><rect width="6.297" height="6.297" transform="translate(3273.62 446.638)" fill="#fff"/><rect width="6.297" height="6.297" transform="translate(3288.139 446.638)" fill="#fff"/><rect width="8.921" height="5.21" transform="translate(3180.385 455.345)" fill="#fff"/><rect width="8.921" height="5.21" transform="translate(3199.714 455.345)" fill="#fff"/><rect width="8.921" height="5.21" transform="translate(3219.043 455.345)" fill="#fff"/><rect width="8.921" height="5.21" transform="translate(3180.385 469.262)" fill="#fff"/><rect width="8.921" height="5.21" transform="translate(3199.714 469.262)" fill="#fff"/><rect width="8.921" height="5.21" transform="translate(3219.043 469.262)" fill="#fff"/><rect width="27.813" height="12.595" transform="translate(3307.905 491.419)" fill="#fff"/><rect width="20.81" height="4.654" transform="translate(3570.302 482.213)" fill="#fff"/><rect width="20.81" height="4.654" transform="translate(3570.302 493.173)" fill="#fff"/><rect width="20.81" height="4.654" transform="translate(3570.302 504.136)" fill="#fff"/><path d="M3800.3,783.916H3721.09v-4.654h74.556v-15.18h14.6v4.654H3800.3Z" transform="translate(-657.852 -416.817)" fill="#fff"/><rect width="27.808" height="11.724" transform="translate(3075.429 407.868)" fill="#fff"/><path d="M3681.833,801.936H3623.8v-4.654h53.382V767.894h32.752v24.964h-4.654v-20.31h-23.445Z" transform="translate(-644.368 -417.345)" fill="#fff"/><path d="M3566.614,831.481h-4.653V794.174h55.593v34.682H3612.9V798.827h-46.287Z" transform="translate(-635.797 -420.987)" fill="#fff"/><path d="M3532.01,810.233h-15.538V799.752h-15.414v-6.6H3461.6V788.5h44.11v6.6h15.414v10.481h10.885Z" transform="translate(-621.887 -420.201)" fill="#fff"/><path d="M3512.061,787.765h-4.653v-12.25H3537.4l9.1-9.1h44.57V772h58.506v4.654h-63.159v-5.582h-37.988l-9.1,9.1h-27.263Z" transform="translate(-628.236 -417.14)" fill="#fff"/><path d="M3487.905,787.765h-4.653v-16.7h-52.021v-4.654h56.673Z" transform="translate(-617.678 -417.14)" fill="#fff"/><path d="M3484.982,766.977h-4.654v-13.3h27.98v11.288h-4.654v-6.635h-18.672Z" transform="translate(-624.482 -415.375)" fill="#fff"/><rect width="12.076" height="2.584" transform="translate(3086.45 377.358)" fill="#fff"/><rect width="12.076" height="2.584" transform="translate(3086.45 390.158)" fill="#fff"/><rect width="9.562" height="2.584" transform="translate(2930.065 360.578)" fill="#fff"/><rect width="9.562" height="2.584" transform="translate(2946.635 366.279)" fill="#fff"/><rect width="9.565" height="2.584" transform="translate(2965.691 366.279)" fill="#fff"/><rect width="9.565" height="2.584" transform="translate(2984.747 366.279)" fill="#fff"/><rect width="9.562" height="2.584" transform="translate(3003.805 366.279)" fill="#fff"/><rect width="12.076" height="2.584" transform="translate(3109.594 377.358)" fill="#fff"/><rect width="12.076" height="2.584" transform="translate(3109.594 390.158)" fill="#fff"/><rect width="12.076" height="2.584" transform="translate(3109.594 402.958)" fill="#fff"/><rect width="12.076" height="2.584" transform="translate(3132.741 377.358)" fill="#fff"/><rect width="12.076" height="2.584" transform="translate(3132.741 390.158)" fill="#fff"/><rect width="12.076" height="2.584" transform="translate(3132.741 402.958)" fill="#fff"/><rect width="52.966" height="2.584" transform="translate(2979.43 390.158)" fill="#fff"/><rect width="38.536" height="2.584" transform="translate(2979.43 400.275)" fill="#fff"/><rect width="28.889" height="4.041" transform="translate(2938.637 383.664)" fill="#fff"/><rect width="28.889" height="4.041" transform="translate(2938.637 393.002)" fill="#fff"/><rect width="4.654" height="14.693" transform="translate(2551.823 476.726)" fill="#fff"/><rect width="4.654" height="14.693" transform="translate(2566.515 476.726)" fill="#fff"/><rect width="4.654" height="14.693" transform="translate(2581.21 476.726)" fill="#fff"/><rect width="4.654" height="14.693" transform="translate(2595.903 476.726)" fill="#fff"/><rect width="4.654" height="14.693" transform="translate(2610.598 476.726)" fill="#fff"/><rect width="4.654" height="14.693" transform="translate(2625.291 476.726)" fill="#fff"/><rect width="4.654" height="14.693" transform="translate(2639.986 476.726)" fill="#fff"/><rect width="4.654" height="14.693" transform="translate(2654.678 476.726)" fill="#fff"/><rect width="4.654" height="14.693" transform="translate(2669.373 476.726)" fill="#fff"/><path d="M2168.669,815.07h-4.651V637.116h45.234v14.7h11.195v11.195H2284.7v22.619h-4.654V667.66h-64.255V656.465H2204.6v-14.7h-35.932Z" transform="translate(-442.044 -399.219)" fill="#fff"/><rect width="42.798" height="4.654" transform="translate(1776.076 278.482)" fill="#fff"/><rect width="42.798" height="4.654" transform="translate(1776.076 293.525)" fill="#fff"/><rect width="42.798" height="4.654" transform="translate(1776.076 308.569)" fill="#fff"/><rect width="42.798" height="4.654" transform="translate(1776.076 323.612)" fill="#fff"/><rect width="28.455" height="4.654" transform="translate(1776.076 338.656)" fill="#fff"/><rect width="21.4" height="4.654" transform="translate(1776.076 353.699)" fill="#fff"/><rect width="15.977" height="4.654" transform="translate(1776.076 368.742)" fill="#fff"/><rect width="7.93" height="4.654" transform="translate(1776.076 383.786)" fill="#fff"/><rect width="10.7" height="4.654" transform="translate(1758.234 278.482)" fill="#fff"/><rect width="10.7" height="4.654" transform="translate(1758.234 293.525)" fill="#fff"/><rect width="10.7" height="4.654" transform="translate(1758.234 308.569)" fill="#fff"/><rect width="10.7" height="4.654" transform="translate(1758.234 323.612)" fill="#fff"/><rect width="10.7" height="4.654" transform="translate(1758.234 338.656)" fill="#fff"/><rect width="10.7" height="4.654" transform="translate(1758.234 353.699)" fill="#fff"/><rect width="10.7" height="4.654" transform="translate(1758.234 368.742)" fill="#fff"/><rect width="10.7" height="4.654" transform="translate(1758.234 383.786)" fill="#fff"/><rect width="10.699" height="4.654" transform="translate(1742.258 278.482)" fill="#fff"/><rect width="10.699" height="4.654" transform="translate(1742.258 263.436)" fill="#fff"/><rect width="10.699" height="4.654" transform="translate(1742.258 293.525)" fill="#fff"/><rect width="10.699" height="4.654" transform="translate(1742.258 308.569)" fill="#fff"/><rect width="10.699" height="4.654" transform="translate(1742.258 323.612)" fill="#fff"/><rect width="10.699" height="4.654" transform="translate(1742.258 338.656)" fill="#fff"/><rect width="10.699" height="4.654" transform="translate(1742.258 353.699)" fill="#fff"/><rect width="10.699" height="4.654" transform="translate(1742.258 368.742)" fill="#fff"/><rect width="10.699" height="4.654" transform="translate(1742.258 383.786)" fill="#fff"/><rect width="10.699" height="4.654" transform="translate(1724.299 278.482)" fill="#fff"/><rect width="10.699" height="4.654" transform="translate(1724.299 293.525)" fill="#fff"/><rect width="10.699" height="4.654" transform="translate(1724.299 308.569)" fill="#fff"/><rect width="10.699" height="4.654" transform="translate(1724.299 323.612)" fill="#fff"/><rect width="10.699" height="4.654" transform="translate(1724.299 338.656)" fill="#fff"/><rect width="10.699" height="4.654" transform="translate(1724.299 353.699)" fill="#fff"/><rect width="10.699" height="4.654" transform="translate(1724.299 368.742)" fill="#fff"/><rect width="10.699" height="4.654" transform="translate(1724.299 383.786)" fill="#fff"/><rect width="10.7" height="4.654" transform="translate(1758.234 396.031)" fill="#fff"/><rect width="10.699" height="4.654" transform="translate(1742.258 396.031)" fill="#fff"/><rect width="10.699" height="4.654" transform="translate(1724.299 396.031)" fill="#fff"/><path d="M1815.746,914.225h-68.972V896.734h-10.5V876.5l-94.08-30.846h-82.067l-25.965,11.1v4.752l-27.583,11.261h-53.459v-4.654h52.546l23.846-9.731v-4.7L1559.177,841l84.116.116,97.636,32.012v18.95h10.5v17.491h64.321Z" transform="translate(-343.515 -427.478)" fill="#fff"/><path d="M1555.673,874.368h-13.6v-4.654H1554.7l32.536-14.17h10.437l-26.517-10.016,1.643-4.351,32.99,12.462V860.2h-17.583Z" transform="translate(-355.843 -427.502)" fill="#fff"/><path d="M1758.092,879.528H1624.186l-30.446-17.272,2.294-4.048,29.379,16.666h132.68Z" transform="translate(-363.004 -429.862)" fill="#fff"/><path d="M1728.7,892.8H1604.19l-33.167-20.734,2.465-3.942,32.036,20.023H1728.7Z" transform="translate(-359.856 -431.236)" fill="#fff"/><rect width="145.888" height="4.654" transform="translate(1231.882 469.501)" fill="#fff"/><path d="M1874.475,936.772h-14.4v-4.654h9.745v-28.57h77.893V908.2h-73.242Z" transform="translate(-399.919 -436.146)" fill="#fff"/><rect width="163.905" height="4.654" transform="translate(1543.6 495.972)" fill="#fff"/><path d="M1963.769,917.009h-4.651V889.9H1996.9v-9.1h141.042v4.653H2001.553v9.1h-37.784Z" transform="translate(-413.645 -432.994)" fill="#fff"/><path d="M2049.06,933.686h-4.65v-28.8h29.7c39.1-15.118,75.037-.454,76.552.182l-1.793,4.291c-.357-.149-36.022-14.658-73.472.02l-.411.162H2049.06Z" transform="translate(-425.467 -435.388)" fill="#fff"/><path d="M1835.835,918.034h-4.651V892.856l70.825-7.568,22.812-.015v4.653h-22.565l-66.421,7.109Z" transform="translate(-395.914 -433.613)" fill="#fff"/><path d="M1862.03,887.217h-4.651V844.658h53.98V881.97h-4.651V849.312H1862.03Z" transform="translate(-399.545 -427.984)" fill="#fff"/><rect width="73.94" height="4.649" transform="translate(1386.332 442.219) rotate(-5.42)" fill="#fff"/><path d="M1917.4,865.76l-.126-4.648,232.769-6.3,19.188,0v4.654H2150.1Z" transform="translate(-407.846 -429.391)" fill="#fff"/><rect width="13.573" height="4.654" transform="translate(1409.782 451.659)" fill="#fff"/><rect width="4.651" height="14.218" transform="translate(1541.275 433.12)" fill="#fff"/><rect width="4.651" height="26.112" transform="translate(1556.494 433.12)" fill="#fff"/><path d="M2115.464,876.236h-4.651V831.05h28.266v33.406h-4.651V835.7h-18.964Z" transform="translate(-434.67 -426.098)" fill="#fff"/><path d="M2079.69,857.617h-4.652V848.8h-20.466v-3.15H2030.66V841h28.563v3.149h20.467Z" transform="translate(-423.561 -427.478)" fill="#fff"/><path d="M2059.721,837.559h-4.651v-17.2h35.422V799.371H2139v4.654h-43.856v20.992h-35.422Z" transform="translate(-426.944 -421.707)" fill="#fff"/><path d="M2039.711,836.461h-4.651V796.106h-20.241v-4.654h24.892Z" transform="translate(-421.365 -420.61)" fill="#fff"/><path d="M2012.163,850.244h-4.651V780.672h-28.636v-4.653h33.287Z" transform="translate(-416.384 -418.471)" fill="#fff"/><path d="M1996.813,773.223h-4.651V756.658h-24.14V743.714h-24.737v12.944h-25.94V752h21.289V739.06h34.039V752h24.14Z" transform="translate(-407.856 -413.349)" fill="#fff"/><path d="M2029.358,785.709h-4.651V765.77l-10.562-22.036-5.505,10.842-4.146-2.1,9.773-19.245,15.092,31.49Z" transform="translate(-419.934 -412.54)" fill="#fff"/><path d="M1872.387,832.349h-4.651V739.06H1900.2v6.822H1912.8v74.745h-4.651V750.535H1895.55v-6.821h-23.163Z" transform="translate(-400.98 -413.349)" fill="#fff"/><path d="M1885.061,719.989l-10.828,18.754h21.655Z" transform="translate(-401.88 -410.705)" fill="#fff"/><path d="M1477.133,816.491l-1.973,9.056h3.945Z" transform="translate(-346.57 -424.08)" fill="#fff"/><path d="M1959.7,713.962l-12.971,22.466h25.941Z" transform="translate(-411.929 -409.87)" fill="#fff"/><path d="M1941.932,727l-7.387,12.794h14.773Z" transform="translate(-410.24 -411.677)" fill="#fff"/><rect width="16.443" height="4.654" transform="translate(1516.662 325.712)" fill="#fff"/><path d="M1969.853,838.3h-2.584V770.007a6.448,6.448,0,0,0-12.9,0V838.3h-2.584V770.007a9.033,9.033,0,0,1,18.066,0Z" transform="translate(-412.629 -416.386)" fill="#fff"/><path d="M1941.135,841.918h-2.584V794.04a4.35,4.35,0,0,0-8.7,0v47.878h-2.584V794.04a6.934,6.934,0,0,1,13.868,0Z" transform="translate(-409.231 -420.008)" fill="#fff"/><path d="M2003.055,841.918h-2.584V794.04a4.349,4.349,0,0,0-8.7,0v47.878h-2.584V794.04a6.933,6.933,0,0,1,13.866,0Z" transform="translate(-417.813 -420.008)" fill="#fff"/><rect width="15.219" height="3.368" transform="translate(1675.057 387.863)" fill="#fff"/><rect width="17.055" height="4.425" transform="translate(1651.967 481.681)" fill="#fff"/><rect width="2.74" height="2.741" transform="translate(1581.909 481.681)" fill="#fff"/><rect width="2.741" height="2.741" transform="translate(1588.148 481.681)" fill="#fff"/><rect width="2.741" height="2.741" transform="translate(1600.626 481.681)" fill="#fff"/><rect width="2.741" height="2.741" transform="translate(1606.865 481.681)" fill="#fff"/><rect width="17.055" height="4.425" transform="translate(1678.468 481.681)" fill="#fff"/><rect width="15.219" height="3.368" transform="translate(1675.057 396.171)" fill="#fff"/><rect width="15.219" height="3.368" transform="translate(1696.835 387.863)" fill="#fff"/><rect width="15.219" height="3.368" transform="translate(1696.835 396.171)" fill="#fff"/><rect width="5.641" height="16.443" transform="translate(1519.329 471.827)" fill="#fff"/><rect width="2.584" height="26.238" transform="translate(1492.454 469.728)" fill="#fff"/><path d="M1941.443,956.886h-4.651v-7.8h-9.731v-7.722h-14.183v-4.654h18.834v7.722h9.731Z" transform="translate(-407.237 -440.743)" fill="#fff"/><rect width="13.773" height="3.681" transform="translate(1555.932 508.379)" fill="#fff"/><rect width="13.773" height="3.681" transform="translate(1586.075 508.379)" fill="#fff"/><rect width="13.773" height="3.681" transform="translate(1616.218 508.379)" fill="#fff"/><rect width="13.773" height="3.681" transform="translate(1646.36 508.379)" fill="#fff"/><rect width="13.773" height="3.681" transform="translate(1676.503 508.379)" fill="#fff"/><path d="M1726.741,852.383h-4.651V796.106h-24.141v19.013H1693.3V791.452h33.444Z" transform="translate(-376.803 -420.61)" fill="#fff"/><rect width="32.589" height="4.654" transform="translate(1300.627 392.182)" fill="#fff"/><path d="M1766.628,857.9h-4.651V835.908h-32.555v-4.654h37.206Z" transform="translate(-381.81 -426.127)" fill="#fff"/><path d="M1797.242,866.287h-4.651V821.626h-34.532V831.6h-4.651V816.973h43.835Z" transform="translate(-385.134 -424.147)" fill="#fff"/><path d="M1831.734,856.041h-4.651V844.079h-5.423v-9.8h-20.064v-4.654h24.715v9.8h5.423Z" transform="translate(-391.813 -425.901)" fill="#fff"/><path d="M1853,832.088h-12.821v-4.654h8.17V813.791h17.894v4.654H1853Z" transform="translate(-397.16 -423.706)" fill="#fff"/><path d="M1812.377,828.578h-4.651V809.913h-21.237v7.763h-4.651V805.26h30.54Z" transform="translate(-389.075 -422.524)" fill="#fff"/><rect width="9.871" height="2.584" transform="translate(1341.008 373.898) rotate(-75.639)" fill="#fff"/><rect width="9.871" height="2.584" transform="translate(1333.616 373.898) rotate(-75.639)" fill="#fff"/><rect width="9.871" height="2.584" transform="translate(1326.225 373.898) rotate(-75.639)" fill="#fff"/><path d="M1698.516,793.946l-2.5-.641,2.7-10.534h24.236l2.134,10.6-2.533.51-1.715-8.525h-20.115Z" transform="translate(-377.179 -419.407)" fill="#fff"/><rect width="2.895" height="3.323" transform="translate(1322.406 402.732)" fill="#fff"/><rect width="2.895" height="3.323" transform="translate(1328.478 402.732)" fill="#fff"/><rect width="2.895" height="3.323" transform="translate(1334.55 402.732)" fill="#fff"/><rect width="2.895" height="3.323" transform="translate(1334.55 381.741)" fill="#fff"/><rect width="2.895" height="3.323" transform="translate(1328.478 410.866)" fill="#fff"/><rect width="2.895" height="3.323" transform="translate(1334.55 410.866)" fill="#fff"/><path d="M1483.293,868.709l-4.585-25.287v-9.854a3.447,3.447,0,0,0-6.895,0l-.038,10.274-4.547,24.868-4.576-.838,4.51-24.66v-9.643a8.1,8.1,0,0,1,16.2,0v9.643l4.51,24.66Z" transform="translate(-344.836 -425.325)" fill="#fff"/><rect width="27.361" height="4.654" transform="translate(1116.882 415.77)" fill="#fff"/><path d="M1530.853,840.354H1526.2V819.736h-19.941v-11.75h-20.241v-4.654h24.892v11.75h19.941Z" transform="translate(-348.075 -422.256)" fill="#fff"/><rect width="100.757" height="4.654" transform="translate(1191.736 392.826)" fill="#fff"/><path d="M1585.869,813.272h-4.651V789.882h-44.869V778.135h-67.994v-4.654H1541v11.748h44.869Z" transform="translate(-345.626 -418.119)" fill="#fff"/><rect width="4.651" height="26.94" transform="translate(1311.159 394.509)" fill="#fff"/><rect width="247.345" height="4.654" transform="translate(1173.631 504.835)" fill="#fff"/><rect width="4.651" height="17.845" transform="translate(1418.651 498.298)" fill="#fff"/><rect width="12.945" height="4.654" transform="translate(1431.822 502.387)" fill="#fff"/><rect width="16.443" height="4.654" transform="translate(1480.102 506.054)" fill="#fff"/><rect width="14.24" height="4.654" transform="translate(1423.355 466.877)" fill="#fff"/><rect width="6.297" height="12.595" transform="translate(1245.701 471.827)" fill="#fff"/><rect width="6.297" height="12.595" transform="translate(1266.692 471.827)" fill="#fff"/><rect width="6.297" height="12.595" transform="translate(1287.683 471.827)" fill="#fff"/><rect width="6.297" height="12.595" transform="translate(1308.674 471.827)" fill="#fff"/><rect width="6.297" height="12.595" transform="translate(1329.665 471.827)" fill="#fff"/><rect width="6.297" height="12.595" transform="translate(1350.657 471.827)" fill="#fff"/><rect width="6.297" height="12.595" transform="translate(1245.701 494.568)" fill="#fff"/><rect width="6.297" height="12.595" transform="translate(1266.692 494.568)" fill="#fff"/><rect width="6.297" height="12.595" transform="translate(1287.683 494.568)" fill="#fff"/><rect width="6.297" height="12.595" transform="translate(1165.934 471.827)" fill="#fff"/><rect width="6.297" height="12.595" transform="translate(1186.926 471.827)" fill="#fff"/><rect width="6.297" height="12.595" transform="translate(1207.917 471.827)" fill="#fff"/><rect width="6.297" height="12.595" transform="translate(1186.926 494.568)" fill="#fff"/><rect width="6.297" height="12.595" transform="translate(1207.917 494.568)" fill="#fff"/><rect width="6.297" height="12.595" transform="translate(1308.674 494.568)" fill="#fff"/><rect width="6.297" height="12.595" transform="translate(1329.665 494.568)" fill="#fff"/><rect width="6.297" height="12.595" transform="translate(1350.657 494.568)" fill="#fff"/><path d="M1220.73,875.982h-4.651V829.225h71.473v43.959H1282.9V833.878H1220.73Z" transform="translate(-310.661 -425.845)" fill="#fff"/><path d="M1202.656,868.257h-4.651V778.135H1176.54v-4.654h26.116Z" transform="translate(-305.181 -418.119)" fill="#fff"/><path d="M1437.385,809.21h-4.651v-5.8l-5.257-14.609H1204.158v-4.654h226.59l6.637,18.45Z" transform="translate(-309.009 -419.597)" fill="#fff"/><path d="M1456.7,831.865h-4.651l.1-15.737,9.1-30.067,4.451,1.348-9,29.736Z" transform="translate(-343.366 -419.863)" fill="#fff"/><rect width="117.55" height="4.654" transform="translate(993.458 394.612)" fill="#fff"/><path d="M1232.626,827.442h-4.651V804.23h-7.244v12.482h-4.651V799.576h16.547Z" transform="translate(-310.661 -421.736)" fill="#fff"/><path d="M1232.723,821.748h15.394l8.231,8.231h-23.625Z" transform="translate(-312.968 -424.809)" fill="#fff"/><path d="M1262.381,819.818l-6.673,11.557h13.345Z" transform="translate(-316.154 -424.541)" fill="#fff"/><path d="M1272.535,819.818l-6.672,11.557h13.345Z" transform="translate(-317.561 -424.541)" fill="#fff"/><path d="M1282.688,819.818l-6.672,11.557h13.345Z" transform="translate(-318.968 -424.541)" fill="#fff"/><rect width="4.651" height="30.786" transform="translate(922.21 405.706)" fill="#fff"/><rect width="4.523" height="6.85" transform="translate(935.032 418.097)" fill="#fff"/><rect width="4.523" height="6.85" transform="translate(946.04 418.097)" fill="#fff"/><rect width="4.523" height="6.85" transform="translate(957.047 418.097)" fill="#fff"/><rect width="2.584" height="37.804" transform="translate(998.813 396.939)" fill="#fff"/><rect width="2.584" height="37.804" transform="translate(1011.057 396.939)" fill="#fff"/><rect width="2.584" height="37.804" transform="translate(1023.302 396.939)" fill="#fff"/><rect width="2.584" height="37.804" transform="translate(1035.547 396.939)" fill="#fff"/><rect width="2.584" height="37.804" transform="translate(1047.791 396.939)" fill="#fff"/><rect width="2.584" height="37.804" transform="translate(1060.036 396.939)" fill="#fff"/><rect width="2.584" height="37.804" transform="translate(1072.281 396.939)" fill="#fff"/><rect width="2.584" height="37.804" transform="translate(1084.527 396.939)" fill="#fff"/><rect width="2.584" height="37.804" transform="translate(1096.772 396.939)" fill="#fff"/><path d="M1315.5,894.187H1258l-15.335-12.414,2.927-3.614,14.054,11.374H1315.5Z" transform="translate(-314.346 -432.627)" fill="#fff"/><path d="M1235.264,900.047h-73.344v-4.654h68.693V876.852h90.269l8.4-4.374h72.987v4.654h-71.849l-8.4,4.374h-86.756Z" transform="translate(-303.155 -431.84)" fill="#fff"/><path d="M1111.106,886.211c-27.64,0-50.126-30-50.126-66.873s22.486-66.877,50.126-66.877,50.125,30,50.125,66.877S1138.745,886.211,1111.106,886.211Zm0-129.1c-25.074,0-45.474,27.912-45.474,62.223s20.4,62.22,45.474,62.22,45.474-27.911,45.474-62.22S1136.18,757.114,1111.106,757.114Z" transform="translate(-289.165 -415.206)" fill="#fff"/><rect width="2.584" height="64.55" transform="translate(820.649 339.582)" fill="#fff"/><rect width="2.585" height="60.796" transform="translate(796.853 348.738) rotate(-23.149)" fill="#fff"/><rect width="2.586" height="52.49" transform="translate(779.751 372.876) rotate(-52.057)" fill="#fff"/><rect width="47.8" height="2.584" transform="translate(774.141 402.839)" fill="#fff"/><rect width="52.489" height="2.586" transform="matrix(0.789, -0.615, 0.615, 0.789, 779.752, 435.385)" fill="#fff"/><rect width="112.052" height="4.651" transform="translate(775.769 506.256) rotate(-66.871)" fill="#fff"/><rect width="4.651" height="64.547" transform="translate(819.616 404.132)" fill="#fff"/><rect width="4.651" height="112.052" transform="matrix(0.919, -0.393, 0.393, 0.919, 819.803, 405.046)" fill="#fff"/><rect width="2.586" height="52.489" transform="matrix(0.615, -0.789, 0.789, 0.615, 821.146, 405.151)" fill="#fff"/><rect width="47.799" height="2.584" transform="translate(821.941 402.839)" fill="#fff"/><rect width="52.49" height="2.586" transform="matrix(0.789, -0.615, 0.615, 0.789, 821.146, 403.112)" fill="#fff"/><rect width="60.795" height="2.585" transform="matrix(0.393, -0.92, 0.92, 0.393, 820.771, 403.632)" fill="#fff"/><path d="M1194.092,958.312h-4.651v-6.655H1048.728v6.655h-4.651V947h150.015Z" transform="translate(-286.822 -442.169)" fill="#fff"/><rect width="4.651" height="29.037" transform="translate(819.616 478.124)" fill="#fff"/><rect width="4.651" height="40.931" transform="translate(828.8 450.137)" fill="#fff"/><path d="M1138.379,946.741h-4.651V932.975h-14.556v-4.653h19.207Z" transform="translate(-297.23 -439.58)" fill="#fff"/><path d="M1176.709,928.192h-15.728v-4.654h11.077V913.295h32.763v4.654h-28.112Z" transform="translate(-303.025 -437.497)" fill="#fff"/><path d="M1328.228,928.93h-4.651V909.215h-42l-17.932,6.8v7.018h-46.893v-4.654h42.242v-5.575l21.73-8.245h47.508Z" transform="translate(-310.754 -436.287)" fill="#fff"/><path d="M1389.478,955.976h-4.651v-15.8l-5.373-5.373H1299.6v-4.654h81.78l8.1,8.1Z" transform="translate(-322.237 -439.833)" fill="#fff"/><path d="M1344.845,906.859l-3.288-3.291,11.089-11.089h95.511v4.654h-93.585Z" transform="translate(-328.052 -434.612)" fill="#fff"/><path d="M1487.535,950.865h-4.651V914.116l-6.728-6.725H1364.465l-10.827-10.829,3.288-3.291,9.466,9.466h111.689l9.453,9.451Z" transform="translate(-329.727 -434.722)" fill="#fff"/><rect width="77.71" height="4.654" transform="translate(1077.772 488.966)" fill="#fff"/><rect width="77.71" height="4.654" transform="translate(1077.772 500.287)" fill="#fff"/><rect width="77.71" height="4.654" transform="translate(977.364 504.835)" fill="#fff"/><path d="M1.533,0H6.689A1.533,1.533,0,0,1,8.222,1.533V16.21a0,0,0,0,1,0,0H0a0,0,0,0,1,0,0V1.533A1.533,1.533,0,0,1,1.533,0Z" transform="translate(924.536 495.442)" fill="#fff"/><path d="M1.533,0H6.689A1.533,1.533,0,0,1,8.221,1.533V16.21a0,0,0,0,1,0,0H0a0,0,0,0,1,0,0V1.533A1.533,1.533,0,0,1,1.533,0Z" transform="translate(941.929 495.442)" fill="#fff"/><rect width="2.911" height="2.561" transform="translate(970.392 480.685)" fill="#fff"/><rect width="2.911" height="2.561" transform="translate(981.211 480.685)" fill="#fff"/><rect width="2.911" height="2.561" transform="translate(992.029 480.685)" fill="#fff"/><rect width="2.911" height="2.561" transform="translate(1002.847 480.685)" fill="#fff"/><rect width="2.911" height="2.561" transform="translate(1030.527 480.685)" fill="#fff"/><rect width="2.911" height="2.561" transform="translate(1041.346 480.685)" fill="#fff"/><rect width="2.911" height="2.561" transform="translate(1052.164 480.685)" fill="#fff"/><rect width="51.778" height="9.184" transform="translate(1057.83 357.688)" fill="#fff"/><path d="M1341.829,782.808h-4.652V764.4c-11.019-3.819-21.279-1.189-24.931.012v18.4H1307.6V761.256l1.4-.606c.614-.268,15.271-6.428,31.362-.025l1.466.583Z" transform="translate(-323.345 -415.936)" fill="#fff"/><path d="M1367.6,783.99h-4.652V772.06a26.554,26.554,0,0,0-16.8.5l-1.836-4.273a30.625,30.625,0,0,1,21.822-.025l1.467.583Z" transform="translate(-328.434 -417.117)" fill="#fff"/><path d="M1404.906,776.736h-4.651V764.02h-20.188V771.8h-11.422v-4.654h6.771v-7.778h29.49Z" transform="translate(-331.807 -416.163)" fill="#fff"/><rect width="33.586" height="2.221" transform="translate(1144.244 369.437)" fill="#fff"/><rect width="8.746" height="2.221" transform="translate(1169.083 376.592)" fill="#fff"/><rect width="8.746" height="2.221" transform="translate(1169.083 383.747)" fill="#fff"/><rect width="33.586" height="2.221" transform="translate(1191.124 376.592)" fill="#fff"/><rect width="33.586" height="2.221" transform="translate(1191.124 383.747)" fill="#fff"/><rect width="8.396" height="3.061" transform="translate(1199.52 404.394)" fill="#fff"/><rect width="8.397" height="3.061" transform="translate(1222.917 404.394)" fill="#fff"/><rect width="8.396" height="3.061" transform="translate(1246.313 404.394)" fill="#fff"/><rect width="8.396" height="3.061" transform="translate(1269.709 404.394)" fill="#fff"/><path d="M794.279,910.071h-4.651V614.333h26.589V598.939h120.1v15.621h-4.651V603.593h-110.8v15.394H794.279Z" transform="translate(-251.556 -393.928)" fill="#fff"/><path d="M979.195,763.272h-4.651V618.138H921.016v-16.5h4.651v11.843h53.528Z" transform="translate(-269.766 -394.302)" fill="#fff"/><path d="M1025.44,739.953H985.856V735.3h34.933v-8.035h-20.764V722.61h25.416Z" transform="translate(-278.753 -411.069)" fill="#fff"/><path d="M1046.654,782.08H1042V741.994H1029.11v-4.654h17.544Z" transform="translate(-284.748 -413.11)" fill="#fff"/><path d="M1139.166,705.372h-4.651V498.749l-16.542-4.206h-86.912V692.683h-4.651V489.892l92.427.072,20.329,5.168Z" transform="translate(-284.374 -378.814)" fill="#fff"/><path d="M1176.149,770.8H1171.5v-28.8H1071.115v-4.654h105.034Z" transform="translate(-290.57 -413.11)" fill="#fff"/><rect width="4.651" height="197.316" transform="translate(788.218 113.403)" fill="#fff"/><path d="M1135.38,706.083h-4.651v-98h-5.072V539.337h-9.185V495.029h4.651v39.656h9.185V603.43h5.072Z" transform="translate(-296.856 -379.526)" fill="#fff"/><rect width="26.822" height="2.584" transform="translate(777.89 150.187)" fill="#fff"/><rect width="26.822" height="2.584" transform="translate(777.89 166.98)" fill="#fff"/><rect width="26.822" height="2.584" transform="translate(777.89 183.772)" fill="#fff"/><rect width="26.822" height="2.584" transform="translate(777.89 200.565)" fill="#fff"/><rect width="26.822" height="2.584" transform="translate(777.89 217.36)" fill="#fff"/><rect width="26.822" height="2.584" transform="translate(777.89 234.152)" fill="#fff"/><rect width="26.822" height="2.584" transform="translate(777.89 250.944)" fill="#fff"/><rect width="26.822" height="2.584" transform="translate(777.89 267.736)" fill="#fff"/><rect width="26.822" height="2.584" transform="translate(777.89 284.531)" fill="#fff"/><rect width="26.822" height="2.584" transform="translate(777.89 301.323)" fill="#fff"/><rect width="15.394" height="4.548" transform="translate(721.622 339.583)" fill="#fff"/><rect width="15.394" height="4.548" transform="translate(721.622 350.778)" fill="#fff"/><path d="M803.294,615.8v-23.09H915.247v7.7h-94.81V615.8Z" transform="translate(-253.45 -393.064)" fill="#fff"/><rect width="4.653" height="21.203" transform="matrix(0.792, -0.611, 0.611, 0.792, 563.435, 186.485)" fill="#fff"/><rect width="21.203" height="4.653" transform="matrix(0.611, -0.792, 0.792, 0.611, 633.07, 200.435)" fill="#fff"/><rect width="96.034" height="4.654" transform="translate(558.552 182.738)" fill="#fff"/><rect width="4.651" height="147.461" transform="translate(673.291 221.508)" fill="#fff"/><rect width="14.694" height="5.773" transform="translate(552.818 237.776)" fill="#fff"/><rect width="14.694" height="5.773" transform="translate(552.818 271.362)" fill="#fff"/><rect width="14.694" height="5.773" transform="translate(552.818 288.155)" fill="#fff"/><rect width="14.694" height="5.773" transform="translate(552.818 304.948)" fill="#fff"/><rect width="14.694" height="5.773" transform="translate(552.818 321.741)" fill="#fff"/><rect width="14.694" height="5.773" transform="translate(581.156 237.776)" fill="#fff"/><rect width="14.694" height="5.773" transform="translate(581.156 254.569)" fill="#fff"/><rect width="14.694" height="5.773" transform="translate(581.156 271.362)" fill="#fff"/><rect width="14.694" height="5.773" transform="translate(581.156 288.155)" fill="#fff"/><rect width="14.694" height="5.773" transform="translate(581.156 321.741)" fill="#fff"/><rect width="14.694" height="5.773" transform="translate(581.156 338.534)" fill="#fff"/><rect width="14.694" height="12.77" transform="translate(581.156 215.735)" fill="#fff"/><rect width="14.694" height="12.77" transform="translate(609.494 215.735)" fill="#fff"/><rect width="14.694" height="5.773" transform="translate(609.494 254.569)" fill="#fff"/><rect width="14.694" height="5.773" transform="translate(609.494 271.362)" fill="#fff"/><rect width="14.694" height="5.773" transform="translate(609.494 288.155)" fill="#fff"/><rect width="14.694" height="5.773" transform="translate(609.494 304.948)" fill="#fff"/><rect width="14.694" height="5.773" transform="translate(609.494 321.741)" fill="#fff"/><rect width="14.694" height="5.773" transform="translate(609.494 338.534)" fill="#fff"/><rect width="14.694" height="5.773" transform="translate(637.832 237.776)" fill="#fff"/><rect width="14.694" height="5.773" transform="translate(637.832 271.362)" fill="#fff"/><rect width="14.694" height="5.773" transform="translate(637.832 288.155)" fill="#fff"/><rect width="14.694" height="5.773" transform="translate(637.832 321.741)" fill="#fff"/><rect width="14.694" height="5.773" transform="translate(637.832 338.534)" fill="#fff"/><rect width="7.347" height="5.773" transform="translate(684.946 237.776)" fill="#fff"/><rect width="7.347" height="5.773" transform="translate(684.946 271.362)" fill="#fff"/><rect width="7.347" height="5.773" transform="translate(684.946 288.155)" fill="#fff"/><rect width="7.347" height="5.773" transform="translate(684.946 321.741)" fill="#fff"/><rect width="7.347" height="5.773" transform="translate(684.946 338.534)" fill="#fff"/><rect width="227.36" height="4.654" transform="translate(553.186 366.847)" fill="#fff"/><path d="M575.978,933.261h-4.651V912.893h18.192l8.572-8.57V766.257H761.7v4.654H602.741V906.25l-11.3,11.3H575.978Z" transform="translate(-221.3 -417.118)" fill="#fff"/><rect width="4.651" height="155.696" transform="translate(415.099 351.466)" fill="#fff"/><path d="M677.176,958.312h-4.651v-6.655H631.293V947h45.882Z" transform="translate(-229.611 -442.169)" fill="#fff"/><rect width="103.382" height="4.654" transform="translate(417.425 364.546)" fill="#fff"/><rect width="103.382" height="4.654" transform="translate(417.425 379.708)" fill="#fff"/><rect width="103.382" height="4.654" transform="translate(417.425 394.87)" fill="#fff"/><rect width="103.382" height="4.654" transform="translate(417.425 410.032)" fill="#fff"/><rect width="103.382" height="4.654" transform="translate(417.425 425.194)" fill="#fff"/><rect width="103.382" height="4.654" transform="translate(417.425 440.356)" fill="#fff"/><rect width="103.382" height="4.654" transform="translate(417.425 455.518)" fill="#fff"/><rect width="103.382" height="4.654" transform="translate(417.425 470.68)" fill="#fff"/><rect width="103.382" height="4.654" transform="translate(417.425 485.842)" fill="#fff"/><rect width="7.346" height="4.654" transform="translate(398.942 364.546)" fill="#fff"/><rect width="7.346" height="4.654" transform="translate(398.942 379.708)" fill="#fff"/><rect width="7.346" height="4.654" transform="translate(398.942 394.87)" fill="#fff"/><rect width="7.346" height="4.654" transform="translate(398.942 410.032)" fill="#fff"/><rect width="7.346" height="4.654" transform="translate(398.942 425.194)" fill="#fff"/><rect width="7.346" height="4.654" transform="translate(398.942 440.356)" fill="#fff"/><rect width="7.346" height="4.654" transform="translate(398.942 455.518)" fill="#fff"/><rect width="7.346" height="4.654" transform="translate(398.942 470.68)" fill="#fff"/><rect width="7.346" height="4.654" transform="translate(398.942 485.842)" fill="#fff"/><path d="M577.495,729.367h-4.651V581.257H393.823v11.432h-4.651V576.6H577.495Z" transform="translate(-196.053 -390.832)" fill="#fff"/><path d="M362.752,790.243H358.1V592.576h68.15v20.452H421.6v-15.8H362.752Z" transform="translate(-191.747 -393.046)" fill="#fff"/><path d="M517.37,573.412v-24.84h5.248V536.794h6.3v36.618Z" transform="translate(-213.821 -385.315)" fill="#fff"/><rect width="2.584" height="209.098" transform="translate(335.842 188.098)" fill="#fff"/><rect width="2.584" height="209.098" transform="translate(359.457 188.098)" fill="#fff"/><path d="M534.7,621H512.683V594.5H480.108v20.992H400.119V596.1H402.7v16.812h74.821V591.917h37.743v26.5H534.7Z" transform="translate(-197.571 -392.955)" fill="#fff"/><rect width="2.584" height="233.79" transform="translate(305.667 200.254)" fill="#fff"/><rect width="2.584" height="175.951" transform="translate(262.897 221.246)" fill="#fff"/><path d="M310.361,913H305.71V838.7H320.4V821.912H455.935L472.729,838.7h18.715v4.654H470.8L454.01,826.566H325.055v16.792H310.361Z" transform="translate(-184.486 -424.832)" fill="#fff"/><rect width="4.651" height="202.827" transform="translate(292.302 200.254)" fill="#fff"/><path d="M508.168,867.323H469.309l-9.859-9.857H442.869v-10.8H344.962v-4.654H447.52v10.8h13.856l9.859,9.857h36.933Z" transform="translate(-189.926 -427.618)" fill="#fff"/><path d="M555.645,848.305h-4.651V836.313H534.427v-4.653h21.217Z" transform="translate(-216.185 -426.183)" fill="#fff"/><path d="M595.724,877.975H580.748l-14.694-25.04h-28.58v-4.654h31.243l14.694,25.039h12.313Z" transform="translate(-216.608 -428.486)" fill="#fff"/><path d="M560.748,917.986H556.1V877.351h28.564V882H560.748Z" transform="translate(-219.189 -432.515)" fill="#fff"/><path d="M565.814,918.848H513.54V883.994l-13.919-13.92,3.288-3.291,15.282,15.283v32.128h47.622Z" transform="translate(-211.361 -431.051)" fill="#fff"/><path d="M538.217,954.822h-4.651V940.647H495.044l-14.169-14.17H427.613v-4.654H482.8l14.169,14.17h41.245Z" transform="translate(-201.381 -438.679)" fill="#fff"/><path d="M445.841,942.461H403.42l-11.3-11.306H285.259V926.5H394.043l11.3,11.306h40.493Z" transform="translate(-181.651 -439.328)" fill="#fff"/><rect width="116.5" height="4.654" transform="translate(123.55 452.706)" fill="#fff"/><rect width="4.651" height="56.156" transform="translate(237.724 429.315)" fill="#fff"/><rect width="7.474" height="4.181" transform="translate(138.768 466.317)" fill="#fff"/><rect width="7.474" height="4.181" transform="translate(158.765 466.317)" fill="#fff"/><rect width="7.474" height="4.181" transform="translate(178.762 466.317)" fill="#fff"/><rect width="7.474" height="4.181" transform="translate(198.76 466.317)" fill="#fff"/><rect width="7.474" height="4.181" transform="translate(218.757 466.317)" fill="#fff"/><rect width="7.474" height="7.474" transform="translate(354.452 464.227)" fill="#fff"/><rect width="2.584" height="25.718" transform="translate(137.475 429.315)" fill="#fff"/><rect width="2.584" height="25.718" transform="translate(149.546 429.315)" fill="#fff"/><rect width="2.584" height="25.718" transform="translate(161.615 429.315)" fill="#fff"/><rect width="2.584" height="25.718" transform="translate(173.686 429.315)" fill="#fff"/><rect width="2.584" height="25.718" transform="translate(185.755 429.315)" fill="#fff"/><rect width="2.584" height="25.718" transform="translate(197.825 429.315)" fill="#fff"/><rect width="2.584" height="25.718" transform="translate(209.895 429.315)" fill="#fff"/><rect width="2.584" height="25.718" transform="translate(221.965 429.315)" fill="#fff"/><path d="M488.5,920.281h-4.651V898.563H459.495v-4.654h29Z" transform="translate(-205.8 -434.81)" fill="#fff"/><rect width="5.959" height="6.032" transform="translate(201.157 261.016)" fill="#fff"/><rect width="11.641" height="6.032" transform="translate(212.625 261.016)" fill="#fff"/><rect width="5.959" height="6.032" transform="translate(254.601 267.048) rotate(180)" fill="#fff"/><rect width="11.641" height="6.032" transform="translate(243.133 267.048) rotate(180)" fill="#fff"/><rect width="5.959" height="6.032" transform="translate(201.157 279.79)" fill="#fff"/><rect width="5.959" height="6.032" transform="translate(183.257 261.016)" fill="#fff"/><rect width="5.959" height="6.032" transform="translate(183.257 246.205)" fill="#fff"/><rect width="5.959" height="6.032" transform="translate(183.257 279.79)" fill="#fff"/><rect width="11.641" height="6.032" transform="translate(212.625 279.79)" fill="#fff"/><rect width="5.959" height="6.032" transform="translate(254.601 285.822) rotate(180)" fill="#fff"/><rect width="11.641" height="6.032" transform="translate(243.133 285.822) rotate(180)" fill="#fff"/><rect width="5.959" height="6.032" transform="translate(201.157 298.564)" fill="#fff"/><rect width="11.641" height="6.032" transform="translate(212.625 298.564)" fill="#fff"/><rect width="5.959" height="6.032" transform="translate(254.601 304.596) rotate(180)" fill="#fff"/><rect width="11.641" height="6.032" transform="translate(243.133 304.596) rotate(180)" fill="#fff"/><rect width="5.959" height="6.032" transform="translate(201.157 317.339)" fill="#fff"/><rect width="11.641" height="6.032" transform="translate(212.625 317.339)" fill="#fff"/><rect width="5.959" height="6.032" transform="translate(254.601 323.371) rotate(180)" fill="#fff"/><rect width="11.641" height="6.032" transform="translate(243.133 323.371) rotate(180)" fill="#fff"/><rect width="5.959" height="6.032" transform="translate(201.157 336.113)" fill="#fff"/><rect width="11.641" height="6.032" transform="translate(212.625 336.113)" fill="#fff"/><rect width="5.959" height="6.032" transform="translate(254.601 342.145) rotate(180)" fill="#fff"/><rect width="11.641" height="6.032" transform="translate(243.133 342.145) rotate(180)" fill="#fff"/><rect width="5.959" height="6.032" transform="translate(201.157 354.887)" fill="#fff"/><rect width="11.641" height="6.032" transform="translate(212.625 354.887)" fill="#fff"/><rect width="5.959" height="6.032" transform="translate(254.601 360.919) rotate(180)" fill="#fff"/><rect width="11.641" height="6.032" transform="translate(243.133 360.919) rotate(180)" fill="#fff"/><rect width="5.959" height="6.032" transform="translate(201.157 373.661)" fill="#fff"/><rect width="11.641" height="6.032" transform="translate(212.625 373.661)" fill="#fff"/><rect width="5.959" height="6.032" transform="translate(254.601 379.693) rotate(180)" fill="#fff"/><rect width="5.959" height="6.032" transform="translate(280.371 267.048) rotate(180)" fill="#fff"/><rect width="5.959" height="6.032" transform="translate(280.371 285.822) rotate(180)" fill="#fff"/><rect width="5.959" height="6.032" transform="translate(280.371 304.596) rotate(180)" fill="#fff"/><rect width="5.959" height="6.032" transform="translate(280.371 323.371) rotate(180)" fill="#fff"/><rect width="5.959" height="6.032" transform="translate(280.371 342.145) rotate(180)" fill="#fff"/><rect width="5.959" height="6.032" transform="translate(280.371 360.919) rotate(180)" fill="#fff"/><rect width="5.959" height="6.032" transform="translate(280.371 379.693) rotate(180)" fill="#fff"/><rect width="5.959" height="6.032" transform="translate(325.026 267.048) rotate(180)" fill="#fff"/><rect width="5.959" height="6.032" transform="translate(325.026 285.822) rotate(180)" fill="#fff"/><rect width="5.959" height="6.032" transform="translate(325.026 304.596) rotate(180)" fill="#fff"/><rect width="5.959" height="6.032" transform="translate(325.026 323.371) rotate(180)" fill="#fff"/><rect width="5.959" height="6.032" transform="translate(325.026 342.145) rotate(180)" fill="#fff"/><rect width="5.959" height="6.032" transform="translate(325.026 360.919) rotate(180)" fill="#fff"/><rect width="5.959" height="6.032" transform="translate(325.026 379.693) rotate(180)" fill="#fff"/><rect width="11.641" height="6.032" transform="translate(243.133 379.693) rotate(180)" fill="#fff"/><rect width="3.427" height="10.496" transform="translate(201.157 233.053)" fill="#fff"/><rect width="3.427" height="10.496" transform="translate(210.979 233.053)" fill="#fff"/><rect width="3.427" height="10.496" transform="translate(220.801 233.053)" fill="#fff"/><rect width="3.427" height="10.496" transform="translate(230.623 233.053)" fill="#fff"/><rect width="3.427" height="10.496" transform="translate(240.446 233.053)" fill="#fff"/><rect width="3.427" height="10.496" transform="translate(250.268 233.053)" fill="#fff"/><path d="M255.734,896.195h-4.651V818.825h20.992V773.453l2.305-.021c71.549-.618,71.933-.242,72.849.667l.687.684,0,.977h-2.326l-.488,2.253c-2.623-.363-41.473-.174-68.381.052v45.413H255.734Z" transform="translate(-176.914 -418.07)" fill="#fff"/><path d="M169.632,951.74h-4.651V922.772h41.283V899.587h54.8v4.654H210.915v23.185H169.632Z" transform="translate(-164.981 -435.597)" fill="#fff"/><rect width="4.651" height="23.5" transform="translate(74.168 492.643)" fill="#fff"/><rect width="53.877" height="4.654" transform="translate(22.617 502.066)" fill="#fff"/><rect width="24" height="4.654" transform="translate(96.086 502.066)" fill="#fff"/><rect width="24" height="4.654" transform="translate(135.601 502.066)" fill="#fff"/><rect width="24" height="4.654" transform="translate(175.118 502.066)" fill="#fff"/><rect width="4.651" height="45.393" transform="translate(111.952 357.689)" fill="#fff"/><rect width="4.651" height="30.304" transform="translate(128.266 357.689)" fill="#fff"/><rect width="4.651" height="30.304" transform="translate(144.58 357.689)" fill="#fff"/><rect width="19.592" height="4.654" transform="translate(76.494 419.796)" fill="#fff"/><rect width="19.592" height="4.654" transform="translate(76.494 439.848)" fill="#fff"/><rect width="7.697" height="21.91" transform="translate(564.145 387.994)" fill="#fff"/><path d="M839.855,833.417H835.2V822.343l-13.812-4.994-13.81,4.994v11.074H802.93V819.077l18.462-6.675,18.463,6.675Z" transform="translate(-253.4 -423.513)" fill="#fff"/><rect width="7.697" height="21.91" transform="translate(617.847 387.994)" fill="#fff"/><path d="M902.2,833.417h-4.651V822.343l-13.812-4.994-13.812,4.994v11.074h-4.651V819.077l18.463-6.675,18.463,6.675Z" transform="translate(-262.04 -423.513)" fill="#fff"/><rect width="7.697" height="21.91" transform="translate(671.549 387.994)" fill="#fff"/><path d="M964.541,833.417H959.89V822.343l-13.812-4.994-13.811,4.994v11.074h-4.651V819.077l18.462-6.675,18.463,6.675Z" transform="translate(-270.681 -423.513)" fill="#fff"/><rect width="7.697" height="21.91" transform="translate(725.252 387.994)" fill="#fff"/><path d="M1026.883,833.417h-4.651V822.343l-13.811-4.994-13.812,4.994v11.074h-4.651V819.077l18.463-6.675,18.462,6.675Z" transform="translate(-279.321 -423.513)" fill="#fff"/><path d="M809.417,927.385h-4.651V838.75H790.3V834.1h19.119Z" transform="translate(-251.649 -426.52)" fill="#fff"/><path d="M869.933,927.385h-4.651V838.75H841.6v88.635h-4.651V834.1h32.989Z" transform="translate(-258.114 -426.52)" fill="#fff"/><path d="M930.78,927.385h-4.651V838.75H904.345v88.635h-4.651V834.1H930.78Z" transform="translate(-266.811 -426.52)" fill="#fff"/><path d="M992.784,927.385h-4.651V838.75H966.35v88.635H961.7V834.1h31.085Z" transform="translate(-275.405 -426.52)" fill="#fff"/><path d="M1029.031,848.042h-4.651V834.1h33.854v4.654h-29.2Z" transform="translate(-284.092 -426.52)" fill="#fff"/><path d="M1034.757,873.629h-4.651v-21.39h-12.369v-4.654h17.019Z" transform="translate(-283.172 -428.39)" fill="#fff"/><path d="M1072.353,909.424h-15.838v-26.5l-14.642-8.151-14.642,8.151v26.5h-15.838V904.77h11.187V880.19l19.293-10.741,19.293,10.741v24.58h11.188Z" transform="translate(-282.292 -431.42)" fill="#fff"/><path d="M1062.934,935.652h-28.792l-5.812-5.812H995.086v-4.654h35.169l5.812,5.812h26.867Z" transform="translate(-280.032 -439.145)" fill="#fff"/><path d="M845.8,957.3H841.15V944.348H790.3v-4.654h55.5Z" transform="translate(-251.649 -441.156)" fill="#fff"/><rect width="132.376" height="4.654" transform="translate(600.573 498.538)" fill="#fff"/><rect width="19.417" height="4.654" transform="translate(581.156 419.796)" fill="#fff"/><rect width="19.417" height="4.654" transform="translate(581.156 434.077)" fill="#fff"/><rect width="15.045" height="4.654" transform="translate(540.398 419.796)" fill="#fff"/><rect width="15.045" height="4.654" transform="translate(540.398 434.077)" fill="#fff"/><rect width="19.417" height="4.654" transform="translate(581.156 448.361)" fill="#fff"/><rect width="19.417" height="4.654" transform="translate(581.156 462.642)" fill="#fff"/><rect width="19.417" height="4.654" transform="translate(581.156 476.923)" fill="#fff"/></g></g></g></svg>