<svg xmlns="http://www.w3.org/2000/svg" xmlns:xlink="http://www.w3.org/1999/xlink" width="345" height="276" viewBox="0 0 345 276"><defs><clipPath id="a"><path d="M0,0H345a0,0,0,0,1,0,0V272a4,4,0,0,1-4,4H4a4,4,0,0,1-4-4V0A0,0,0,0,1,0,0Z" transform="translate(98 29.748)" fill="#fff"/></clipPath></defs><g transform="translate(-98 -29.748)" opacity="0.2" clip-path="url(#a)" style="mix-blend-mode:screen;isolation:isolate"><g transform="translate(-919.957 52.84)"><g transform="translate(0 221.611)"><path d="M1642.847,1002.565H178.751v-1.349H1641.5V992.2H149.34v-8.6H1662.481v-7.98H134.446v-1.348H1663.828v10.676H150.687v5.908h1492.16Z" transform="translate(-134.446 -974.268)" fill="#fff"/></g><g transform="translate(11.033)"><path d="M2146.473,936.443h-1.951v-13.4h179.424v1.952H2146.473Z" transform="translate(-1429.261 -719.94)" fill="#fff"/><path d="M2165.969,909.492h-1.951V900.3h110.451v1.952h-108.5Z" transform="translate(-1441.713 -705.415)" fill="#fff"/><rect width="54.004" height="1.952" transform="translate(840.681 194.884)" fill="#fff"/><path d="M2189.525,886.749h-1.952v-9.194h100.473v1.952h-98.521Z" transform="translate(-1456.757 -690.889)" fill="#fff"/><rect width="54.004" height="1.952" transform="translate(840.681 186.666)" fill="#fff"/><path d="M2209.019,864h-1.951V854.81h90.786v1.952h-88.836Z" transform="translate(-1469.208 -676.362)" fill="#fff"/><rect width="58.993" height="1.952" transform="translate(840.681 178.447)" fill="#fff"/><path d="M2226.077,842.817h-1.951V834.5h81.982v1.952h-80.031Z" transform="translate(-1480.102 -663.393)" fill="#fff"/><rect width="72.054" height="1.952" transform="translate(751.701 164.067)" fill="#fff"/><rect width="72.054" height="1.952" transform="translate(755.077 157.022)" fill="#fff"/><rect width="70.929" height="1.952" transform="translate(759.577 149.978)" fill="#fff"/><rect width="70.93" height="1.952" transform="translate(762.952 142.934)" fill="#fff"/><rect width="70.929" height="1.952" transform="translate(767.453 135.891)" fill="#fff"/><rect width="69.804" height="1.952" transform="translate(771.953 128.846)" fill="#fff"/><rect width="76.262" height="1.952" transform="translate(776.453 121.802)" fill="#fff"/><path d="M2235.9,720.719l-1.77-.819c1.243-2.683,30.642-65.724,47.968-65.724h68.569v1.952h-68.569C2266,656.128,2236.195,720.073,2235.9,720.719Z" transform="translate(-1486.488 -548.223)" fill="#fff"/><path d="M2435.707,720.693l-1.793-.766c1.147-2.685,28.291-65.75,44.348-65.75,16.226,0,27.76,63.268,28.243,65.961l-1.92.345c-3.212-17.9-14.2-64.354-26.323-64.354C2466,656.128,2443.385,702.735,2435.707,720.693Z" transform="translate(-1614.088 -548.223)" fill="#fff"/><path d="M2532.6,879.9h-1.952V836.456H2469.7V834.5h62.9Z" transform="translate(-1636.944 -663.393)" fill="#fff"/><rect width="10.051" height="1.952" transform="translate(867.683 121.802)" fill="#fff"/><rect width="31.303" height="1.952" transform="translate(849.193 128.846)" fill="#fff"/><rect width="36.632" height="1.952" transform="translate(846.257 136.003)" fill="#fff"/><rect width="41.61" height="1.952" transform="translate(843.322 142.934)" fill="#fff"/><rect width="48.423" height="1.952" transform="translate(838.382 149.978)" fill="#fff"/><rect width="51.925" height="1.952" transform="translate(836.278 157.022)" fill="#fff"/><rect width="55.937" height="1.952" transform="translate(833.881 164.067)" fill="#fff"/><rect width="9.686" height="2.684" transform="translate(727.096 209.018)" fill="#fff"/><rect width="9.686" height="2.684" transform="translate(742.016 209.018)" fill="#fff"/><rect width="9.686" height="2.684" transform="translate(756.935 209.018)" fill="#fff"/><rect width="9.686" height="2.684" transform="translate(771.855 209.018)" fill="#fff"/><rect width="9.686" height="2.684" transform="translate(786.775 209.018)" fill="#fff"/><rect width="9.686" height="2.684" transform="translate(801.694 209.018)" fill="#fff"/><rect width="4.108" height="2.684" transform="translate(840.681 209.018)" fill="#fff"/><rect width="4.108" height="2.684" transform="translate(847.512 209.018)" fill="#fff"/><rect width="4.108" height="2.684" transform="translate(854.344 209.018)" fill="#fff"/><rect width="4.108" height="2.684" transform="translate(861.175 209.018)" fill="#fff"/><rect width="4.108" height="2.684" transform="translate(868.007 209.018)" fill="#fff"/><rect width="4.108" height="2.684" transform="translate(874.838 209.018)" fill="#fff"/><rect width="4.108" height="2.684" transform="translate(885.711 209.018)" fill="#fff"/><path d="M3010.543,685.044c-.541-2.6-13.224-63.769-12.64-82.165.534-16.861,6.728-53.063,7.786-59.143a50.572,50.572,0,0,0-21.841,0c1.057,6.079,7.251,42.281,7.786,59.143.584,18.4-12.1,79.57-12.64,82.165l-1.91-.4c.132-.633,13.177-63.542,12.6-81.706-.578-18.208-7.837-59.321-7.91-59.734l-.147-.829.8-.267a50.947,50.947,0,0,1,24.683,0l.8.267-.147.829c-.073.413-7.332,41.527-7.91,59.734-.576,18.165,12.469,81.073,12.6,81.706Z" transform="translate(-1960.996 -475.68)" fill="#fff"/><path d="M3005.367,687.748l-1.075-.127c.075-.637,7.523-63.971,7.193-82.315s-4.474-59.744-4.516-60.16l1.078-.108c.042.416,4.19,41.847,4.522,60.249S3005.444,687.109,3005.367,687.748Z" transform="translate(-1978.374 -478.519)" fill="#fff"/><path d="M3032.038,687.748c-.077-.638-7.533-64.045-7.2-82.461s4.48-59.833,4.522-60.249l1.077.108c-.042.416-4.186,41.8-4.516,60.16s7.119,81.678,7.194,82.315Z" transform="translate(-1991.488 -478.519)" fill="#fff"/><path d="M3015.368,945.176h-1.952v-3.825h-33.459v-2.685H2926.73v2.685h-19.958v3.825h-1.952V939.4h19.958v-2.684h57.13V939.4h33.459Z" transform="translate(-1914.844 -728.673)" fill="#fff"/><path d="M2755.049,917.678H2707.7v-1.952h45.4V911h21.126l2.631-2.632h14.329l2.622,2.622h13.2v1.952H2793l-2.623-2.622h-12.711l-2.632,2.632h-19.983Z" transform="translate(-1788.947 -710.57)" fill="#fff"/><rect width="57.526" height="1.952" transform="translate(901.142 194.884)" fill="#fff"/><rect width="1.952" height="20.223" transform="translate(979.998 181.185)" fill="#fff"/><rect width="1.952" height="17.591" transform="translate(987.335 181.185)" fill="#fff"/><path d="M3153.915,899.1h-31.5v-8.219h-41.876v-1.952h43.827v8.219h29.548Z" transform="translate(-2027.07 -698.151)" fill="#fff"/><path d="M3366.442,929.182h-1.952v-5.237h-21.133V913.624h-41.875v-1.952h43.827v10.321h21.133Z" transform="translate(-2168.181 -712.678)" fill="#fff"/><rect width="1.952" height="10.566" transform="translate(1060.71 181.185)" fill="#fff"/><rect width="1.952" height="10.566" transform="translate(1065.994 181.185)" fill="#fff"/><rect width="111.685" height="1.952" transform="translate(910.241 180.209)" fill="#fff"/><rect width="92.99" height="1.952" transform="translate(1045.251 180.209)" fill="#fff"/><rect width="117.597" height="1.952" transform="translate(905.545 173.458)" fill="#fff"/><rect width="83.551" height="1.952" transform="translate(1043.293 173.458)" fill="#fff"/><rect width="37.568" height="1.952" transform="translate(1058.752 198.993)" fill="#fff"/><path d="M2653.194,794.869H2648.4v-1.952h2.84v-4.33h16.875v-8.169h22.2v7.788h-1.952v-5.836h-18.3v8.169h-16.876Z" transform="translate(-1751.076 -628.851)" fill="#fff"/><path d="M2745.762,815.326h-1.952v-14.1h-13.772v-1.952h15.724Z" transform="translate(-1803.215 -640.891)" fill="#fff"/><path d="M2824.438,818.114h-1.952V805.589h-15.218v12.525h-1.952V803.637h19.122Z" transform="translate(-1851.293 -643.679)" fill="#fff"/><path d="M2867.078,825.377h-1.952v-8.415h-9.59V815.01h11.542Z" transform="translate(-1883.368 -650.943)" fill="#fff"/><path d="M2899.462,802.55h-1.952V779.268h20.59v15.015h-1.952V781.22h-16.685Z" transform="translate(-1910.174 -628.115)" fill="#fff"/><path d="M2917.535,820.275h-1.952V807.021h8.24v1.952h-6.288Z" transform="translate(-1921.718 -645.84)" fill="#fff"/><path d="M2937.639,828.652h-1.952v-8.515h13.524v1.952h-11.572Z" transform="translate(-1934.557 -654.217)" fill="#fff"/><path d="M2972.365,818.494h-1.952v-8.36h11.37v1.952h-9.418Z" transform="translate(-1956.736 -647.829)" fill="#fff"/><path d="M2922.043,753.882h-1.952v-3.558l-2.344-2.345-2.345,2.345v3.558h-1.952v-4.367l2.5-2.5,1.8-9.027,1.8,9.027,2.5,2.5Z" transform="translate(-1920.356 -601.753)" fill="#fff"/><path d="M2778.112,820.777h-6.04v-1.952h4.087V815.01h8.9v1.952h-6.948Z" transform="translate(-1830.061 -650.943)" fill="#fff"/><rect width="14.892" height="1.952" transform="translate(966.082 194.884)" fill="#fff"/><rect width="37.312" height="1.952" transform="translate(943.663 188.354)" fill="#fff"/><rect width="27.002" height="1.952" transform="translate(988.311 188.354)" fill="#fff"/><rect width="12.201" height="1.952" transform="translate(1006.949 194.884)" fill="#fff"/><rect width="2.495" height="1.541" transform="translate(903.05 200.446)" fill="#fff"/><rect width="2.495" height="1.122" transform="translate(906.278 164.272)" fill="#fff"/><rect width="2.495" height="1.122" transform="translate(906.278 167.049)" fill="#fff"/><rect width="2.495" height="1.122" transform="translate(906.278 169.827)" fill="#fff"/><rect width="2.495" height="1.122" transform="translate(910.846 167.049)" fill="#fff"/><rect width="2.495" height="1.122" transform="translate(910.846 169.827)" fill="#fff"/><rect width="2.495" height="1.122" transform="translate(915.413 164.272)" fill="#fff"/><rect width="2.495" height="1.122" transform="translate(915.413 167.049)" fill="#fff"/><rect width="2.495" height="1.122" transform="translate(915.413 169.827)" fill="#fff"/><rect width="1.205" height="1.122" transform="translate(958.668 164.272)" fill="#fff"/><rect width="1.205" height="1.122" transform="translate(991.546 155.464)" fill="#fff"/><rect width="1.205" height="1.122" transform="translate(994.842 155.464)" fill="#fff"/><rect width="1.205" height="1.122" transform="translate(998.138 155.464)" fill="#fff"/><rect width="1.205" height="1.122" transform="translate(991.546 158.232)" fill="#fff"/><rect width="1.205" height="1.122" transform="translate(994.842 158.232)" fill="#fff"/><rect width="1.205" height="1.122" transform="translate(998.138 158.232)" fill="#fff"/><rect width="1.205" height="1.122" transform="translate(958.668 167.049)" fill="#fff"/><rect width="1.205" height="1.122" transform="translate(958.668 169.827)" fill="#fff"/><rect width="1.205" height="1.122" transform="translate(961.592 164.272)" fill="#fff"/><rect width="1.205" height="1.122" transform="translate(961.592 167.049)" fill="#fff"/><rect width="1.205" height="1.122" transform="translate(961.592 169.827)" fill="#fff"/><rect width="3.559" height="1.122" transform="translate(965.602 164.272)" fill="#fff"/><rect width="3.559" height="1.122" transform="translate(965.602 167.049)" fill="#fff"/><rect width="3.559" height="1.122" transform="translate(965.602 169.827)" fill="#fff"/><rect width="0.972" height="1.147" transform="translate(936.594 167.734)" fill="#fff"/><rect width="0.972" height="1.147" transform="translate(936.594 170.573)" fill="#fff"/><rect width="0.972" height="1.147" transform="translate(933.678 164.894)" fill="#fff"/><rect width="0.972" height="1.147" transform="translate(933.678 167.734)" fill="#fff"/><rect width="0.972" height="1.147" transform="translate(930.761 164.894)" fill="#fff"/><rect width="0.972" height="1.147" transform="translate(936.594 162.055)" fill="#fff"/><rect width="0.972" height="1.147" transform="translate(933.678 162.055)" fill="#fff"/><rect width="0.972" height="1.147" transform="translate(930.761 167.734)" fill="#fff"/><rect width="0.972" height="1.147" transform="translate(930.761 170.573)" fill="#fff"/><rect width="2.495" height="1.122" transform="translate(919.981 164.272)" fill="#fff"/><rect width="2.495" height="1.122" transform="translate(919.981 167.049)" fill="#fff"/><rect width="2.495" height="1.122" transform="translate(924.549 164.272)" fill="#fff"/><rect width="2.495" height="1.122" transform="translate(921.228 156.025)" fill="#fff"/><rect width="2.495" height="1.122" transform="translate(932.916 156.025)" fill="#fff"/><rect width="2.495" height="1.122" transform="translate(924.549 169.827)" fill="#fff"/><rect width="2.495" height="1.541" transform="translate(911.414 200.446)" fill="#fff"/><rect width="2.495" height="1.541" transform="translate(919.779 200.446)" fill="#fff"/><rect width="2.495" height="1.541" transform="translate(928.144 200.446)" fill="#fff"/><rect width="2.495" height="1.541" transform="translate(936.509 200.446)" fill="#fff"/><rect width="2.495" height="1.541" transform="translate(944.873 200.446)" fill="#fff"/><rect width="2.495" height="1.541" transform="translate(953.238 200.446)" fill="#fff"/><rect width="1.952" height="6.213" transform="translate(902.514 210.29)" fill="#fff"/><rect width="1.952" height="6.213" transform="translate(910.439 210.29)" fill="#fff"/><rect width="1.952" height="6.213" transform="translate(918.363 210.29)" fill="#fff"/><rect width="1.952" height="6.213" transform="translate(926.288 210.29)" fill="#fff"/><rect width="1.952" height="6.213" transform="translate(934.212 210.29)" fill="#fff"/><rect width="1.952" height="6.213" transform="translate(942.136 210.29)" fill="#fff"/><rect width="1.952" height="6.213" transform="translate(950.061 210.29)" fill="#fff"/><rect width="1.952" height="6.213" transform="translate(957.985 210.29)" fill="#fff"/><rect width="5.283" height="1.101" transform="translate(903.49 184.792)" fill="#fff"/><rect width="5.283" height="1.101" transform="translate(903.49 190.516)" fill="#fff"/><rect width="2.642" height="1.101" transform="translate(912.093 184.792)" fill="#fff"/><rect width="2.642" height="1.101" transform="translate(912.093 187.654)" fill="#fff"/><rect width="2.642" height="1.101" transform="translate(917.853 187.654)" fill="#fff"/><rect width="2.642" height="1.101" transform="translate(917.853 190.516)" fill="#fff"/><rect width="2.641" height="1.101" transform="translate(923.613 184.792)" fill="#fff"/><rect width="2.641" height="1.101" transform="translate(923.613 190.516)" fill="#fff"/><rect width="2.642" height="1.101" transform="translate(929.373 184.792)" fill="#fff"/><rect width="2.642" height="1.101" transform="translate(929.373 187.654)" fill="#fff"/><rect width="2.642" height="1.101" transform="translate(935.133 187.654)" fill="#fff"/><rect width="2.642" height="1.101" transform="translate(935.133 190.516)" fill="#fff"/><rect width="1.952" height="13.501" transform="translate(1103.269 181.185)" fill="#fff"/><rect width="22.599" height="1.952" transform="translate(1104.244 187.228)" fill="#fff"/><rect width="1.952" height="10.566" transform="translate(1132.325 181.185)" fill="#fff"/><rect width="64.277" height="1.952" transform="translate(1111.876 209.314)" fill="#fff"/><rect width="1.952" height="4.158" transform="translate(1132.325 206.132)" fill="#fff"/><rect width="1.952" height="4.158" transform="translate(1140.25 206.132)" fill="#fff"/><rect width="1.952" height="4.158" transform="translate(1148.174 206.132)" fill="#fff"/><rect width="1.952" height="4.158" transform="translate(1156.099 206.132)" fill="#fff"/><rect width="6.504" height="4.158" transform="translate(1163.997 206.132)" fill="#fff"/><rect width="21.864" height="1.084" transform="translate(1022.37 73.763)" fill="#fff"/><rect width="19.613" height="1.084" transform="translate(1024.621 80.119)" fill="#fff"/><rect width="18.489" height="1.084" transform="translate(1024.621 86.475)" fill="#fff"/><rect width="16.24" height="1.084" transform="translate(1025.745 92.831)" fill="#fff"/><rect width="13.989" height="1.084" transform="translate(1026.87 99.188)" fill="#fff"/><rect width="11.739" height="1.084" transform="translate(1027.995 105.544)" fill="#fff"/><rect width="9.488" height="1.084" transform="translate(1029.12 111.9)" fill="#fff"/><rect width="8.364" height="1.084" transform="translate(1029.12 118.256)" fill="#fff"/><rect width="8.364" height="1.084" transform="translate(1029.12 124.612)" fill="#fff"/><rect width="8.364" height="1.084" transform="translate(1029.12 130.968)" fill="#fff"/><rect width="8.364" height="1.084" transform="translate(1029.12 137.324)" fill="#fff"/><rect width="9.488" height="1.084" transform="translate(1029.12 143.681)" fill="#fff"/><rect width="14.218" height="1.084" transform="translate(1026.87 150.036)" fill="#fff"/><rect width="14.218" height="1.084" transform="translate(1026.87 156.393)" fill="#fff"/><rect width="14.218" height="1.084" transform="translate(1026.87 162.749)" fill="#fff"/><rect width="18.718" height="1.084" transform="translate(1024.621 169.106)" fill="#fff"/><rect width="20.968" height="1.084" transform="translate(1023.495 175.461)" fill="#fff"/><rect width="23.219" height="1.084" transform="translate(1022.37 181.818)" fill="#fff"/><rect width="25.468" height="1.084" transform="translate(1021.245 188.174)" fill="#fff"/><rect width="27.719" height="1.084" transform="translate(1020.12 194.53)" fill="#fff"/><rect width="31.093" height="1.084" transform="translate(1017.87 200.886)" fill="#fff"/><path d="M3024.513,513.779l-1.025,10.664h2.051Z" transform="translate(-1990.633 -458.555)" fill="#fff"/><path d="M3450.165,661.615l-1.026,10.664h2.051Z" transform="translate(-2262.485 -552.974)" fill="#fff"/><path d="M3073.684,822.264h-1.952V812.087h-9.889v-1.952h11.841Z" transform="translate(-2015.13 -647.829)" fill="#fff"/><rect width="15.849" height="1.952" transform="translate(1061.687 159.957)" fill="#fff"/><path d="M3166.5,813.339h-1.953V798.112H3146.4v15.227h-1.952V796.16H3166.5Z" transform="translate(-2067.885 -638.904)" fill="#fff"/><path d="M3217.269,808.446h-1.952V788.5H3236.2v7.668h-1.952v-5.716h-16.979Z" transform="translate(-2113.15 -634.011)" fill="#fff"/><path d="M3309.146,814.33h-1.952v-5.345l-4.687-9.321h-23.893l-4.688,9.321v5.345h-1.952v-5.808l5.438-10.809h26.3l5.437,10.809Z" transform="translate(-2149.335 -639.896)" fill="#fff"/><rect width="1.952" height="7.818" transform="translate(1049.526 155.464)" fill="#fff"/><path d="M3320.083,789.85h-1.952V786.7h-11.917v3.146h-1.952v-5.1h15.82Z" transform="translate(-2169.957 -631.618)" fill="#fff"/><rect width="14.309" height="1.084" transform="translate(1083.332 162.086)" fill="#fff"/><rect width="14.309" height="1.084" transform="translate(1083.332 165.499)" fill="#fff"/><rect width="14.309" height="1.084" transform="translate(1083.332 168.912)" fill="#fff"/><rect width="1.186" height="1.537" transform="translate(1106.556 158.793)" fill="#fff"/><rect width="1.186" height="1.537" transform="translate(1106.556 162.406)" fill="#fff"/><rect width="1.186" height="1.537" transform="translate(1106.556 166.019)" fill="#fff"/><rect width="1.186" height="1.537" transform="translate(1106.556 169.632)" fill="#fff"/><rect width="1.186" height="1.537" transform="translate(1110.035 158.793)" fill="#fff"/><rect width="1.186" height="1.537" transform="translate(1110.035 162.406)" fill="#fff"/><rect width="1.186" height="1.537" transform="translate(1110.035 166.019)" fill="#fff"/><rect width="1.186" height="1.537" transform="translate(1110.035 169.632)" fill="#fff"/><rect width="1.186" height="1.537" transform="translate(1113.514 158.793)" fill="#fff"/><rect width="1.186" height="1.537" transform="translate(1113.514 162.406)" fill="#fff"/><rect width="1.186" height="1.537" transform="translate(1113.514 166.019)" fill="#fff"/><rect width="1.186" height="1.537" transform="translate(1113.514 169.632)" fill="#fff"/><rect width="9.135" height="2.607" transform="translate(1067.813 164.949)" fill="#fff"/><path d="M3226.716,758.4l-1.939-.218,2.079-18.51h2.846l2.078,18.51-1.939.218-1.561-13.912Z" transform="translate(-2119.191 -602.825)" fill="#fff"/><path d="M3446.479,716.937l-1.919-27.961h-1.529l-1.919,27.961-1.945-.133,2.042-29.78h5.174l2.042,29.78Z" transform="translate(-2256.116 -569.202)" fill="#fff"/><rect width="14.529" height="1.084" transform="translate(1135.942 164.408)" fill="#fff"/><rect width="14.529" height="1.084" transform="translate(1135.942 168.206)" fill="#fff"/><rect width="14.529" height="1.084" transform="translate(1135.942 172.004)" fill="#fff"/><rect width="1.872" height="1.084" transform="translate(1131.43 164.408)" fill="#fff"/><rect width="1.872" height="1.084" transform="translate(1131.43 168.206)" fill="#fff"/><rect width="1.872" height="1.084" transform="translate(1131.43 172.004)" fill="#fff"/><path d="M3620.975,826.409q-.6,0-1.2-.028l.091-1.95c18.083.885,38.529-19.779,38.733-19.987l1.393,1.368C3659.146,806.67,3639.556,826.409,3620.975,826.409Z" transform="translate(-2371.464 -644.195)" fill="#fff"/><path d="M3719.1,858.415h-1.951V845.7c-4.362-17.086-3.009-28.127-2.948-28.59l1.935.25c-.013.11-1.363,11.217,2.935,27.975l.03.243Z" transform="translate(-2431.619 -652.283)" fill="#fff"/><path d="M3470.766,795.044h-1.951V782.4a62.411,62.411,0,0,1-13.72-19.845c-33.568,5.587-82.725-41.255-84.817-43.268l1.353-1.406c.509.489,51.309,48.878,83.888,42.615l.807-.155.29.769a60.857,60.857,0,0,0,13.845,20.16l.307.289Z" transform="translate(-2212.119 -588.912)" fill="#fff"/><path d="M3461.61,787.207h-37.687l-.292-.39-44.448-59.041,1.558-1.173,44.156,58.651h36.713Z" transform="translate(-2217.806 -594.48)" fill="#fff"/><rect width="21.792" height="1.952" transform="translate(1257.672 192.096)" fill="#fff"/><path d="M3389.284,803.52l-1.92-.341c5.911-33.309,3.285-51.366,3.257-51.545l1.929-.3C3392.577,751.52,3395.26,769.851,3389.284,803.52Z" transform="translate(-2223.031 -610.278)" fill="#fff"/><path d="M3317.18,870.458h-1.952v-5.6l.186-.256c5.9-8.148,5.76-15.031,5.758-15.1l-.035-1.154,1.145.157a42.473,42.473,0,0,0,22.047-2.892l.847,1.758a43.673,43.673,0,0,1-22.094,3.2c-.184,2.382-1.139,8.225-5.9,14.917Z" transform="translate(-2176.961 -670.488)" fill="#fff"/><path d="M3363.751,870.69h-14.225l-.2-.1c-14.162-6.98-17.312-14.283-17.438-14.591l1.8-.749c.03.069,3.053,6.908,16.3,13.489h13.769Z" transform="translate(-2187.598 -676.643)" fill="#fff"/><path d="M3419.63,895.793l-1.16-1.569,13.759-10.171h9.567v1.952h-8.923Z" transform="translate(-2242.898 -695.039)" fill="#fff"/><path d="M3500.41,896.49h-30.62v-4.534l-5.731-5.731,1.381-1.38,6.3,6.3v3.391h28.668Z" transform="translate(-2272.014 -695.545)" fill="#fff"/><rect width="23.333" height="1.952" transform="translate(1234.339 198.993)" fill="#fff"/><path d="M3620.523,947.425h-1.952v-2.767h-30.6v-2.47h-89.717v-1.952h91.668v2.47h30.6Z" transform="translate(-2293.856 -730.922)" fill="#fff"/><rect width="1.952" height="6.213" transform="translate(1213.992 210.29)" fill="#fff"/><rect width="1.952" height="6.213" transform="translate(1229.621 210.29)" fill="#fff"/><rect width="1.952" height="6.213" transform="translate(1245.25 210.29)" fill="#fff"/><rect width="1.952" height="6.213" transform="translate(1260.878 210.29)" fill="#fff"/><rect width="1.952" height="6.213" transform="translate(1276.507 210.29)" fill="#fff"/><path d="M3690.484,859.116c-4.869-9.294-3.33-20.388-3.262-20.856l1.074.155c-.017.111-1.553,11.221,3.149,20.2Z" transform="translate(-2414.361 -665.792)" fill="#fff"/><path d="M3668.187,867.452c-4.877-7.226-3.336-15.855-3.267-16.22l1.065.2c-.016.085-1.522,8.565,3.1,15.415Z" transform="translate(-2400.118 -674.077)" fill="#fff"/><rect width="1.083" height="14.901" transform="translate(1185.607 151.847) rotate(-5.904)" fill="#fff"/><rect width="1.085" height="22" transform="matrix(0.994, -0.113, 0.113, 0.994, 1194.251, 157.576)" fill="#fff"/><rect width="1.083" height="29.28" transform="matrix(0.995, -0.104, 0.104, 0.995, 1203.026, 162.684)" fill="#fff"/><rect width="1.084" height="24.084" transform="translate(1212.924 167.98) rotate(-8.057)" fill="#fff"/><rect width="1.084" height="21.48" transform="matrix(0.994, -0.11, 0.11, 0.994, 1223.126, 170.46)" fill="#fff"/><rect width="1.084" height="20.17" transform="translate(1232.134 172.712) rotate(-17.798)" fill="#fff"/><path d="M3407.682,821.468l-1.072-.165c2.609-17,4.308-41.479,4.325-41.725l1.082.074C3412,779.9,3410.3,804.424,3407.682,821.468Z" transform="translate(-2235.324 -628.314)" fill="#fff"/><path d="M3435.267,837.387l-1.073-.144c2.23-16.6.021-36.674,0-36.876l1.078-.121C3435.291,800.449,3437.515,820.651,3435.267,837.387Z" transform="translate(-2252.939 -641.514)" fill="#fff"/><path d="M3460.574,851.962l-1.082-.063a81.75,81.75,0,0,0-1.094-19.446l1.061-.224A82.982,82.982,0,0,1,3460.574,851.962Z" transform="translate(-2268.399 -661.94)" fill="#fff"/><rect width="2.081" height="4.168" transform="translate(1206.603 195.8)" fill="#fff"/><rect width="2.081" height="4.168" transform="translate(1211.597 195.8)" fill="#fff"/><rect width="2.081" height="4.168" transform="translate(1216.591 195.8)" fill="#fff"/><rect width="2.081" height="4.168" transform="translate(1221.584 195.8)" fill="#fff"/><rect width="2.081" height="4.168" transform="translate(1237.694 195.8)" fill="#fff"/><rect width="2.081" height="4.168" transform="translate(1263.296 196.786)" fill="#fff"/><rect width="2.081" height="4.168" transform="translate(1269.458 196.786)" fill="#fff"/><rect width="2.081" height="4.168" transform="translate(1275.62 196.786)" fill="#fff"/><rect width="2.081" height="2.084" transform="translate(1263.296 204.048)" fill="#fff"/><rect width="2.081" height="2.084" transform="translate(1269.458 204.048)" fill="#fff"/><rect width="2.081" height="2.084" transform="translate(1275.62 204.048)" fill="#fff"/><rect width="2.081" height="4.168" transform="translate(1242.688 195.8)" fill="#fff"/><rect width="2.081" height="4.168" transform="translate(1247.682 195.8)" fill="#fff"/><rect width="2.081" height="2.084" transform="translate(1206.603 204.048)" fill="#fff"/><rect width="2.081" height="2.084" transform="translate(1211.597 204.048)" fill="#fff"/><rect width="2.081" height="2.084" transform="translate(1216.591 204.048)" fill="#fff"/><rect width="2.081" height="2.084" transform="translate(1221.584 204.048)" fill="#fff"/><rect width="2.081" height="2.084" transform="translate(1237.694 204.048)" fill="#fff"/><rect width="2.081" height="2.084" transform="translate(1242.688 204.048)" fill="#fff"/><rect width="2.081" height="2.084" transform="translate(1247.682 204.048)" fill="#fff"/><rect width="38.992" height="1.952" transform="translate(1283.324 175.027)" fill="#fff"/><rect width="37.399" height="1.952" transform="translate(1284.917 184.187)" fill="#fff"/><path d="M3840.544,936.391h-1.951V924.912h-24.559V922.96h26.511Z" transform="translate(-2495.534 -719.888)" fill="#fff"/><path d="M3836.842,594.042h-1.952V406.43h66.229V571.179h-1.952v-162.8h-62.325Z" transform="translate(-2508.854 -389.994)" fill="#fff"/><path d="M3903.679,378.353h-1.951v-15.46h-42.954v15.46h-1.952V360.942h46.857Z" transform="translate(-2522.862 -360.942)" fill="#fff"/><rect width="1.952" height="16.436" transform="translate(1360.375 0.975)" fill="#fff"/><rect width="27.882" height="1.951" transform="translate(1327.012 41.97)" fill="#fff"/><rect width="22.013" height="1.951" transform="translate(1369.275 41.97)" fill="#fff"/><rect width="27.882" height="1.951" transform="translate(1327.012 49.308)" fill="#fff"/><rect width="22.013" height="1.951" transform="translate(1369.275 49.308)" fill="#fff"/><rect width="27.882" height="1.951" transform="translate(1327.012 56.645)" fill="#fff"/><rect width="22.013" height="1.951" transform="translate(1369.275 56.645)" fill="#fff"/><rect width="27.882" height="1.951" transform="translate(1327.012 63.983)" fill="#fff"/><rect width="22.013" height="1.951" transform="translate(1369.275 63.983)" fill="#fff"/><rect width="27.882" height="1.952" transform="translate(1327.012 71.32)" fill="#fff"/><rect width="22.013" height="1.952" transform="translate(1369.275 71.32)" fill="#fff"/><rect width="27.882" height="1.952" transform="translate(1327.012 78.658)" fill="#fff"/><rect width="22.013" height="1.952" transform="translate(1369.275 78.658)" fill="#fff"/><rect width="27.882" height="1.952" transform="translate(1327.012 85.995)" fill="#fff"/><rect width="22.013" height="1.952" transform="translate(1369.275 85.995)" fill="#fff"/><rect width="27.882" height="1.952" transform="translate(1327.012 93.333)" fill="#fff"/><rect width="22.013" height="1.952" transform="translate(1369.275 93.333)" fill="#fff"/><rect width="27.882" height="1.952" transform="translate(1327.012 100.67)" fill="#fff"/><rect width="22.013" height="1.952" transform="translate(1369.275 100.67)" fill="#fff"/><rect width="27.882" height="1.952" transform="translate(1327.012 108.008)" fill="#fff"/><rect width="22.013" height="1.952" transform="translate(1369.275 108.008)" fill="#fff"/><rect width="27.882" height="1.952" transform="translate(1327.012 115.345)" fill="#fff"/><rect width="22.013" height="1.952" transform="translate(1369.275 115.345)" fill="#fff"/><rect width="27.882" height="1.952" transform="translate(1327.012 122.683)" fill="#fff"/><rect width="22.013" height="1.952" transform="translate(1369.275 122.683)" fill="#fff"/><rect width="27.882" height="1.952" transform="translate(1327.012 130.02)" fill="#fff"/><rect width="22.013" height="1.952" transform="translate(1369.275 130.02)" fill="#fff"/><rect width="27.882" height="1.952" transform="translate(1327.012 137.358)" fill="#fff"/><rect width="22.013" height="1.952" transform="translate(1369.275 137.358)" fill="#fff"/><rect width="27.882" height="1.952" transform="translate(1327.012 144.695)" fill="#fff"/><rect width="22.013" height="1.952" transform="translate(1369.275 144.695)" fill="#fff"/><rect width="27.882" height="1.952" transform="translate(1327.012 152.033)" fill="#fff"/><rect width="22.013" height="1.952" transform="translate(1369.275 152.033)" fill="#fff"/><rect width="27.882" height="1.952" transform="translate(1327.012 159.37)" fill="#fff"/><rect width="22.013" height="1.952" transform="translate(1369.275 159.37)" fill="#fff"/><rect width="27.882" height="1.952" transform="translate(1327.012 166.708)" fill="#fff"/><rect width="22.013" height="1.952" transform="translate(1369.275 166.708)" fill="#fff"/><rect width="27.882" height="1.952" transform="translate(1327.012 174.045)" fill="#fff"/><rect width="22.013" height="1.952" transform="translate(1369.275 174.045)" fill="#fff"/><rect width="2.642" height="1.951" transform="translate(1361.351 41.97)" fill="#fff"/><rect width="2.642" height="1.951" transform="translate(1361.351 49.308)" fill="#fff"/><rect width="2.642" height="1.951" transform="translate(1361.351 56.645)" fill="#fff"/><rect width="2.642" height="1.951" transform="translate(1361.351 63.983)" fill="#fff"/><rect width="2.642" height="1.952" transform="translate(1361.351 71.32)" fill="#fff"/><rect width="2.642" height="1.952" transform="translate(1361.351 78.658)" fill="#fff"/><rect width="2.642" height="1.952" transform="translate(1361.351 85.995)" fill="#fff"/><rect width="2.642" height="1.952" transform="translate(1361.351 93.333)" fill="#fff"/><rect width="2.642" height="1.952" transform="translate(1361.351 100.67)" fill="#fff"/><rect width="2.642" height="1.952" transform="translate(1361.351 108.008)" fill="#fff"/><rect width="2.642" height="1.952" transform="translate(1361.351 115.345)" fill="#fff"/><rect width="2.642" height="1.952" transform="translate(1361.351 122.683)" fill="#fff"/><rect width="2.642" height="1.952" transform="translate(1361.351 130.02)" fill="#fff"/><rect width="2.642" height="1.952" transform="translate(1361.351 137.358)" fill="#fff"/><rect width="2.642" height="1.952" transform="translate(1361.351 144.695)" fill="#fff"/><rect width="2.642" height="1.952" transform="translate(1361.351 152.033)" fill="#fff"/><rect width="2.642" height="1.952" transform="translate(1361.351 159.37)" fill="#fff"/><rect width="2.642" height="1.952" transform="translate(1361.351 166.708)" fill="#fff"/><rect width="2.642" height="1.952" transform="translate(1361.351 174.045)" fill="#fff"/><rect width="27.883" height="10.566" transform="translate(1327.011 25.923)" fill="#fff"/><rect width="21.279" height="10.566" transform="translate(1369.275 25.923)" fill="#fff"/><rect width="2.642" height="10.566" transform="translate(1361.351 25.923)" fill="#fff"/><rect width="2.642" height="14.317" transform="translate(1361.351 184.707)" fill="#fff"/><path d="M4024.627,930.924h-1.952V916.352h-38.4v9.778h-1.952V914.4h42.309Z" transform="translate(-2603.013 -714.421)" fill="#fff"/><rect width="54.885" height="1.952" transform="translate(1357.829 210.44)" fill="#fff"/><path d="M4014.733,888.13h-1.952V871.74h14.183v1.952h-12.231Z" transform="translate(-2622.468 -687.175)" fill="#fff"/><path d="M4138.161,897.681h-1.953V890.39h-12.914V864.3h-72.011v11.855h-1.952V862.351h75.915v26.088h12.915Z" transform="translate(-2645.812 -681.178)" fill="#fff"/><rect width="1.952" height="33.694" transform="translate(1453.708 182.809)" fill="#fff"/><path d="M4079.809,658.915h-1.953V555.406h-41.192v98.449h-1.952v-100.4h45.1Z" transform="translate(-2636.476 -483.895)" fill="#fff"/><path d="M4193.016,735.354h-1.953V695.116h-34.244v-1.952h36.2Z" transform="translate(-2714.462 -573.123)" fill="#fff"/><path d="M4235.449,845.941H4233.5V823.184l-4.261-4.262v-9.744h-23.678v-1.952h25.63v10.887l4.261,4.262Z" transform="translate(-2745.591 -645.971)" fill="#fff"/><path d="M4304.017,911.543h-1.953V893.9h-3.229v-7.895h-13.253v-1.952h15.206v7.895h3.229Z" transform="translate(-2796.699 -695.039)" fill="#fff"/><rect width="1.952" height="35.221" transform="translate(1464.861 121.017)" fill="#fff"/><rect width="1.952" height="8.805" transform="translate(1407.922 61.73)" fill="#fff"/><rect width="33.459" height="1.951" transform="translate(1403.321 60.755)" fill="#fff"/><rect width="1.952" height="108.231" transform="translate(1430.521 61.73)" fill="#fff"/><rect width="69.853" height="1.952" transform="translate(1405.963 174.045)" fill="#fff"/><rect width="1.084" height="99.426" transform="translate(1405.421 70.535)" fill="#fff"/><rect width="1.084" height="99.426" transform="translate(1419.509 70.535)" fill="#fff"/><rect width="26.121" height="1.084" transform="translate(1399.213 76.744)" fill="#fff"/><rect width="26.121" height="1.084" transform="translate(1399.213 86.429)" fill="#fff"/><rect width="26.121" height="1.084" transform="translate(1399.213 96.115)" fill="#fff"/><rect width="26.121" height="1.084" transform="translate(1399.213 105.8)" fill="#fff"/><rect width="26.121" height="1.084" transform="translate(1399.213 115.486)" fill="#fff"/><rect width="26.121" height="1.084" transform="translate(1399.213 125.172)" fill="#fff"/><rect width="26.121" height="1.084" transform="translate(1399.213 134.856)" fill="#fff"/><rect width="26.121" height="1.084" transform="translate(1399.213 144.542)" fill="#fff"/><rect width="26.121" height="1.084" transform="translate(1399.213 154.227)" fill="#fff"/><rect width="26.121" height="1.084" transform="translate(1399.213 163.913)" fill="#fff"/><rect width="21.426" height="1.952" transform="translate(1449.695 127.379)" fill="#fff"/><rect width="21.426" height="1.952" transform="translate(1449.695 134.422)" fill="#fff"/><rect width="21.426" height="1.952" transform="translate(1449.695 141.466)" fill="#fff"/><rect width="21.426" height="1.952" transform="translate(1449.695 148.511)" fill="#fff"/><rect width="10.713" height="17.317" transform="translate(1449.695 157.705)" fill="#fff"/><rect width="3.94" height="7.029" transform="translate(1301.695 189.99)" fill="#fff"/><rect width="3.94" height="7.029" transform="translate(1309.43 189.99)" fill="#fff"/><rect width="3.94" height="7.029" transform="translate(1301.695 200.534)" fill="#fff"/><rect width="3.94" height="7.029" transform="translate(1309.43 200.534)" fill="#fff"/><rect width="3.94" height="7.029" transform="translate(1317.165 189.99)" fill="#fff"/><rect width="3.742" height="2.186" transform="translate(1334.056 185.163)" fill="#fff"/><rect width="3.742" height="2.186" transform="translate(1342.163 185.163)" fill="#fff"/><rect width="3.742" height="2.186" transform="translate(1350.271 185.163)" fill="#fff"/><rect width="18.124" height="2.186" transform="translate(1420.051 187.576)" fill="#fff"/><rect width="11.887" height="2.186" transform="translate(1426.288 199.441)" fill="#fff"/><rect width="11.887" height="2.186" transform="translate(1426.288 207.636)" fill="#fff"/><rect width="3.999" height="2.186" transform="translate(1411.723 187.576)" fill="#fff"/><rect width="3.999" height="2.186" transform="translate(1443.935 187.576)" fill="#fff"/><rect width="3.999" height="2.186" transform="translate(1443.935 199.441)" fill="#fff"/><rect width="3.999" height="2.186" transform="translate(1443.935 207.636)" fill="#fff"/><rect width="3.999" height="2.186" transform="translate(1462.81 187.576)" fill="#fff"/><rect width="3.999" height="2.186" transform="translate(1484.884 180.146)" fill="#fff"/><rect width="3.999" height="2.186" transform="translate(1484.884 186.256)" fill="#fff"/><rect width="3.999" height="2.186" transform="translate(1484.884 192.366)" fill="#fff"/><rect width="3.999" height="2.186" transform="translate(1462.81 195.926)" fill="#fff"/><rect width="3.999" height="2.186" transform="translate(1462.81 204.276)" fill="#fff"/><rect width="2.642" height="2.642" transform="translate(1373.164 187.348)" fill="#fff"/><rect width="2.641" height="2.642" transform="translate(1379.255 187.348)" fill="#fff"/><rect width="3.742" height="2.186" transform="translate(1334.056 191)" fill="#fff"/><rect width="3.742" height="2.186" transform="translate(1342.163 191)" fill="#fff"/><rect width="3.742" height="2.186" transform="translate(1350.271 191)" fill="#fff"/><rect width="3.742" height="2.186" transform="translate(1334.056 196.838)" fill="#fff"/><rect width="3.742" height="2.186" transform="translate(1342.163 196.838)" fill="#fff"/><rect width="3.742" height="2.186" transform="translate(1350.271 196.838)" fill="#fff"/><rect width="11.667" height="5.283" transform="translate(1387.546 206.132)" fill="#fff"/><rect width="8.729" height="1.952" transform="translate(1497.612 202.271)" fill="#fff"/><rect width="8.729" height="1.952" transform="translate(1497.612 206.868)" fill="#fff"/><rect width="8.729" height="1.952" transform="translate(1497.612 211.467)" fill="#fff"/><path d="M3754.315,772.4H3721.09V770.45h31.274v-6.367h6.126v1.952h-4.175Z" transform="translate(-2436.173 -618.417)" fill="#fff"/><rect width="11.665" height="4.918" transform="translate(1290.03 171.086)" fill="#fff"/><path d="M3648.142,782.174H3623.8v-1.952h22.392V767.894h13.738v10.471h-1.951v-8.519h-9.834Z" transform="translate(-2374.036 -620.852)" fill="#fff"/><path d="M3563.912,809.823h-1.952V794.174h23.32v14.548h-1.952v-12.6h-19.416Z" transform="translate(-2334.541 -637.636)" fill="#fff"/><path d="M3491.135,797.616h-6.517v-4.4h-6.466v-2.768H3461.6V788.5h18.5v2.768h6.465v4.4h4.566Z" transform="translate(-2270.444 -634.011)" fill="#fff"/><path d="M3509.359,775.371h-1.952v-5.138h12.579l3.817-3.817h18.7v2.342h24.541v1.952h-26.493v-2.341h-15.935l-3.817,3.817h-11.436Z" transform="translate(-2299.7 -619.907)" fill="#fff"/><path d="M3455,775.371h-1.952v-7h-21.821v-1.952H3455Z" transform="translate(-2251.048 -619.907)" fill="#fff"/><path d="M3482.28,759.257h-1.952V753.68h11.736v4.735h-1.952v-2.783h-7.832Z" transform="translate(-2282.404 -611.773)" fill="#fff"/><rect width="5.065" height="1.084" transform="translate(1294.653 158.288)" fill="#fff"/><rect width="5.065" height="1.084" transform="translate(1294.653 163.657)" fill="#fff"/><rect width="4.011" height="1.084" transform="translate(1229.055 151.25)" fill="#fff"/><rect width="4.011" height="1.084" transform="translate(1236.006 153.641)" fill="#fff"/><rect width="4.012" height="1.084" transform="translate(1243.999 153.641)" fill="#fff"/><rect width="4.012" height="1.084" transform="translate(1251.992 153.641)" fill="#fff"/><rect width="4.011" height="1.084" transform="translate(1259.987 153.641)" fill="#fff"/><rect width="5.065" height="1.084" transform="translate(1304.361 158.288)" fill="#fff"/><rect width="5.065" height="1.084" transform="translate(1304.361 163.657)" fill="#fff"/><rect width="5.065" height="1.084" transform="translate(1304.361 169.026)" fill="#fff"/><rect width="5.065" height="1.084" transform="translate(1314.071 158.288)" fill="#fff"/><rect width="5.065" height="1.084" transform="translate(1314.071 163.657)" fill="#fff"/><rect width="5.065" height="1.084" transform="translate(1314.071 169.026)" fill="#fff"/><rect width="22.217" height="1.084" transform="translate(1249.762 163.657)" fill="#fff"/><rect width="16.164" height="1.084" transform="translate(1249.762 167.901)" fill="#fff"/><rect width="12.118" height="1.695" transform="translate(1232.651 160.933)" fill="#fff"/><rect width="12.118" height="1.695" transform="translate(1232.651 164.85)" fill="#fff"/><rect width="1.952" height="6.163" transform="translate(1070.397 199.969)" fill="#fff"/><rect width="1.952" height="6.163" transform="translate(1076.559 199.969)" fill="#fff"/><rect width="1.952" height="6.163" transform="translate(1082.724 199.969)" fill="#fff"/><rect width="1.952" height="6.163" transform="translate(1088.886 199.969)" fill="#fff"/><rect width="1.952" height="6.163" transform="translate(1095.051 199.969)" fill="#fff"/><rect width="1.952" height="6.163" transform="translate(1101.214 199.969)" fill="#fff"/><rect width="1.952" height="6.163" transform="translate(1107.378 199.969)" fill="#fff"/><rect width="1.952" height="6.163" transform="translate(1113.541 199.969)" fill="#fff"/><rect width="1.952" height="6.163" transform="translate(1119.705 199.969)" fill="#fff"/><path d="M2165.969,711.762h-1.951V637.116h18.974v6.164h4.7v4.7h26.954v9.488h-1.952v-7.536h-26.953v-4.7h-4.7v-6.164h-15.072Z" transform="translate(-1441.713 -537.327)" fill="#fff"/><rect width="17.952" height="1.952" transform="translate(744.999 116.813)" fill="#fff"/><rect width="17.952" height="1.952" transform="translate(744.999 123.123)" fill="#fff"/><rect width="17.952" height="1.952" transform="translate(744.999 129.433)" fill="#fff"/><rect width="17.952" height="1.952" transform="translate(744.999 135.744)" fill="#fff"/><rect width="11.936" height="1.952" transform="translate(744.999 142.054)" fill="#fff"/><rect width="8.977" height="1.952" transform="translate(744.999 148.364)" fill="#fff"/><rect width="6.702" height="1.952" transform="translate(744.999 154.674)" fill="#fff"/><rect width="3.327" height="1.952" transform="translate(744.999 160.984)" fill="#fff"/><rect width="4.488" height="1.952" transform="translate(737.515 116.813)" fill="#fff"/><rect width="4.488" height="1.952" transform="translate(737.515 123.123)" fill="#fff"/><rect width="4.488" height="1.952" transform="translate(737.515 129.433)" fill="#fff"/><rect width="4.488" height="1.952" transform="translate(737.515 135.744)" fill="#fff"/><rect width="4.488" height="1.952" transform="translate(737.515 142.054)" fill="#fff"/><rect width="4.488" height="1.952" transform="translate(737.515 148.364)" fill="#fff"/><rect width="4.488" height="1.952" transform="translate(737.515 154.674)" fill="#fff"/><rect width="4.488" height="1.952" transform="translate(737.515 160.984)" fill="#fff"/><rect width="4.488" height="1.952" transform="translate(730.814 116.813)" fill="#fff"/><rect width="4.488" height="1.952" transform="translate(730.814 110.502)" fill="#fff"/><rect width="4.488" height="1.952" transform="translate(730.814 123.123)" fill="#fff"/><rect width="4.488" height="1.952" transform="translate(730.814 129.433)" fill="#fff"/><rect width="4.488" height="1.952" transform="translate(730.814 135.744)" fill="#fff"/><rect width="4.488" height="1.952" transform="translate(730.814 142.054)" fill="#fff"/><rect width="4.488" height="1.952" transform="translate(730.814 148.364)" fill="#fff"/><rect width="4.488" height="1.952" transform="translate(730.814 154.674)" fill="#fff"/><rect width="4.488" height="1.952" transform="translate(730.814 160.984)" fill="#fff"/><rect width="4.488" height="1.952" transform="translate(723.281 116.813)" fill="#fff"/><rect width="4.488" height="1.952" transform="translate(723.281 123.123)" fill="#fff"/><rect width="4.488" height="1.952" transform="translate(723.281 129.433)" fill="#fff"/><rect width="4.488" height="1.952" transform="translate(723.281 135.744)" fill="#fff"/><rect width="4.488" height="1.952" transform="translate(723.281 142.054)" fill="#fff"/><rect width="4.488" height="1.952" transform="translate(723.281 148.364)" fill="#fff"/><rect width="4.488" height="1.952" transform="translate(723.281 154.674)" fill="#fff"/><rect width="4.488" height="1.952" transform="translate(723.281 160.984)" fill="#fff"/><rect width="4.488" height="1.952" transform="translate(737.515 166.12)" fill="#fff"/><rect width="4.488" height="1.952" transform="translate(730.814 166.12)" fill="#fff"/><rect width="4.488" height="1.952" transform="translate(723.281 166.12)" fill="#fff"/><path d="M1605.23,871.716H1576.3v-7.337h-4.4v-8.487l-39.463-12.939h-34.424l-10.891,4.657V849.6l-11.57,4.723h-22.424v-1.952h22.041l10-4.082v-1.97L1497.609,841l35.284.049,40.955,13.428v7.949h4.4v7.337h26.981Z" transform="translate(-987.683 -667.544)" fill="#fff"/><path d="M1547.775,855.1h-5.707v-1.952h5.3l13.647-5.944h4.378l-11.123-4.2.689-1.825L1568.8,846.4v2.751h-7.376Z" transform="translate(-1044.49 -667.656)" fill="#fff"/><path d="M1662.679,867.151H1606.51l-12.771-7.245.962-1.7,12.323,6.991h55.655Z" transform="translate(-1077.491 -678.533)" fill="#fff"/><path d="M1637.165,878.47h-52.229l-13.912-8.7,1.034-1.654,13.438,8.4h51.67Z" transform="translate(-1062.982 -684.863)" fill="#fff"/><rect width="61.195" height="1.952" transform="translate(516.729 196.939)" fill="#fff"/><path d="M1866.117,917.484h-6.039v-1.952h4.088V903.548h32.673V905.5h-30.723Z" transform="translate(-1247.595 -707.49)" fill="#fff"/><rect width="68.752" height="1.952" transform="translate(647.484 208.042)" fill="#fff"/><path d="M1961.069,895.991h-1.951V884.62h15.849V880.8h59.162v1.952h-57.211v3.815h-15.849Z" transform="translate(-1310.849 -692.964)" fill="#fff"/><path d="M2046.36,913.012h-1.951v-12.08h12.458c16.4-6.342,31.475-.19,32.111.076l-.752,1.8c-.149-.063-15.11-6.148-30.819.008l-.172.068H2046.36Z" transform="translate(-1365.322 -703.994)" fill="#fff"/><path d="M1833.135,899.015h-1.951V888.453l29.708-3.175,9.569-.006v1.952H1861l-27.861,2.982Z" transform="translate(-1229.14 -695.818)" fill="#fff"/><path d="M1859.33,862.51h-1.951V844.658h22.643v15.651h-1.951v-13.7H1859.33Z" transform="translate(-1245.871 -669.879)" fill="#fff"/><rect width="31.015" height="1.95" transform="translate(581.516 185.495) rotate(-5.42)" fill="#fff"/><path d="M1917.325,859.4l-.053-1.95,97.638-2.642h8.048v1.952h-8.022Z" transform="translate(-1284.123 -676.362)" fill="#fff"/><rect width="5.694" height="1.952" transform="translate(591.352 189.455)" fill="#fff"/><rect width="1.951" height="5.964" transform="translate(646.509 181.678)" fill="#fff"/><rect width="1.951" height="10.953" transform="translate(652.892 181.678)" fill="#fff"/><path d="M2112.764,850h-1.951V831.05h11.856v14.012h-1.95V833h-7.955Z" transform="translate(-1407.732 -661.187)" fill="#fff"/><path d="M2051.226,847.972h-1.951v-3.7h-8.585v-1.321H2030.66V841h11.981v1.321h8.585Z" transform="translate(-1356.54 -667.544)" fill="#fff"/><path d="M2057.021,815.389h-1.951v-7.213h14.858v-8.805h20.347v1.952h-18.4v8.805h-14.858Z" transform="translate(-1372.13 -640.955)" fill="#fff"/><path d="M2025.26,810.332h-1.951V793.4h-8.491v-1.952h10.441Z" transform="translate(-1346.423 -635.897)" fill="#fff"/><path d="M1992.839,807.153h-1.951V777.971h-12.012v-1.952h13.963Z" transform="translate(-1323.468 -626.04)" fill="#fff"/><path d="M1950.679,753.391h-1.951v-6.949H1938.6v-5.429h-10.376v5.429h-10.881V744.49h8.93v-5.429h14.278v5.429h10.126Z" transform="translate(-1284.17 -602.436)" fill="#fff"/><path d="M2014.923,755.24h-1.951v-8.364l-4.43-9.243-2.309,4.548-1.739-.883,4.1-8.073,6.331,13.209Z" transform="translate(-1339.829 -598.709)" fill="#fff"/><path d="M1869.687,778.192h-1.951V739.061h13.618v2.861h5.283v31.353h-1.951v-29.4H1879.4v-2.861h-9.716Z" transform="translate(-1252.485 -602.436)" fill="#fff"/><path d="M1878.776,719.989l-4.542,7.867h9.084Z" transform="translate(-1256.635 -590.256)" fill="#fff"/><path d="M1475.987,816.491l-.828,3.8h1.655Z" transform="translate(-1001.757 -651.889)" fill="#fff"/><path d="M1952.171,713.962l-5.441,9.424h10.881Z" transform="translate(-1302.937 -586.407)" fill="#fff"/><path d="M1937.644,727l-3.1,5.367h6.2Z" transform="translate(-1295.155 -594.735)" fill="#fff"/><rect width="6.897" height="1.952" transform="translate(636.184 136.624)" fill="#fff"/><path d="M1959.365,793.408h-1.084V764.764a2.7,2.7,0,0,0-5.41,0v28.645h-1.084V764.764a3.789,3.789,0,0,1,7.578,0Z" transform="translate(-1306.167 -616.432)" fill="#fff"/><path d="M1933.085,810.1H1932V790.015a1.824,1.824,0,0,0-3.649,0V810.1h-1.084V790.015a2.908,2.908,0,0,1,5.817,0Z" transform="translate(-1290.507 -633.122)" fill="#fff"/><path d="M1995.005,810.1h-1.084V790.015a1.824,1.824,0,0,0-3.648,0V810.1h-1.084V790.015a2.908,2.908,0,0,1,5.816,0Z" transform="translate(-1330.054 -633.122)" fill="#fff"/><rect width="6.384" height="1.413" transform="translate(702.625 162.694)" fill="#fff"/><rect width="7.154" height="1.856" transform="translate(692.94 202.048)" fill="#fff"/><rect width="1.15" height="1.15" transform="translate(663.553 202.048)" fill="#fff"/><rect width="1.15" height="1.15" transform="translate(666.17 202.048)" fill="#fff"/><rect width="1.15" height="1.15" transform="translate(671.404 202.048)" fill="#fff"/><rect width="1.15" height="1.15" transform="translate(674.021 202.048)" fill="#fff"/><rect width="7.154" height="1.856" transform="translate(704.056 202.048)" fill="#fff"/><rect width="6.384" height="1.413" transform="translate(702.625 166.179)" fill="#fff"/><rect width="6.384" height="1.413" transform="translate(711.761 162.694)" fill="#fff"/><rect width="6.384" height="1.413" transform="translate(711.761 166.179)" fill="#fff"/><rect width="2.366" height="6.897" transform="translate(637.303 197.914)" fill="#fff"/><rect width="1.084" height="11.006" transform="translate(626.03 197.034)" fill="#fff"/><path d="M1924.86,945.176h-1.951v-3.27h-4.082v-3.239h-5.949v-1.952h7.9v3.239h4.082Z" transform="translate(-1281.316 -728.673)" fill="#fff"/><rect width="5.777" height="1.544" transform="translate(652.657 213.247)" fill="#fff"/><rect width="5.777" height="1.544" transform="translate(665.301 213.247)" fill="#fff"/><rect width="5.777" height="1.544" transform="translate(677.944 213.247)" fill="#fff"/><rect width="5.777" height="1.544" transform="translate(690.588 213.247)" fill="#fff"/><rect width="5.777" height="1.544" transform="translate(703.232 213.247)" fill="#fff"/><path d="M1707.326,817.01h-1.951V793.4h-10.126v7.975H1693.3v-9.927h14.028Z" transform="translate(-1141.076 -635.897)" fill="#fff"/><rect width="13.67" height="1.952" transform="translate(545.566 164.506)" fill="#fff"/><path d="M1745.029,842.431h-1.951v-9.224h-13.656v-1.952h15.606Z" transform="translate(-1164.148 -661.318)" fill="#fff"/><path d="M1771.794,837.658h-1.951V818.925h-14.485v4.185h-1.951v-6.137h18.387Z" transform="translate(-1179.467 -652.197)" fill="#fff"/><path d="M1814.237,840.708h-1.951V835.69h-2.275v-4.109H1801.6v-1.952h10.367v4.109h2.275Z" transform="translate(-1210.243 -660.28)" fill="#fff"/><path d="M1845.556,821.466h-5.378v-1.952h3.427v-5.723h7.506v1.952h-5.555Z" transform="translate(-1234.884 -650.165)" fill="#fff"/><path d="M1794.648,815.041H1792.7v-7.829h-8.908v3.256h-1.951V805.26h12.81Z" transform="translate(-1197.624 -644.716)" fill="#fff"/><rect width="4.14" height="1.084" transform="translate(562.504 156.837) rotate(-75.639)" fill="#fff"/><rect width="4.14" height="1.084" transform="translate(559.403 156.837) rotate(-75.639)" fill="#fff"/><rect width="4.14" height="1.084" transform="translate(556.303 156.837) rotate(-75.639)" fill="#fff"/><path d="M1697.062,787.459l-1.05-.269,1.132-4.418h10.166l.9,4.446-1.062.214-.72-3.576h-8.437Z" transform="translate(-1142.81 -630.353)" fill="#fff"/><rect width="1.214" height="1.394" transform="translate(554.701 168.931)" fill="#fff"/><rect width="1.214" height="1.394" transform="translate(557.248 168.931)" fill="#fff"/><rect width="1.214" height="1.394" transform="translate(559.795 168.931)" fill="#fff"/><rect width="1.214" height="1.394" transform="translate(559.795 160.126)" fill="#fff"/><rect width="1.214" height="1.394" transform="translate(557.248 172.343)" fill="#fff"/><rect width="1.214" height="1.394" transform="translate(559.795 172.343)" fill="#fff"/><path d="M1471.31,843.606,1469.387,833v-4.134a1.446,1.446,0,0,0-2.892,0l-.016,4.31-1.907,10.431-1.919-.352,1.892-10.344v-4.045a3.4,3.4,0,0,1,6.794,0v4.045l1.892,10.344Z" transform="translate(-993.769 -657.623)" fill="#fff"/><rect width="11.477" height="1.952" transform="translate(468.491 174.401)" fill="#fff"/><path d="M1504.826,818.861h-1.951v-8.649h-8.364v-4.929h-8.49v-1.952h10.441v4.929h8.364Z" transform="translate(-1008.694 -643.484)" fill="#fff"/><rect width="42.264" height="1.952" transform="translate(499.89 164.776)" fill="#fff"/><path d="M1517.648,790.172H1515.7v-9.811h-18.821v-4.928h-28.521v-1.952h30.472v4.928h18.821Z" transform="translate(-997.411 -624.42)" fill="#fff"/><rect width="1.951" height="11.3" transform="translate(549.984 165.482)" fill="#fff"/><rect width="103.752" height="1.952" transform="translate(492.296 211.76)" fill="#fff"/><rect width="1.951" height="7.485" transform="translate(595.072 209.018)" fill="#fff"/><rect width="5.43" height="1.952" transform="translate(600.597 210.733)" fill="#fff"/><rect width="6.897" height="1.952" transform="translate(620.849 212.271)" fill="#fff"/><rect width="5.973" height="1.952" transform="translate(597.046 195.838)" fill="#fff"/><rect width="2.642" height="5.283" transform="translate(522.526 197.914)" fill="#fff"/><rect width="2.642" height="5.283" transform="translate(531.331 197.914)" fill="#fff"/><rect width="2.642" height="5.283" transform="translate(540.136 197.914)" fill="#fff"/><rect width="2.642" height="5.283" transform="translate(548.941 197.914)" fill="#fff"/><rect width="2.642" height="5.283" transform="translate(557.746 197.914)" fill="#fff"/><rect width="2.642" height="5.283" transform="translate(566.551 197.914)" fill="#fff"/><rect width="2.642" height="5.283" transform="translate(522.526 207.453)" fill="#fff"/><rect width="2.642" height="5.283" transform="translate(531.331 207.453)" fill="#fff"/><rect width="2.642" height="5.283" transform="translate(540.136 207.453)" fill="#fff"/><rect width="2.642" height="5.283" transform="translate(489.067 197.914)" fill="#fff"/><rect width="2.642" height="5.283" transform="translate(497.872 197.914)" fill="#fff"/><rect width="2.642" height="5.283" transform="translate(506.677 197.914)" fill="#fff"/><rect width="2.642" height="5.283" transform="translate(497.872 207.453)" fill="#fff"/><rect width="2.642" height="5.283" transform="translate(506.677 207.453)" fill="#fff"/><rect width="2.642" height="5.283" transform="translate(548.941 207.453)" fill="#fff"/><rect width="2.642" height="5.283" transform="translate(557.746 207.453)" fill="#fff"/><rect width="2.642" height="5.283" transform="translate(566.551 207.453)" fill="#fff"/><path d="M1218.03,848.838h-1.951V829.225h29.981v18.439h-1.951V831.177H1218.03Z" transform="translate(-836.289 -660.022)" fill="#fff"/><path d="M1187.495,813.236h-1.951v-37.8h-9v-1.952h10.955Z" transform="translate(-811.037 -624.42)" fill="#fff"/><path d="M1301.989,794.657h-1.951v-2.435l-2.205-6.128h-93.674v-1.952H1299.2l2.784,7.739Z" transform="translate(-828.676 -631.229)" fill="#fff"/><path d="M1454,805.275h-1.951l.042-6.6,3.816-12.612,1.867.565L1454,799.1Z" transform="translate(-986.997 -632.454)" fill="#fff"/><rect width="49.308" height="1.952" transform="translate(416.719 165.525)" fill="#fff"/><path d="M1223.02,811.265h-1.951v-9.737h-3.039v5.236h-1.951v-7.188h6.941Z" transform="translate(-836.289 -641.086)" fill="#fff"/><path d="M1232.723,821.748h6.457l3.453,3.453h-9.91Z" transform="translate(-846.919 -655.247)" fill="#fff"/><path d="M1258.508,819.818l-2.8,4.848h5.6Z" transform="translate(-861.6 -654.014)" fill="#fff"/><path d="M1268.661,819.818l-2.8,4.848h5.6Z" transform="translate(-868.085 -654.014)" fill="#fff"/><path d="M1278.815,819.818l-2.8,4.848h5.6Z" transform="translate(-874.569 -654.014)" fill="#fff"/><rect width="1.951" height="12.914" transform="translate(386.834 170.179)" fill="#fff"/><rect width="1.897" height="2.873" transform="translate(392.212 175.376)" fill="#fff"/><rect width="1.897" height="2.873" transform="translate(396.829 175.376)" fill="#fff"/><rect width="1.897" height="2.873" transform="translate(401.446 175.376)" fill="#fff"/><rect width="1.084" height="15.857" transform="translate(418.966 166.501)" fill="#fff"/><rect width="1.084" height="15.857" transform="translate(424.102 166.501)" fill="#fff"/><rect width="1.084" height="15.857" transform="translate(429.238 166.501)" fill="#fff"/><rect width="1.084" height="15.857" transform="translate(434.374 166.501)" fill="#fff"/><rect width="1.084" height="15.857" transform="translate(439.51 166.501)" fill="#fff"/><rect width="1.084" height="15.857" transform="translate(444.646 166.501)" fill="#fff"/><rect width="1.084" height="15.857" transform="translate(449.783 166.501)" fill="#fff"/><rect width="1.084" height="15.857" transform="translate(454.919 166.501)" fill="#fff"/><rect width="1.084" height="15.857" transform="translate(460.056 166.501)" fill="#fff"/><path d="M1273.218,884.882H1249.1l-6.432-5.207,1.228-1.516,5.9,4.771h23.429Z" transform="translate(-853.27 -691.275)" fill="#fff"/><path d="M1192.685,884.042h-30.765V882.09h28.814v-7.777H1228.6l3.522-1.835h30.616v1.952H1232.6l-3.522,1.835h-36.391Z" transform="translate(-801.699 -687.647)" fill="#fff"/><path d="M1082.006,808.564c-11.594,0-21.026-12.584-21.026-28.051s9.432-28.052,21.026-28.052,21.026,12.584,21.026,28.052S1093.6,808.564,1082.006,808.564Zm0-54.151c-10.518,0-19.075,11.708-19.075,26.1s8.557,26.1,19.075,26.1,19.074-11.708,19.074-26.1S1092.524,754.413,1082.006,754.413Z" transform="translate(-737.232 -610.995)" fill="#fff"/><rect width="1.084" height="27.076" transform="translate(344.232 142.442)" fill="#fff"/><rect width="1.084" height="25.502" transform="translate(334.251 146.283) rotate(-23.149)" fill="#fff"/><rect width="1.085" height="22.018" transform="translate(327.077 156.408) rotate(-52.057)" fill="#fff"/><rect width="20.05" height="1.084" transform="translate(324.724 168.976)" fill="#fff"/><rect width="22.017" height="1.085" transform="matrix(0.789, -0.615, 0.615, 0.789, 327.077, 182.628)" fill="#fff"/><rect width="47.002" height="1.951" transform="translate(325.407 212.356) rotate(-66.871)" fill="#fff"/><rect width="1.951" height="27.075" transform="translate(343.799 169.518)" fill="#fff"/><rect width="1.951" height="47.002" transform="matrix(0.919, -0.393, 0.393, 0.919, 343.877, 169.902)" fill="#fff"/><rect width="1.085" height="22.017" transform="matrix(0.615, -0.789, 0.789, 0.615, 344.441, 169.946)" fill="#fff"/><rect width="20.05" height="1.084" transform="translate(344.774 168.976)" fill="#fff"/><rect width="22.018" height="1.085" transform="matrix(0.789, -0.615, 0.615, 0.789, 344.441, 169.091)" fill="#fff"/><rect width="25.501" height="1.084" transform="matrix(0.393, -0.92, 0.92, 0.393, 344.283, 169.309)" fill="#fff"/><path d="M1107,951.747h-1.951v-2.791h-59.024v2.791h-1.951V947H1107Z" transform="translate(-726.436 -735.244)" fill="#fff"/><rect width="1.951" height="12.18" transform="translate(343.799 200.556)" fill="#fff"/><rect width="1.951" height="17.169" transform="translate(347.652 188.816)" fill="#fff"/><path d="M1127.228,936.048h-1.951v-5.775h-6.106v-1.952h8.057Z" transform="translate(-774.397 -723.312)" fill="#fff"/><path d="M1167.578,919.544h-6.6v-1.952h4.647v-4.3h13.743v1.952h-11.792Z" transform="translate(-801.099 -713.715)" fill="#fff"/><path d="M1263.51,914.783h-1.951v-8.27H1243.94l-7.522,2.853v2.944h-19.67v-1.952h17.719V908.02l9.115-3.458h19.928Z" transform="translate(-836.717 -708.137)" fill="#fff"/><path d="M1337.3,940.983h-1.951v-6.628L1333.1,932.1H1299.6v-1.952h34.3l3.4,3.4Z" transform="translate(-889.633 -724.48)" fill="#fff"/><path d="M1342.936,898.511l-1.379-1.381,4.652-4.651h40.063v1.952h-39.256Z" transform="translate(-916.428 -700.421)" fill="#fff"/><path d="M1409.8,917.429h-1.951V902.014l-2.822-2.821h-46.85l-4.541-4.542,1.379-1.38,3.971,3.971h46.849l3.965,3.964Z" transform="translate(-924.145 -700.926)" fill="#fff"/><rect width="32.597" height="1.952" transform="translate(452.086 205.103)" fill="#fff"/><rect width="32.597" height="1.952" transform="translate(452.086 209.852)" fill="#fff"/><rect width="32.597" height="1.952" transform="translate(409.969 211.76)" fill="#fff"/><path d="M1.533,0h.383A1.533,1.533,0,0,1,3.449,1.533V6.8a0,0,0,0,1,0,0H0a0,0,0,0,1,0,0V1.533A1.533,1.533,0,0,1,1.533,0Z" transform="translate(387.809 207.82)" fill="#fff"/><path d="M1.533,0h.383A1.533,1.533,0,0,1,3.449,1.533V6.8a0,0,0,0,1,0,0H0a0,0,0,0,1,0,0V1.533A1.533,1.533,0,0,1,1.533,0Z" transform="translate(395.105 207.82)" fill="#fff"/><rect width="1.221" height="1.074" transform="translate(407.044 201.63)" fill="#fff"/><rect width="1.221" height="1.074" transform="translate(411.582 201.63)" fill="#fff"/><rect width="1.221" height="1.074" transform="translate(416.12 201.63)" fill="#fff"/><rect width="1.221" height="1.074" transform="translate(420.658 201.63)" fill="#fff"/><rect width="1.221" height="1.074" transform="translate(432.269 201.63)" fill="#fff"/><rect width="1.221" height="1.074" transform="translate(436.806 201.63)" fill="#fff"/><rect width="1.221" height="1.074" transform="translate(441.344 201.63)" fill="#fff"/><rect width="21.719" height="3.852" transform="translate(443.721 150.037)" fill="#fff"/><path d="M1321.955,768.247H1320v-7.721a16.886,16.886,0,0,0-10.458.005v7.716H1307.6v-9.04l.589-.254a18.447,18.447,0,0,1,13.155-.01l.615.245Z" transform="translate(-894.739 -614.357)" fill="#fff"/><path d="M1354.079,773.692h-1.951v-5a11.137,11.137,0,0,0-7.047.211l-.77-1.792a12.845,12.845,0,0,1,9.153-.01l.615.245Z" transform="translate(-918.187 -619.803)" fill="#fff"/><path d="M1383.856,766.652h-1.951v-5.334h-8.468v3.263h-4.791v-1.952h2.84v-3.263h12.37Z" transform="translate(-933.73 -615.405)" fill="#fff"/><rect width="14.088" height="0.932" transform="translate(479.969 154.965)" fill="#fff"/><rect width="3.669" height="0.932" transform="translate(490.388 157.967)" fill="#fff"/><rect width="3.669" height="0.932" transform="translate(490.388 160.968)" fill="#fff"/><rect width="14.088" height="0.932" transform="translate(499.633 157.967)" fill="#fff"/><rect width="14.088" height="0.932" transform="translate(499.633 160.968)" fill="#fff"/><rect width="3.522" height="1.284" transform="translate(503.155 169.628)" fill="#fff"/><rect width="3.522" height="1.284" transform="translate(512.969 169.628)" fill="#fff"/><rect width="3.522" height="1.284" transform="translate(522.783 169.628)" fill="#fff"/><rect width="3.522" height="1.284" transform="translate(532.597 169.628)" fill="#fff"/><path d="M791.579,729.448h-1.951V605.4h11.153V598.94H851.16v6.553h-1.951v-4.6H802.732v6.457H791.579Z" transform="translate(-563.927 -512.945)" fill="#fff"/><path d="M945.42,669.439h-1.951V608.561H921.016v-6.92h1.951v4.968H945.42Z" transform="translate(-647.84 -514.67)" fill="#fff"/><path d="M1002.46,729.885h-16.6v-1.952h14.653v-3.37H991.8v-1.952h10.661Z" transform="translate(-689.252 -591.93)" fill="#fff"/><path d="M1036.469,756.107h-1.951V739.293h-5.408v-1.952h7.359Z" transform="translate(-716.877 -601.338)" fill="#fff"/><path d="M1073.707,580.278h-1.951V493.607l-6.939-1.764h-36.456v83.112h-1.951V489.892l38.77.03,8.527,2.168Z" transform="translate(-715.153 -443.299)" fill="#fff"/><path d="M1115.173,751.375h-1.951V739.293h-42.107v-1.952h44.058Z" transform="translate(-743.705 -601.338)" fill="#fff"/><rect width="1.951" height="82.767" transform="translate(330.629 47.569)" fill="#fff"/><path d="M1124.4,583.559h-1.951V542.451h-2.127V513.615h-3.853V495.029h1.951v16.634h3.853V540.5h2.128Z" transform="translate(-772.673 -446.58)" fill="#fff"/><rect width="11.251" height="1.084" transform="translate(326.296 62.998)" fill="#fff"/><rect width="11.251" height="1.084" transform="translate(326.296 70.042)" fill="#fff"/><rect width="11.251" height="1.084" transform="translate(326.296 77.086)" fill="#fff"/><rect width="11.251" height="1.084" transform="translate(326.296 84.13)" fill="#fff"/><rect width="11.251" height="1.084" transform="translate(326.296 91.174)" fill="#fff"/><rect width="11.251" height="1.084" transform="translate(326.296 98.218)" fill="#fff"/><rect width="11.251" height="1.084" transform="translate(326.296 105.262)" fill="#fff"/><rect width="11.251" height="1.084" transform="translate(326.296 112.306)" fill="#fff"/><rect width="11.251" height="1.084" transform="translate(326.296 119.35)" fill="#fff"/><rect width="11.251" height="1.084" transform="translate(326.296 126.394)" fill="#fff"/><rect width="6.457" height="1.908" transform="translate(302.694 142.443)" fill="#fff"/><rect width="6.457" height="1.908" transform="translate(302.694 147.139)" fill="#fff"/><path d="M803.294,602.392v-9.686h46.96v3.228H810.485v6.457Z" transform="translate(-572.655 -508.964)" fill="#fff"/><rect width="1.952" height="8.894" transform="matrix(0.792, -0.611, 0.611, 0.792, 236.34, 78.224)" fill="#fff"/><rect width="8.894" height="1.952" transform="matrix(0.611, -0.792, 0.792, 0.611, 265.55, 84.075)" fill="#fff"/><rect width="40.283" height="1.952" transform="translate(234.292 76.652)" fill="#fff"/><rect width="1.951" height="61.855" transform="translate(282.421 92.915)" fill="#fff"/><rect width="6.164" height="2.421" transform="translate(231.887 99.738)" fill="#fff"/><rect width="6.164" height="2.421" transform="translate(231.887 113.826)" fill="#fff"/><rect width="6.164" height="2.421" transform="translate(231.887 120.87)" fill="#fff"/><rect width="6.164" height="2.421" transform="translate(231.887 127.914)" fill="#fff"/><rect width="6.164" height="2.421" transform="translate(231.887 134.958)" fill="#fff"/><rect width="6.164" height="2.421" transform="translate(243.774 99.738)" fill="#fff"/><rect width="6.164" height="2.421" transform="translate(243.774 106.782)" fill="#fff"/><rect width="6.164" height="2.421" transform="translate(243.774 113.826)" fill="#fff"/><rect width="6.164" height="2.421" transform="translate(243.774 120.87)" fill="#fff"/><rect width="6.164" height="2.421" transform="translate(243.774 134.958)" fill="#fff"/><rect width="6.164" height="2.421" transform="translate(243.774 142.002)" fill="#fff"/><rect width="6.164" height="5.356" transform="translate(243.774 90.493)" fill="#fff"/><rect width="6.164" height="5.356" transform="translate(255.661 90.493)" fill="#fff"/><rect width="6.164" height="2.421" transform="translate(255.661 106.782)" fill="#fff"/><rect width="6.164" height="2.421" transform="translate(255.661 113.826)" fill="#fff"/><rect width="6.164" height="2.421" transform="translate(255.661 120.87)" fill="#fff"/><rect width="6.164" height="2.421" transform="translate(255.661 127.914)" fill="#fff"/><rect width="6.164" height="2.421" transform="translate(255.661 134.958)" fill="#fff"/><rect width="6.164" height="2.421" transform="translate(255.661 142.002)" fill="#fff"/><rect width="6.164" height="2.421" transform="translate(267.547 99.738)" fill="#fff"/><rect width="6.164" height="2.421" transform="translate(267.547 113.826)" fill="#fff"/><rect width="6.164" height="2.421" transform="translate(267.547 120.87)" fill="#fff"/><rect width="6.164" height="2.421" transform="translate(267.547 134.958)" fill="#fff"/><rect width="6.164" height="2.421" transform="translate(267.547 142.002)" fill="#fff"/><rect width="3.082" height="2.421" transform="translate(287.31 99.738)" fill="#fff"/><rect width="3.082" height="2.421" transform="translate(287.31 113.826)" fill="#fff"/><rect width="3.082" height="2.421" transform="translate(287.31 120.87)" fill="#fff"/><rect width="3.082" height="2.421" transform="translate(287.31 134.958)" fill="#fff"/><rect width="3.082" height="2.421" transform="translate(287.31 142.002)" fill="#fff"/><rect width="95.369" height="1.952" transform="translate(232.042 153.879)" fill="#fff"/><path d="M573.278,836.309h-1.951v-8.544h7.631l3.6-3.595V766.257H651.18v1.952H584.5v56.77l-4.739,4.738h-6.487Z" transform="translate(-424.503 -619.806)" fill="#fff"/><rect width="1.951" height="65.309" transform="translate(174.119 147.427)" fill="#fff"/><path d="M650.539,951.747h-1.951v-2.791H631.293V947h19.246Z" transform="translate(-462.802 -735.244)" fill="#fff"/><rect width="43.365" height="1.952" transform="translate(175.094 152.914)" fill="#fff"/><rect width="43.365" height="1.952" transform="translate(175.094 159.274)" fill="#fff"/><rect width="43.365" height="1.952" transform="translate(175.094 165.633)" fill="#fff"/><rect width="43.365" height="1.952" transform="translate(175.094 171.993)" fill="#fff"/><rect width="43.365" height="1.952" transform="translate(175.094 178.353)" fill="#fff"/><rect width="43.365" height="1.952" transform="translate(175.094 184.713)" fill="#fff"/><rect width="43.365" height="1.952" transform="translate(175.094 191.073)" fill="#fff"/><rect width="43.365" height="1.952" transform="translate(175.094 197.433)" fill="#fff"/><rect width="43.365" height="1.952" transform="translate(175.094 203.793)" fill="#fff"/><rect width="3.082" height="1.952" transform="translate(167.341 152.914)" fill="#fff"/><rect width="3.082" height="1.952" transform="translate(167.341 159.274)" fill="#fff"/><rect width="3.082" height="1.952" transform="translate(167.341 165.633)" fill="#fff"/><rect width="3.082" height="1.952" transform="translate(167.341 171.993)" fill="#fff"/><rect width="3.082" height="1.952" transform="translate(167.341 178.353)" fill="#fff"/><rect width="3.082" height="1.952" transform="translate(167.341 184.713)" fill="#fff"/><rect width="3.082" height="1.952" transform="translate(167.341 191.073)" fill="#fff"/><rect width="3.082" height="1.952" transform="translate(167.341 197.433)" fill="#fff"/><rect width="3.082" height="1.952" transform="translate(167.341 203.793)" fill="#fff"/><path d="M468.167,640.682h-1.951V578.556H391.123v4.8h-1.951V576.6h78.994Z" transform="translate(-308.166 -498.679)" fill="#fff"/><path d="M360.052,675.49H358.1V592.576h28.586v8.579h-1.951v-6.627H360.052Z" transform="translate(-288.322 -508.881)" fill="#fff"/><path d="M517.37,552.154V541.734h2.2v-4.94h2.641v15.36Z" transform="translate(-390.042 -473.254)" fill="#fff"/><rect width="1.084" height="87.709" transform="translate(140.873 78.9)" fill="#fff"/><rect width="1.084" height="87.709" transform="translate(150.779 78.9)" fill="#fff"/><path d="M456.573,604.117h-9.237V593H433.671v8.805H400.119V593.67H401.2v7.052h31.385v-8.805h15.832v11.116h8.153Z" transform="translate(-315.157 -508.459)" fill="#fff"/><rect width="1.084" height="98.066" transform="translate(128.216 83.999)" fill="#fff"/><rect width="1.084" height="73.805" transform="translate(110.276 92.805)" fill="#fff"/><path d="M307.661,860.12H305.71V828.956h6.164v-7.044h56.851l7.044,7.044h7.85v1.952h-8.658l-7.044-7.044H313.824v7.044h-6.164Z" transform="translate(-254.861 -655.351)" fill="#fff"/><rect width="1.951" height="85.079" transform="translate(122.61 83.999)" fill="#fff"/><path d="M413.421,852.631h-16.3l-4.135-4.135H386.03v-4.529H344.962v-1.952h43.019v4.529h5.812l4.135,4.135h15.492Z" transform="translate(-279.93 -668.191)" fill="#fff"/><path d="M543.327,838.642h-1.951v-5.03h-6.949v-1.952h8.9Z" transform="translate(-400.937 -661.577)" fill="#fff"/><path d="M561.908,860.737h-6.282l-6.163-10.5H537.474v-1.952H550.58l6.164,10.5h5.165Z" transform="translate(-402.883 -672.193)" fill="#fff"/><path d="M558.048,894.4H556.1V877.351h11.981V879.3h-10.03Z" transform="translate(-414.776 -690.759)" fill="#fff"/><path d="M527.387,888.623H505.46V874l-5.839-5.839,1.379-1.38,6.41,6.411v13.477h19.976Z" transform="translate(-378.707 -684.009)" fill="#fff"/><path d="M474.007,935.665h-1.951v-5.946H455.9l-5.943-5.944H427.613v-1.952h23.15l5.943,5.944h17.3Z" transform="translate(-332.717 -719.162)" fill="#fff"/><path d="M352.617,933.2H334.823l-4.742-4.742H285.259V926.5H330.89l4.742,4.742h16.985Z" transform="translate(-241.799 -722.15)" fill="#fff"/><rect width="48.867" height="1.952" transform="translate(51.825 189.894)" fill="#fff"/><rect width="1.951" height="23.555" transform="translate(99.717 180.082)" fill="#fff"/><rect width="3.135" height="1.754" transform="translate(58.208 195.603)" fill="#fff"/><rect width="3.135" height="1.754" transform="translate(66.596 195.603)" fill="#fff"/><rect width="3.135" height="1.754" transform="translate(74.984 195.603)" fill="#fff"/><rect width="3.135" height="1.754" transform="translate(83.372 195.603)" fill="#fff"/><rect width="3.135" height="1.754" transform="translate(91.761 195.603)" fill="#fff"/><rect width="3.135" height="3.135" transform="translate(148.68 194.726)" fill="#fff"/><rect width="1.084" height="10.788" transform="translate(57.666 180.082)" fill="#fff"/><rect width="1.084" height="10.788" transform="translate(62.729 180.082)" fill="#fff"/><rect width="1.084" height="10.788" transform="translate(67.792 180.082)" fill="#fff"/><rect width="1.084" height="10.788" transform="translate(72.855 180.082)" fill="#fff"/><rect width="1.084" height="10.788" transform="translate(77.917 180.082)" fill="#fff"/><rect width="1.084" height="10.788" transform="translate(82.981 180.082)" fill="#fff"/><rect width="1.084" height="10.788" transform="translate(88.043 180.082)" fill="#fff"/><rect width="1.084" height="10.788" transform="translate(93.106 180.082)" fill="#fff"/><path d="M471.66,904.971h-1.951v-9.11H459.495v-1.952H471.66Z" transform="translate(-353.079 -701.334)" fill="#fff"/><rect width="2.5" height="2.53" transform="translate(84.378 109.487)" fill="#fff"/><rect width="4.883" height="2.53" transform="translate(89.188 109.487)" fill="#fff"/><rect width="2.5" height="2.53" transform="translate(106.796 112.017) rotate(180)" fill="#fff"/><rect width="4.883" height="2.53" transform="translate(101.986 112.017) rotate(180)" fill="#fff"/><rect width="2.5" height="2.53" transform="translate(84.378 117.362)" fill="#fff"/><rect width="2.5" height="2.53" transform="translate(76.87 109.487)" fill="#fff"/><rect width="2.5" height="2.53" transform="translate(76.87 103.274)" fill="#fff"/><rect width="2.5" height="2.53" transform="translate(76.87 117.362)" fill="#fff"/><rect width="4.883" height="2.53" transform="translate(89.188 117.362)" fill="#fff"/><rect width="2.5" height="2.53" transform="translate(106.796 119.892) rotate(180)" fill="#fff"/><rect width="4.883" height="2.53" transform="translate(101.986 119.892) rotate(180)" fill="#fff"/><rect width="2.5" height="2.53" transform="translate(84.378 125.237)" fill="#fff"/><rect width="4.883" height="2.53" transform="translate(89.188 125.237)" fill="#fff"/><rect width="2.5" height="2.53" transform="translate(106.796 127.767) rotate(180)" fill="#fff"/><rect width="4.883" height="2.53" transform="translate(101.986 127.767) rotate(180)" fill="#fff"/><rect width="2.5" height="2.53" transform="translate(84.378 133.112)" fill="#fff"/><rect width="4.883" height="2.53" transform="translate(89.188 133.112)" fill="#fff"/><rect width="2.5" height="2.53" transform="translate(106.796 135.642) rotate(180)" fill="#fff"/><rect width="4.883" height="2.53" transform="translate(101.986 135.642) rotate(180)" fill="#fff"/><rect width="2.5" height="2.53" transform="translate(84.378 140.987)" fill="#fff"/><rect width="4.883" height="2.53" transform="translate(89.188 140.987)" fill="#fff"/><rect width="2.5" height="2.53" transform="translate(106.796 143.517) rotate(180)" fill="#fff"/><rect width="4.883" height="2.53" transform="translate(101.986 143.517) rotate(180)" fill="#fff"/><rect width="2.5" height="2.53" transform="translate(84.378 148.862)" fill="#fff"/><rect width="4.883" height="2.53" transform="translate(89.188 148.862)" fill="#fff"/><rect width="2.5" height="2.53" transform="translate(106.796 151.392) rotate(180)" fill="#fff"/><rect width="4.883" height="2.53" transform="translate(101.986 151.392) rotate(180)" fill="#fff"/><rect width="2.5" height="2.53" transform="translate(84.378 156.737)" fill="#fff"/><rect width="4.883" height="2.53" transform="translate(89.188 156.737)" fill="#fff"/><rect width="2.5" height="2.53" transform="translate(106.796 159.267) rotate(180)" fill="#fff"/><rect width="2.5" height="2.53" transform="translate(117.605 112.017) rotate(180)" fill="#fff"/><rect width="2.5" height="2.53" transform="translate(117.605 119.892) rotate(180)" fill="#fff"/><rect width="2.5" height="2.53" transform="translate(117.605 127.767) rotate(180)" fill="#fff"/><rect width="2.5" height="2.53" transform="translate(117.605 135.642) rotate(180)" fill="#fff"/><rect width="2.5" height="2.53" transform="translate(117.605 143.517) rotate(180)" fill="#fff"/><rect width="2.5" height="2.53" transform="translate(117.605 151.392) rotate(180)" fill="#fff"/><rect width="2.5" height="2.53" transform="translate(117.605 159.267) rotate(180)" fill="#fff"/><rect width="2.5" height="2.53" transform="translate(136.337 112.017) rotate(180)" fill="#fff"/><rect width="2.5" height="2.53" transform="translate(136.337 119.892) rotate(180)" fill="#fff"/><rect width="2.5" height="2.53" transform="translate(136.337 127.767) rotate(180)" fill="#fff"/><rect width="2.5" height="2.53" transform="translate(136.337 135.642) rotate(180)" fill="#fff"/><rect width="2.5" height="2.53" transform="translate(136.337 143.517) rotate(180)" fill="#fff"/><rect width="2.5" height="2.53" transform="translate(136.337 151.392) rotate(180)" fill="#fff"/><rect width="2.5" height="2.53" transform="translate(136.337 159.267) rotate(180)" fill="#fff"/><rect width="4.883" height="2.53" transform="translate(101.986 159.267) rotate(180)" fill="#fff"/><rect width="1.437" height="4.403" transform="translate(84.378 97.757)" fill="#fff"/><rect width="1.437" height="4.403" transform="translate(88.498 97.757)" fill="#fff"/><rect width="1.437" height="4.403" transform="translate(92.618 97.757)" fill="#fff"/><rect width="1.437" height="4.403" transform="translate(96.738 97.757)" fill="#fff"/><rect width="1.437" height="4.403" transform="translate(100.858 97.757)" fill="#fff"/><rect width="1.437" height="4.403" transform="translate(104.978 97.757)" fill="#fff"/><path d="M253.034,824.75h-1.951V792.3h8.805V773.265l.967-.009c30.012-.259,30.173-.1,30.557.28l.288.287,0,.41h-.976l-.2.945c-1.1-.152-17.4-.073-28.683.022v19.049h-8.805Z" transform="translate(-219.972 -624.195)" fill="#fff"/><path d="M166.932,921.463h-1.951V909.312H182.3v-9.725h22.988v1.952H184.248v9.725H166.932Z" transform="translate(-164.981 -704.96)" fill="#fff"/><rect width="1.951" height="9.857" transform="translate(31.111 206.646)" fill="#fff"/><rect width="22.599" height="1.952" transform="translate(9.487 210.598)" fill="#fff"/><rect width="10.067" height="1.952" transform="translate(40.305 210.598)" fill="#fff"/><rect width="10.067" height="1.952" transform="translate(56.88 210.598)" fill="#fff"/><rect width="10.067" height="1.952" transform="translate(73.456 210.598)" fill="#fff"/><rect width="1.951" height="19.041" transform="translate(46.96 150.037)" fill="#fff"/><rect width="1.951" height="12.711" transform="translate(53.803 150.037)" fill="#fff"/><rect width="1.951" height="12.711" transform="translate(60.646 150.037)" fill="#fff"/><rect width="8.218" height="1.952" transform="translate(32.086 176.089)" fill="#fff"/><rect width="8.218" height="1.952" transform="translate(32.086 184.5)" fill="#fff"/><rect width="3.228" height="9.19" transform="translate(236.638 162.749)" fill="#fff"/><path d="M818.419,821.217h-1.951v-4.645l-5.794-2.095-5.793,2.095v4.645H802.93V815.2l7.744-2.8,7.745,2.8Z" transform="translate(-572.422 -649.278)" fill="#fff"/><rect width="3.228" height="9.19" transform="translate(259.164 162.749)" fill="#fff"/><path d="M880.762,821.217h-1.951v-4.645l-5.793-2.095-5.794,2.095v4.645h-1.951V815.2l7.744-2.8,7.745,2.8Z" transform="translate(-612.239 -649.278)" fill="#fff"/><rect width="3.228" height="9.19" transform="translate(281.69 162.749)" fill="#fff"/><path d="M943.105,821.217h-1.951v-4.645l-5.794-2.095-5.793,2.095v4.645h-1.951V815.2l7.744-2.8,7.745,2.8Z" transform="translate(-652.056 -649.278)" fill="#fff"/><rect width="3.228" height="9.19" transform="translate(304.217 162.749)" fill="#fff"/><path d="M1005.447,821.217H1003.5v-4.645l-5.793-2.095-5.794,2.095v4.645h-1.951V815.2l7.745-2.8,7.744,2.8Z" transform="translate(-691.872 -649.278)" fill="#fff"/><path d="M798.317,873.228h-1.951V836.049H790.3V834.1h8.02Z" transform="translate(-564.354 -663.133)" fill="#fff"/><path d="M850.782,873.228h-1.951V836.049H838.9v37.179h-1.951V834.1h13.838Z" transform="translate(-594.146 -663.133)" fill="#fff"/><path d="M912.733,873.228h-1.951V836.049h-9.138v37.179h-1.951V834.1h13.039Z" transform="translate(-634.222 -663.133)" fill="#fff"/><path d="M974.738,873.228h-1.951V836.049H963.65v37.179H961.7V834.1h13.039Z" transform="translate(-673.824 -663.133)" fill="#fff"/><path d="M1026.33,839.946h-1.951V834.1h14.2v1.952h-12.25Z" transform="translate(-713.856 -663.133)" fill="#fff"/><path d="M1024.877,858.509h-1.951v-8.972h-5.188v-1.952h7.139Z" transform="translate(-709.614 -671.748)" fill="#fff"/><path d="M1036.964,886.217h-6.644V875.1l-6.142-3.419-6.142,3.419v11.115h-6.644v-1.952h4.693v-10.31l8.093-4.505,8.093,4.505v10.31h4.693Z" transform="translate(-705.561 -685.712)" fill="#fff"/><path d="M1023.546,929.576h-12.077l-2.438-2.438H995.086v-1.952h14.752l2.438,2.438h11.27Z" transform="translate(-695.147 -721.31)" fill="#fff"/><path d="M813.579,947.079h-1.951v-5.433H790.3v-1.952h23.282Z" transform="translate(-564.354 -730.576)" fill="#fff"/><rect width="55.527" height="1.952" transform="translate(251.918 209.119)" fill="#fff"/><rect width="8.145" height="1.952" transform="translate(243.774 176.089)" fill="#fff"/><rect width="8.145" height="1.952" transform="translate(243.774 182.079)" fill="#fff"/><rect width="6.311" height="1.952" transform="translate(226.677 176.089)" fill="#fff"/><rect width="6.311" height="1.952" transform="translate(226.677 182.079)" fill="#fff"/><rect width="8.145" height="1.952" transform="translate(243.774 188.071)" fill="#fff"/><rect width="8.145" height="1.952" transform="translate(243.774 194.061)" fill="#fff"/><rect width="8.145" height="1.952" transform="translate(243.774 200.052)" fill="#fff"/></g></g></g></svg>