<svg xmlns="http://www.w3.org/2000/svg" width="150" height="147.213" viewBox="0 0 150 147.213"><g transform="translate(-539 -6244.659)"><rect width="1.2" height="12.151" transform="translate(643.42 6252.97) rotate(-46.611)" fill="#d8d8d8"/><path d="M1323.871,253.936l-4.942,13.838h9.885Z" transform="translate(-758.371 6067.698)" fill="#d8d8d8"/><path d="M1392.964,252.039l-81.053,53.377h81.053Zm-11.4,20.831v21.746h-34.6Z" transform="translate(-755.564 6068.457)" fill="#d8d8d8"/><path d="M1285,356v.778a8.222,8.222,0,0,0,8.222,8.222h95.155a8.222,8.222,0,0,0,8.222-8.222V356Z" transform="translate(-744.8 6026.872)" fill="#d8d8d8"/><path d="M1388.478,363.8h-96.355a9.132,9.132,0,0,1-9.122-9.122V353.9a.9.9,0,0,1,.9-.9h112.8a.9.9,0,0,1,.9.9v.778A9.132,9.132,0,0,1,1388.478,363.8Zm-103.677-9a7.331,7.331,0,0,0,7.321,7.2h96.355a7.33,7.33,0,0,0,7.321-7.2Z" transform="translate(-744 6028.072)" fill="#3d2a0e"/><path d="M1292.8,301.4H1291v-60a5.408,5.408,0,0,1,5.4-5.4h23.4v1.8h-23.4a3.606,3.606,0,0,0-3.6,3.6Z" transform="translate(-747.2 6074.873)" fill="#3d2a0e"/><path d="M1448.6,301.4h-1.8v-60a3.606,3.606,0,0,0-3.6-3.6H1424V236h19.2a5.408,5.408,0,0,1,5.4,5.4Z" transform="translate(-800.4 6074.873)" fill="#3d2a0e"/><path d="M1319.8,303.4H1318V274.9a.9.9,0,0,1,.9-.9h9.6a.9.9,0,0,1,.9.9v20.7h-1.8V275.8h-7.8Z" transform="translate(-758 6059.672)" fill="#3d2a0e"/><path d="M1327.686,266.092l-4.12-11.267-3.782,11.245-1.706-.574,4.6-13.676a.9.9,0,0,1,.841-.613.889.889,0,0,1,.857.59l5,13.676Z" transform="translate(-758.031 6068.79)" fill="#3d2a0e"/><path d="M1362.245,200.893c-1.5-3.87-6.82-7.825-6.82-7.825s-.546,4.2-1.3,5.578c-1.485,2.723-3.371,5.9-3.371,8.99a13.169,13.169,0,0,0,1.624,6.992l7.811-.122C1362.994,208.634,1363.516,204.176,1362.245,200.893Z" transform="translate(-771.103 6092.045)" fill="#d8d8d8"/><path d="M1351.251,214.783c-.1-.182-2.507-4.49-2.41-7.706a13.448,13.448,0,0,1,2.038-6.167,16.966,16.966,0,0,0,1.868-4.548c.651-3.065,1.036-4.295,1.052-4.346a.9.9,0,0,1,1.291-.518,16.576,16.576,0,0,1,6.992,8.954,17.249,17.249,0,0,1-1.924,14.066l-1.543-.926a14.66,14.66,0,0,0-3.419-19.851c-.17.673-.4,1.654-.688,2.995a18.391,18.391,0,0,1-2.041,5.023,11.848,11.848,0,0,0-1.826,5.374c-.083,2.72,2.156,6.727,2.179,6.767Z" transform="translate(-770.335 6092.717)" fill="#3d2a0e"/><path d="M1391.217,305.557h-83.524a.9.9,0,0,1-.491-1.654l83.524-54.365a.9.9,0,0,1,1.391.754v54.365A.9.9,0,0,1,1391.217,305.557Zm-80.492-1.8h79.592V251.951Z" transform="translate(-753.517 6069.516)" fill="#3d2a0e"/><path d="M1404.518,308.644h-36.573a.9.9,0,0,1-.475-1.664l36.573-22.735a.9.9,0,0,1,1.375.764v22.735A.9.9,0,0,1,1404.518,308.644Zm-33.42-1.8h32.52V286.629Z" transform="translate(-777.618 6055.629)" fill="#3d2a0e"/><path d="M1361.5,239.4h-9.6a.9.9,0,0,1-.9-.9v-9.6a.9.9,0,0,1,.9-.9h9.6a.9.9,0,0,1,.9.9v9.6A.9.9,0,0,1,1361.5,239.4Zm-8.7-1.8h7.8v-7.8h-7.8Z" transform="translate(-771.2 6078.072)" fill="#3d2a0e"/><path d="M1351.615,278.136,1351,244.917a.9.9,0,0,1,.9-.917h9.6a.9.9,0,0,1,.9.935l-1.078,27.289-1.8-.071,1.041-26.353h-7.747l.6,32.3Z" transform="translate(-771.2 6071.672)" fill="#3d2a0e"/><rect width="37.529" height="1.8" transform="matrix(0.224, -0.975, 0.975, 0.224, 596.253, 6338.487)" fill="#3d2a0e"/><rect width="1.8" height="25.98" transform="translate(607.921 6302.318) rotate(-12.962)" fill="#3d2a0e"/><path d="M1392.8,216.6a4.8,4.8,0,1,1,4.8-4.8A4.806,4.806,0,0,1,1392.8,216.6Zm0-7.8a3,3,0,1,0,3,3A3,3,0,0,0,1392.8,208.8Z" transform="translate(-786 6086.472)" fill="#3d2a0e"/><rect width="1.8" height="6" transform="translate(606.2 6288.072)" fill="#3d2a0e"/><rect width="16.8" height="1.8" transform="translate(599 6310.873)" fill="#3d2a0e"/><rect width="1.2" height="3" transform="translate(558.8 6247.272)" fill="#eaeaea"/><rect width="1.2" height="2.4" transform="translate(558.8 6254.472)" fill="#eaeaea"/><rect width="2.4" height="1.2" transform="translate(554.6 6251.472)" fill="#eaeaea"/><rect width="2.4" height="1.2" transform="translate(561.8 6251.472)" fill="#eaeaea"/><path d="M1498.465,194.691a.6.6,0,0,1-.424-.176l-8.063-8.055.848-.849,7.639,7.631,4.475-4.48-7.247-7.008.834-.863,7.685,7.432a.6.6,0,0,1,.008.855l-5.33,5.336A.6.6,0,0,1,1498.465,194.691Z" transform="translate(-826.791 6096.916)" fill="#d8d8d8"/><path d="M1454.826,151.052l-6.812-6.805a.6.6,0,0,1,0-.848l5.329-5.335.85.848-4.906,4.911,6.388,6.381Z" transform="translate(-809.935 6114.047)" fill="#d8d8d8"/><path d="M1509.034,203.043a4.123,4.123,0,0,1-2.924-1.208l-2.536-2.533a.6.6,0,0,1,0-.848l5-5.005a.6.6,0,0,1,.424-.176.651.651,0,0,1,.424.176l2.535,2.533a4.135,4.135,0,0,1-2.924,7.062Zm-4.187-4.166,2.111,2.108a2.937,2.937,0,1,0,4.151-4.156L1509,194.721Z" transform="translate(-832.159 6091.963)" fill="#d8d8d8"/><path d="M1445.365,141.265a.607.607,0,0,1-.1-.009.6.6,0,0,1-.44-.337l-4.61-9.894a.6.6,0,0,1,.794-.8l9.939,4.559a.6.6,0,0,1,.175.97l-5.33,5.335A.6.6,0,0,1,1445.365,141.265ZM1441.989,132l3.558,7.637,4.114-4.118Z" transform="translate(-806.862 6117.204)" fill="#d8d8d8"/><rect width="1.2" height="4.147" transform="matrix(0.687, -0.727, 0.727, 0.687, 630.468, 6245.562)" fill="#d8d8d8"/><path d="M1470.48,209.509l-.9-.789a3.851,3.851,0,0,1,1.213-.785c.54-.277,1.279-.657,2.389-1.325a17.552,17.552,0,0,0,3.179-2.412c.632-.6,2.635-2.936,3.283-3.769,0,0,.514-.751,1.18-1.861l1.029.618c-.7,1.159-1.219,1.919-1.241,1.951-.7.905-2.745,3.281-3.421,3.928a18.734,18.734,0,0,1-3.389,2.573c-1.145.689-1.937,1.1-2.461,1.365A3.814,3.814,0,0,0,1470.48,209.509Z" transform="translate(-818.63 6089.845)" fill="#3d2a0e"/><path d="M1475.88,156.564l-.911-.781,1.572-1.835a2.315,2.315,0,0,0-.415-3.215l-.059-.046a2.315,2.315,0,0,0-3.236.4l-1.471,1.885-.946-.739,1.472-1.885a3.515,3.515,0,0,1,4.92-.6l.059.046a3.513,3.513,0,0,1,.6,4.92Z" transform="translate(-818.965 6109.671)" fill="#3d2a0e"/><path d="M1486.181,160.744l-.946-.739a2.308,2.308,0,0,0-.4-3.236l-.059-.046a2.308,2.308,0,0,0-3.236.4l-.946-.739a3.509,3.509,0,0,1,4.92-.6l.059.046A3.509,3.509,0,0,1,1486.181,160.744Z" transform="translate(-823.039 6107.257)" fill="#3d2a0e"/><path d="M1477.4,179.468a3.107,3.107,0,0,1-1.928-.61l-.059-.046a3.534,3.534,0,0,1-1.331-3.032,3.72,3.72,0,0,1-3.249-.545l-.059-.046a4.053,4.053,0,0,1-1.324-3.972l1.159.31a2.852,2.852,0,0,0,.9,2.716l.059.046a2.681,2.681,0,0,0,3.082-.111.6.6,0,0,1,.9.761,2.326,2.326,0,0,0,.6,2.927l.059.046a2.239,2.239,0,0,0,1.864.278,3.244,3.244,0,0,0,1.816-1.075l.946.739a4.48,4.48,0,0,1-2.5,1.508A4.3,4.3,0,0,1,1477.4,179.468Z" transform="translate(-818.538 6100.784)" fill="#3d2a0e"/><path d="M1492.935,168.41l-.976-.7c1.157-1.62,1.2-3.349.107-4.2l-.059-.046c-.845-.678-1.781-.561-3.132.386l-.689-.983c.659-.462,2.665-1.868,4.566-.344l.053.041C1494.432,163.834,1494.486,166.239,1492.935,168.41Z" transform="translate(-826.074 6104.54)" fill="#3d2a0e"/><path d="M1489.242,182.415a3.467,3.467,0,0,1-2.147-.74l-.059-.046a3.51,3.51,0,0,1-.605-4.92l4.03-5.16a3.514,3.514,0,0,1,4.92-.605l.059.046a3.513,3.513,0,0,1,.6,4.919l-4.031,5.161a3.479,3.479,0,0,1-2.335,1.318A3.589,3.589,0,0,1,1489.242,182.415Zm3.99-11.011a2.361,2.361,0,0,0-.289.018,2.286,2.286,0,0,0-1.535.865l-4.03,5.161a2.308,2.308,0,0,0,.4,3.236l.059.046a2.313,2.313,0,0,0,3.235-.4l4.03-5.161a2.312,2.312,0,0,0-.4-3.235l-.059-.047A2.281,2.281,0,0,0,1493.232,171.4Z" transform="translate(-825.076 6101.19)" fill="#3d2a0e"/><path d="M1444.13,179.463l-1.131-.4a36.29,36.29,0,0,0,.874-7.186c.4-5.83.771-9.726,2.284-10.73l.419-.28c6.364-4.269,10.094-6.158,11.74-5.945a.594.594,0,0,1,.248.091,26.929,26.929,0,0,0,7.255,3.315c.7.2,1.344.346,1.912.476,1.673.385,2.881.663,3.238,1.768.547,1.693-1.546,3.749-3.267,4.582-2.849,1.38-5.87.156-7.265-.585-.617,1.234-2.189,2.1-3.6,2.878-.182.1-.36.2-.53.294a6.817,6.817,0,0,1,1.738,3.3,8.141,8.141,0,0,1-1.148,6.945l-.946-.739a7.126,7.126,0,0,0,.931-5.915,4.622,4.622,0,0,0-1.921-3.079.6.6,0,0,1-.087-1.048c.4-.263.877-.528,1.385-.808,1.385-.763,3.11-1.712,3.244-2.794a.6.6,0,0,1,.92-.431c.379.244,3.794,2.34,6.761.9,1.538-.745,2.9-2.356,2.648-3.134-.147-.457-1.078-.67-2.365-.967-.581-.133-1.239-.285-1.969-.49a28.053,28.053,0,0,1-7.452-3.38c-1-.025-3.7,1-10.8,5.761l-.424.283c-1.132.752-1.489,5.988-1.75,9.812C1444.859,175.05,1444.66,177.971,1444.13,179.463Z" transform="translate(-808 6107.311)" fill="#3d2a0e"/><path d="M1444.091,217.139l-.929-.76,6.739-8.236-18.076-14.186-13.082,15.874-.926-.763,13.455-16.326a.6.6,0,0,1,.833-.091l19.018,14.926a.6.6,0,0,1,.094.852Z" transform="translate(-797.927 6092.263)" fill="#3d2a0e"/><path d="M1399.475,163.123l-1.183-.2c.1-.6.217-1.2.344-1.8l1.173.253C1399.685,161.954,1399.573,162.541,1399.475,163.123Zm.747-3.467-1.16-.306c.155-.587.326-1.178.507-1.757l1.145.359C1400.538,158.513,1400.373,159.086,1400.222,159.656Zm1.061-3.383-1.127-.411c.208-.571.432-1.144.666-1.7l1.108.463C1401.7,155.164,1401.485,155.72,1401.283,156.273Zm1.366-3.271-1.085-.512c.259-.548.534-1.1.818-1.634l1.06.562C1403.168,151.937,1402.9,152.471,1402.649,153Zm1.659-3.133-1.034-.61c.308-.522.632-1.045.964-1.553l1.005.656C1404.921,148.855,1404.606,149.362,1404.308,149.869Zm1.936-2.969-.974-.7c.354-.494.725-.985,1.1-1.459l.942.744C1406.948,145.945,1406.589,146.421,1406.244,146.9Zm2.2-2.781-.907-.786c.4-.458.81-.913,1.228-1.354l.87.826C1409.227,143.233,1408.826,143.674,1408.442,144.119Zm2.439-2.572-.832-.865c.437-.421.89-.837,1.344-1.237l.792.9C1411.744,140.734,1411.305,141.139,1410.881,141.547Zm2.661-2.341-.751-.936c.473-.38.961-.753,1.451-1.111l.707.969C1414.474,138.476,1414,138.838,1413.542,139.207Zm2.861-2.09-.663-1c.506-.335,1.026-.664,1.545-.975l.617,1.03C1417.4,136.472,1416.895,136.79,1416.4,137.116Z" transform="translate(-790.117 6115.216)" fill="#eaeaea"/><path d="M1486.022,197.8l-.728-.954c.468-.357.933-.729,1.384-1.107l.771.92C1486.984,197.05,1486.5,197.434,1486.022,197.8Zm2.8-2.345-.811-.884c.434-.4.864-.811,1.279-1.228l.851.847C1489.712,194.621,1489.269,195.046,1488.822,195.456Zm2.577-2.588-.887-.808c.4-.435.786-.885,1.163-1.338l.923.766C1492.21,191.955,1491.807,192.419,1491.4,192.868Zm2.333-2.812-.957-.724c.355-.47.7-.953,1.037-1.438l.989.68C1494.458,189.073,1494.1,189.573,1493.732,190.056Zm2.069-3.011-1.019-.634c.311-.5.615-1.013.9-1.526l1.046.587C1496.435,186,1496.122,186.53,1495.8,187.045Zm1.788-3.187-1.072-.539c.264-.525.52-1.064.76-1.6l1.1.489C1498.125,182.761,1497.861,183.317,1497.59,183.858Zm1.49-3.338-1.117-.438c.215-.548.42-1.109.61-1.666l1.136.388C1499.513,179.378,1499.3,179.955,1499.079,180.52Zm1.179-3.46-1.153-.335c.164-.566.318-1.142.456-1.714l1.167.281C1500.586,175.882,1500.428,176.476,1500.258,177.06Zm.857-3.554-1.178-.228c.112-.577.211-1.165.3-1.749l1.188.173C1501.334,172.3,1501.23,172.911,1501.116,173.506Zm.529-3.617-1.194-.119c.058-.586.1-1.18.137-1.767l1.2.065C1501.753,168.673,1501.706,169.285,1501.645,169.889Zm.2-3.646-1.2-.012,0-.394q0-.692-.024-1.379l1.2-.041q.025.706.025,1.42Zm-1.323-3.554c-.047-.587-.108-1.18-.181-1.763l1.19-.149c.076.6.139,1.212.187,1.817Zm-.442-3.515c-.1-.581-.214-1.166-.34-1.739l1.172-.257c.13.591.248,1.194.351,1.793Zm-.76-3.46c-.153-.569-.32-1.141-.5-1.7l1.144-.364c.183.577.356,1.166.514,1.753Zm-1.073-3.376c-.2-.551-.422-1.1-.65-1.644l1.106-.466c.234.557.46,1.127.67,1.694Zm-1.374-3.257c-.253-.53-.521-1.061-.8-1.579l1.058-.565c.285.534.562,1.081.822,1.627Zm-1.666-3.12c-.3-.506-.616-1.01-.938-1.5l1-.659c.332.506.657,1.026.967,1.547ZM1493.264,143c-.346-.478-.706-.952-1.071-1.411l.94-.746c.376.473.747.962,1.1,1.454Zm-2.2-2.772c-.386-.443-.788-.884-1.194-1.309l.868-.829c.418.438.832.892,1.23,1.349Zm-2.446-2.564c-.425-.406-.865-.809-1.308-1.2l.79-.9c.457.4.911.815,1.348,1.234Zm-2.669-2.333c-.461-.367-.936-.728-1.411-1.073l.705-.971c.49.356.979.728,1.454,1.106Zm-2.87-2.083c-.493-.325-1-.641-1.5-.942l.614-1.031c.52.31,1.042.637,1.55.971Zm-3.049-1.814c-.52-.278-1.053-.548-1.584-.8l.518-1.083c.547.262,1.1.539,1.632.826Zm-3.2-1.53c-.544-.23-1.1-.45-1.651-.654l.416-1.126c.569.21,1.141.437,1.7.674Zm-3.331-1.231c-.561-.179-1.133-.346-1.7-.5l.311-1.159c.586.157,1.175.33,1.753.514Zm-3.422-.919c-.575-.127-1.16-.241-1.739-.341l.2-1.183c.6.1,1.2.221,1.793.352Zm-3.491-.6c-.583-.073-1.177-.134-1.763-.181l.1-1.2c.6.049,1.216.112,1.817.187Zm-8.844-.113-.119-1.194c.6-.06,1.214-.107,1.821-.14l.065,1.2C1458.914,126.936,1458.32,126.981,1457.736,127.039Zm5.312-.17q-.693-.024-1.392-.025l-.38,0-.012-1.2.391,0q.721,0,1.435.025Z" transform="translate(-813.847 6119.014)" fill="#eaeaea"/><path d="M1316.51,191a7.5,7.5,0,1,1,4.592-1.573A7.491,7.491,0,0,1,1316.51,191Zm-4.984-3.632a6.3,6.3,0,1,0,1.111-8.84,6.307,6.307,0,0,0-1.111,8.84Z" transform="translate(-754.402 6098.87)" fill="#d8d8d8"/><path d="M1309.513,194.6a.555.555,0,0,1-.089-.007l-7.523-1.133a.6.6,0,0,1-.5-.683l.6-3.971,1.187.179-.509,3.377,6.336.955.476-3.163a.6.6,0,0,1,.541-.508,13.713,13.713,0,0,0,3.464-.749.6.6,0,0,1,.687.208l1.828,2.477,5.156-3.806-1.741-2.359a.6.6,0,0,1,.02-.738,13.675,13.675,0,0,0,1.951-3.157.6.6,0,0,1,.637-.35l2.852.43.955-6.337-2.852-.43a.6.6,0,0,1-.506-.523,13.667,13.667,0,0,0-.934-3.592.6.6,0,0,1,.2-.711l2.359-1.741-3.805-5.156-2.478,1.828a.6.6,0,0,1-.718,0,13.68,13.68,0,0,0-3.088-1.737.6.6,0,0,1-.367-.645l.477-3.163-6.337-.955-.509,3.377a.6.6,0,0,1-.5.5,13.7,13.7,0,0,0-3.175.892.6.6,0,0,1-.711-.2l-2.1-2.84-5.156,3.806,2.183,2.958a.6.6,0,0,1,0,.718,13.7,13.7,0,0,0-1.573,2.7.6.6,0,0,1-.638.35l-3.687-.556-.955,6.337,3.688.556-.178,1.187-4.282-.646a.6.6,0,0,1-.5-.683l1.134-7.523a.6.6,0,0,1,.683-.5l3.835.578a14.982,14.982,0,0,1,1.255-2.159l-2.278-3.087a.6.6,0,0,1,.127-.839l6.122-4.519a.6.6,0,0,1,.839.127l2.178,2.951a14.889,14.889,0,0,1,2.577-.723l.534-3.54a.6.6,0,0,1,.682-.5l7.523,1.134a.6.6,0,0,1,.5.683l-.5,3.3a14.9,14.9,0,0,1,2.559,1.439l2.606-1.923a.6.6,0,0,1,.839.127l4.518,6.121a.6.6,0,0,1-.127.839l-2.471,1.823a14.845,14.845,0,0,1,.782,3.014l3,.452a.6.6,0,0,1,.5.683l-1.134,7.523a.6.6,0,0,1-.683.5l-3-.452a14.86,14.86,0,0,1-1.636,2.649l1.824,2.471a.6.6,0,0,1-.126.839l-6.122,4.518a.6.6,0,0,1-.839-.127l-1.923-2.606a14.875,14.875,0,0,1-2.87.622l-.5,3.3a.6.6,0,0,1-.593.51Z" transform="translate(-746.67 6106.407)" fill="#d8d8d8"/><path d="M1359.862,154.609a.547.547,0,0,1-.083-.006l-5.024-.7a.6.6,0,0,1-.511-.677l.4-2.9,1.189.166-.322,2.309,3.835.535.322-2.314a.6.6,0,0,1,.495-.509l.136-.022c.11-.017.219-.035.328-.06a7.853,7.853,0,0,0,.869-.258.6.6,0,0,1,.679.2l1.4,1.859,3.09-2.334-1.408-1.863a.6.6,0,0,1-.01-.71,7.937,7.937,0,0,0,.7-1.184.6.6,0,0,1,.624-.337l2.31.322.534-3.835-2.314-.322a.6.6,0,0,1-.509-.494l-.023-.139c-.017-.109-.034-.217-.059-.326a8.014,8.014,0,0,0-.258-.869.6.6,0,0,1,.2-.68l1.859-1.4-2.335-3.09-1.863,1.408a.6.6,0,0,1-.709.01,7.92,7.92,0,0,0-1.184-.7.6.6,0,0,1-.337-.625l.322-2.309-3.835-.534-.322,2.314a.6.6,0,0,1-.495.509l-.135.022c-.11.017-.22.035-.329.06a7.962,7.962,0,0,0-.869.258.6.6,0,0,1-.679-.2l-1.4-1.859-3.09,2.335,1.407,1.863a.6.6,0,0,1,.01.709,7.982,7.982,0,0,0-.7,1.184.6.6,0,0,1-.625.337l-2.31-.322-.535,3.835,2.314.322a.6.6,0,0,1,.509.494l.023.138c.017.109.034.218.059.327a7.9,7.9,0,0,0,.258.869l-1.131.4a9.117,9.117,0,0,1-.3-1c-.008-.034-.015-.067-.022-.1l-2.474-.344a.6.6,0,0,1-.512-.677l.7-5.023a.6.6,0,0,1,.677-.512l2.48.346c.109-.2.228-.4.356-.6l-1.511-2a.6.6,0,0,1,.118-.841L1353.9,132a.6.6,0,0,1,.841.117l1.506,1.994c.2-.062.392-.113.58-.157l.1-.022.344-2.474a.6.6,0,0,1,.677-.511l5.023.7a.6.6,0,0,1,.512.677l-.346,2.48q.305.165.6.356l2-1.51a.6.6,0,0,1,.84.117l3.058,4.047a.6.6,0,0,1-.117.841l-1.994,1.507c.061.2.113.392.157.58.007.034.015.067.022.1l2.474.344a.6.6,0,0,1,.4.233.6.6,0,0,1,.115.445l-.7,5.024a.6.6,0,0,1-.677.511l-2.48-.346q-.165.305-.356.6l1.51,2a.6.6,0,0,1-.117.841l-4.047,3.057a.6.6,0,0,1-.841-.117l-1.507-1.994c-.2.062-.392.114-.58.157l-.1.022-.344,2.474a.6.6,0,0,1-.594.517Z" transform="translate(-769.612 6116.896)" fill="#3d2a0e"/><path d="M1363.9,151.8a3.9,3.9,0,1,1,.877-.1A3.907,3.907,0,0,1,1363.9,151.8Zm-2.63-3.293a2.7,2.7,0,1,0,.341-2.038,2.7,2.7,0,0,0-.341,2.038Z" transform="translate(-774.799 6111.672)" fill="#3d2a0e"/><path d="M1478.959,250.964a.6.6,0,0,1-.527-.312l-1.626-2.973a8.675,8.675,0,0,0-3.455-3.455l-2.973-1.626a.6.6,0,0,1,0-1.052l2.973-1.626a8.675,8.675,0,0,0,3.455-3.455l1.626-2.973a.6.6,0,0,1,1.053,0l1.626,2.973a8.673,8.673,0,0,0,3.455,3.455l2.973,1.626a.6.6,0,0,1,0,1.052l-2.973,1.626a8.673,8.673,0,0,0-3.455,3.455l-1.626,2.973A.6.6,0,0,1,1478.959,250.964Zm-7.042-8.893,2.01,1.1a9.873,9.873,0,0,1,3.932,3.932l1.1,2.011,1.1-2.011a9.873,9.873,0,0,1,3.932-3.932l2.011-1.1-2.011-1.1a9.873,9.873,0,0,1-3.932-3.932l-1.1-2.011-1.1,2.011a9.873,9.873,0,0,1-3.932,3.932Z" transform="translate(-818.827 6076)" fill="#3d2a0e"/><path d="M1510.7,255.345l.614,1.121a3.5,3.5,0,0,0,1.394,1.394l1.122.613-1.122.614a3.5,3.5,0,0,0-1.394,1.394l-.614,1.122-.613-1.122a3.507,3.507,0,0,0-1.395-1.394l-1.121-.614,1.121-.613a3.512,3.512,0,0,0,1.395-1.394Z" transform="translate(-833.829 6067.134)" fill="#3d2a0e"/><path d="M1492.2,267.637l1.076,1.967a6.149,6.149,0,0,0,2.444,2.444l1.967,1.076-1.967,1.075a6.153,6.153,0,0,0-2.444,2.444l-1.076,1.967-1.076-1.967a6.153,6.153,0,0,0-2.444-2.444l-1.967-1.075,1.967-1.076a6.148,6.148,0,0,0,2.444-2.444Z" transform="translate(-825.484 6062.217)" fill="#d8d8d8"/><path d="M1482.819,327.948l-8.3-4.791a.6.6,0,0,1,0-1.039l8.3-4.791.6,1.039-7.4,4.271,7.4,4.271Z" transform="translate(-820.488 6042.342)" fill="#3d2a0e"/><path d="M1509.269,327.948l-.6-1.039,7.4-4.271-7.4-4.271.6-1.039,8.3,4.791a.6.6,0,0,1,0,1.039Z" transform="translate(-834.267 6042.342)" fill="#3d2a0e"/><rect width="14.57" height="1.2" transform="translate(665.466 6371.273) rotate(-68.747)" fill="#3d2a0e"/><path d="M1510.4,327.2H1478V326h31.8V282.2h-10.2V281h10.8a.6.6,0,0,1,.6.6v45A.6.6,0,0,1,1510.4,327.2Z" transform="translate(-822 6056.873)" fill="#3d2a0e"/><rect width="35.4" height="1.2" transform="translate(653 6346.872)" fill="#3d2a0e"/></g></svg>