<svg xmlns="http://www.w3.org/2000/svg" width="150" height="145.741" viewBox="0 0 150 145.741"><g transform="translate(-213 -6251)"><path d="M938.024,168.025a7.071,7.071,0,0,1-1.7-.208,6.975,6.975,0,1,1,1.7.208ZM938,155.217a5.812,5.812,0,1,0,1.4.172A5.817,5.817,0,0,0,938,155.217Z" transform="translate(-699.096 6112.253)" fill="#d8d8d8"/><path d="M932.244,172.188a.613.613,0,0,1-.305-.082L917.3,163.657a.609.609,0,0,1-.3-.528v-16.9a.609.609,0,0,1,.3-.528l14.634-8.449a.612.612,0,0,1,.61,0l14.634,8.449a.609.609,0,0,1,.305.528v16.9a.609.609,0,0,1-.305.528l-14.634,8.449A.611.611,0,0,1,932.244,172.188Zm-14.024-9.411,14.024,8.1,14.024-8.1V146.583l-14.024-8.1-14.024,8.1Z" transform="translate(-693.634 6118.819)" fill="#d8d8d8"/><path d="M907.782,152.917l-5.477-3.163a.609.609,0,0,1-.3-.528V136.14a.609.609,0,0,1,.3-.528l11.333-6.544a.609.609,0,0,1,.61,0l7.556,4.363-.61,1.056-7.251-4.187-10.724,6.191v12.383l5.172,2.987Z" transform="translate(-687.78 6122.014)" fill="#3d2a0e"/><path d="M989.111,147.039l-4.971-2.983-5.988,2-.385-1.157,6.254-2.084a.605.605,0,0,1,.506.055l5.212,3.127Z" transform="translate(-717.348 6116.632)" fill="#3d2a0e"/><path d="M984.213,174.531a.6.6,0,0,1-.193-.032l-6.254-2.084.385-1.157,5.988,2,4.971-2.983.628,1.046-5.212,3.127A.611.611,0,0,1,984.213,174.531Z" transform="translate(-717.348 6105.903)" fill="#3d2a0e"/><path d="M1003.927,163.9H996.61a.61.61,0,0,1-.61-.61V145.61a.61.61,0,0,1,.61-.61h7.317a.61.61,0,0,1,.61.61v17.683A.61.61,0,0,1,1003.927,163.9Zm-6.707-1.22h6.1V146.219h-6.1Z" transform="translate(-724.463 6115.765)" fill="#3d2a0e"/><path d="M1025.073,161.537H1008.61a.61.61,0,0,1-.61-.61V153.61a.61.61,0,0,1,.61-.61h16.464a.61.61,0,0,1,.61.61v7.317A.61.61,0,0,1,1025.073,161.537Zm-15.854-1.219h15.244v-6.1h-15.244Z" transform="translate(-729.146 6112.643)" fill="#3d2a0e"/><rect width="1.22" height="3.659" transform="translate(356.902 6332.716)" fill="#d8d8d8"/><rect width="1.22" height="3.049" transform="translate(356.902 6341.862)" fill="#d8d8d8"/><rect width="3.049" height="1.22" transform="translate(351.415 6338.204)" fill="#d8d8d8"/><rect width="3.049" height="1.22" transform="translate(359.951 6338.204)" fill="#d8d8d8"/><rect width="1.22" height="3.049" transform="translate(290.439 6280.886)" fill="#eaeaea"/><rect width="1.22" height="3.049" transform="translate(290.439 6288.204)" fill="#eaeaea"/><rect width="2.439" height="1.22" transform="translate(286.171 6285.155)" fill="#eaeaea"/><rect width="2.439" height="1.22" transform="translate(293.488 6285.155)" fill="#eaeaea"/><path d="M1088.2,196.683h-1.22V130.22h-59.756V141.8H1026v-12.2a.61.61,0,0,1,.61-.61h60.975a.61.61,0,0,1,.61.61Z" transform="translate(-736.171 6122.009)" fill="#eaeaea"/><path d="M1094.25,247.537h-51.275v-1.219h51.275a6.049,6.049,0,0,0,6.042-6.042v-.055H1032V239h68.9a.61.61,0,0,1,.61.61v.665A7.27,7.27,0,0,1,1094.25,247.537Z" transform="translate(-738.512 6079.082)" fill="#3d2a0e"/><path d="M1135.707,203.317h-1.22V150.252a3.036,3.036,0,0,0-3.032-3.032H1129V146h2.456a4.257,4.257,0,0,1,4.252,4.252Z" transform="translate(-776.366 6115.375)" fill="#3d2a0e"/><path d="M1055.885,169.221a3.658,3.658,0,0,1-2.486-.893,5.556,5.556,0,0,1-1.565-2.572,15.455,15.455,0,0,1,0-8.08,5.559,5.559,0,0,1,1.565-2.572,3.657,3.657,0,0,1,2.486-.893,3.614,3.614,0,0,1,2.485.912,5.7,5.7,0,0,1,1.565,2.591,15.178,15.178,0,0,1,0,8,5.7,5.7,0,0,1-1.565,2.591A3.612,3.612,0,0,1,1055.885,169.221Zm0-2a1.79,1.79,0,0,0,1.458-.719,4.874,4.874,0,0,0,.864-1.967,13.971,13.971,0,0,0,0-5.643,4.967,4.967,0,0,0-.864-1.977,1.83,1.83,0,0,0-2.917-.009,4.867,4.867,0,0,0-.863,1.967,14.13,14.13,0,0,0,0,5.681,4.7,4.7,0,0,0,.873,1.958A1.808,1.808,0,0,0,1055.885,167.225Z" transform="translate(-746.043 6112.17)" fill="#3d2a0e"/><path d="M1071.714,169.234a.921.921,0,0,1-.672-.288.942.942,0,0,1-.288-.691V156.547l-1.4.6a1.617,1.617,0,0,1-.614.134.967.967,0,0,1-.7-.269.915.915,0,0,1-.279-.691,1.044,1.044,0,0,1,.153-.557.887.887,0,0,1,.48-.365l2.995-1.074a1.078,1.078,0,0,1,.192-.058.937.937,0,0,1,.173-.019.91.91,0,0,1,.7.278,1.013,1.013,0,0,1,.259.72v13.013a.942.942,0,0,1-.288.691A.964.964,0,0,1,1071.714,169.234Z" transform="translate(-752.467 6112.157)" fill="#3d2a0e"/><path d="M1085.189,169.221a3.656,3.656,0,0,1-2.485-.893,5.548,5.548,0,0,1-1.564-2.572,15.442,15.442,0,0,1,0-8.08,5.551,5.551,0,0,1,1.564-2.572,3.656,3.656,0,0,1,2.485-.893,3.614,3.614,0,0,1,2.485.912,5.7,5.7,0,0,1,1.565,2.591,15.168,15.168,0,0,1,0,8,5.693,5.693,0,0,1-1.565,2.591A3.611,3.611,0,0,1,1085.189,169.221Zm0-2a1.791,1.791,0,0,0,1.459-.719,4.877,4.877,0,0,0,.863-1.967,13.971,13.971,0,0,0,0-5.643,4.97,4.97,0,0,0-.863-1.977,1.831,1.831,0,0,0-2.918-.009,4.863,4.863,0,0,0-.864,1.967,14.13,14.13,0,0,0,0,5.681,4.7,4.7,0,0,0,.873,1.958A1.807,1.807,0,0,0,1085.189,167.225Z" transform="translate(-757.479 6112.17)" fill="#3d2a0e"/><path d="M1101.018,169.234a.919.919,0,0,1-.672-.288.942.942,0,0,1-.288-.691V156.547l-1.4.6a1.617,1.617,0,0,1-.614.134.967.967,0,0,1-.7-.269.915.915,0,0,1-.279-.691,1.04,1.04,0,0,1,.154-.557.885.885,0,0,1,.48-.365l2.994-1.074a1.1,1.1,0,0,1,.192-.058.932.932,0,0,1,.172-.019.911.911,0,0,1,.7.278,1.014,1.014,0,0,1,.259.72v13.013a.942.942,0,0,1-.288.691A.965.965,0,0,1,1101.018,169.234Z" transform="translate(-763.903 6112.157)" fill="#3d2a0e"/><path d="M1050.387,198.5a.636.636,0,0,1-.645-.645v-8.391a.617.617,0,0,1,.186-.465.642.642,0,0,1,1.1.465v3.557h5.751v-3.557a.617.617,0,0,1,.186-.465.633.633,0,0,1,.458-.18.608.608,0,0,1,.458.18.64.64,0,0,1,.174.465v8.391a.646.646,0,0,1-.174.459.6.6,0,0,1-.458.186.635.635,0,0,1-.645-.645v-3.694h-5.751v3.694a.635.635,0,0,1-.18.459A.617.617,0,0,1,1050.387,198.5Z" transform="translate(-745.436 6098.663)" fill="#3d2a0e"/><path d="M1066.316,190.014a.595.595,0,1,1,0-1.19h6.632a.595.595,0,1,1,0,1.19Zm3.322,8.491a.635.635,0,0,1-.645-.645v-9.036h1.289v9.036a.635.635,0,0,1-.644.645Z" transform="translate(-751.671 6098.663)" fill="#3d2a0e"/><path d="M1081.53,198.5a.635.635,0,0,1-.645-.645v-8.391a.615.615,0,0,1,.186-.465.633.633,0,0,1,.458-.18.625.625,0,0,1,.57.347l3.88,7.772h-.4l3.781-7.772a.625.625,0,0,1,.57-.347.636.636,0,0,1,.459.18.617.617,0,0,1,.185.465v8.391a.613.613,0,0,1-.192.459.628.628,0,0,1-.453.186.635.635,0,0,1-.644-.645v-6.607l.248-.062-3.248,6.619a.641.641,0,0,1-.558.322.621.621,0,0,1-.6-.384l-3.21-6.433.248-.062v6.607a.635.635,0,0,1-.645.645Z" transform="translate(-757.589 6098.663)" fill="#3d2a0e"/><path d="M1101.48,198.5a.6.6,0,0,1-.452-.186.633.633,0,0,1-.18-.459v-8.391a.624.624,0,0,1,.186-.459.609.609,0,0,1,.446-.186.635.635,0,0,1,.645.645v7.747h4.487a.645.645,0,1,1,0,1.289Z" transform="translate(-765.379 6098.663)" fill="#3d2a0e"/><path d="M1067.1,220.671l-4.4-2.9a.914.914,0,0,1,0-1.528l4.4-2.9,1.006,1.527-3.243,2.137,3.243,2.137Z" transform="translate(-750.33 6089.094)" fill="#d8d8d8"/><path d="M1087.234,220.671l-1.006-1.527,3.244-2.137-3.244-2.137,1.006-1.527,4.4,2.9a.915.915,0,0,1,0,1.528Z" transform="translate(-759.674 6089.094)" fill="#d8d8d8"/><rect width="8.82" height="1.829" transform="translate(319.713 6309.711) rotate(-68.748)" fill="#d8d8d8"/><path d="M1088.68,322.231v-1.219a9.8,9.8,0,1,0,0-19.607v-1.219a11.023,11.023,0,1,1,0,22.046Z" transform="translate(-760.631 6055.204)" fill="#3d2a0e"/><path d="M1090.366,328.488h-9.756a.61.61,0,0,1-.61-.61v-7.317h1.219v6.707h8.537V320.03a.61.61,0,0,1,.46-.591,18.984,18.984,0,0,0,5.27-2.218.611.611,0,0,1,.753.092l4.846,4.924,5.935-6.029-4.86-4.937a.61.61,0,0,1-.089-.739,19.64,19.64,0,0,0,2.186-5.359.61.61,0,0,1,.592-.465h6.858v-8.537h-6.628a.61.61,0,0,1-.591-.46,18.976,18.976,0,0,0-2.218-5.27.61.61,0,0,1,.093-.752l4.923-4.847-6.029-5.935-4.937,4.86a.61.61,0,0,1-.739.09,19.619,19.619,0,0,0-5.359-2.187.609.609,0,0,1-.465-.592V274.22h-8.537v6.1H1080V273.61a.61.61,0,0,1,.61-.61h9.756a.61.61,0,0,1,.61.61V280.6a20.859,20.859,0,0,1,4.818,1.967l5.034-4.955a.61.61,0,0,1,.856,0l6.9,6.791a.609.609,0,0,1,0,.869l-5.024,4.945a20.192,20.192,0,0,1,1.99,4.73h6.769a.61.61,0,0,1,.61.61v9.756a.61.61,0,0,1-.61.61h-6.995a20.867,20.867,0,0,1-1.966,4.819l4.955,5.034a.609.609,0,0,1,0,.855l-6.791,6.9a.627.627,0,0,1-.869,0l-4.945-5.024a20.2,20.2,0,0,1-4.731,1.99v7.379A.61.61,0,0,1,1090.366,328.488Z" transform="translate(-757.244 6065.814)" fill="#3d2a0e"/><path d="M3,0H74.61a1,1,0,0,1,1,1V15.244a0,0,0,0,1,0,0H0a0,0,0,0,1,0,0V3A3,3,0,0,1,3,0Z" transform="translate(213 6296.13)" fill="#d8d8d8"/><path d="M977.439,260.756H975.61v-56.8a1.13,1.13,0,0,0-1.129-1.129H902.958a1.13,1.13,0,0,0-1.129,1.129v55.579H900V203.958A2.961,2.961,0,0,1,902.958,201h71.523a2.961,2.961,0,0,1,2.958,2.958Z" transform="translate(-687 6093.912)" fill="#3d2a0e"/><rect width="6.707" height="1.829" transform="translate(281.902 6309.545)" fill="#3d2a0e"/><rect width="58.537" height="1.829" transform="translate(214.829 6309.545)" fill="#3d2a0e"/><rect width="35.976" height="1.829" transform="translate(241.049 6343.692)" fill="#d8d8d8"/><rect width="7.927" height="1.829" transform="translate(225.805 6343.692)" fill="#d8d8d8"/><rect width="35.976" height="1.829" transform="translate(241.049 6352.228)" fill="#d8d8d8"/><rect width="7.927" height="1.829" transform="translate(225.805 6352.228)" fill="#d8d8d8"/><rect width="22.561" height="1.829" transform="translate(221.537 6302.228)" fill="#3d2a0e" opacity="0.1"/><path d="M973.432,346.146H904.007A4.012,4.012,0,0,1,900,342.139v-26.7A3.443,3.443,0,0,1,903.439,312H974a3.443,3.443,0,0,1,3.439,3.439v26.7A4.012,4.012,0,0,1,973.432,346.146Zm-69.993-32.317a1.611,1.611,0,0,0-1.61,1.61v26.7a2.18,2.18,0,0,0,2.178,2.178h69.424a2.181,2.181,0,0,0,2.178-2.178v-26.7a1.611,1.611,0,0,0-1.61-1.61Z" transform="translate(-687 6050.594)" fill="#3d2a0e"/><rect width="42.683" height="1.829" transform="translate(222.146 6371.13)" fill="#3d2a0e"/><path d="M957.073,339.829h-1.829V338h1.829Zm-3.659,0h-1.829V338h1.829Zm-3.659,0h-1.829V338h1.829Zm-3.659,0h-1.829V338H946.1Zm-3.658,0H940.61V338h1.829Zm-3.659,0h-1.829V338h1.829Zm-3.658,0h-1.829V338h1.829Zm-3.659,0h-1.829V338h1.829Zm-3.658,0h-1.829V338H927.8Zm-3.659,0h-1.829V338h1.829Zm-3.659,0h-1.829V338h1.829Zm-3.658,0H915V338h1.829Z" transform="translate(-692.854 6040.448)" fill="#3d2a0e"/><rect width="42.683" height="1.829" transform="translate(222.146 6386.375)" fill="#3d2a0e"/><rect width="1.829" height="18.293" transform="translate(272.146 6372.959)" fill="#3d2a0e"/><rect width="1.829" height="18.293" transform="translate(280.073 6372.959)" fill="#3d2a0e"/><path d="M1.9,0h0a6.64,6.64,0,0,1,6.64,6.64v9.726a4.743,4.743,0,0,1-4.743,4.743H0a0,0,0,0,1,0,0V1.9A1.9,1.9,0,0,1,1.9,0Z" transform="translate(308.246 6364.423)" fill="#d8d8d8"/><path d="M1054.5,337.561h-3.923a6.582,6.582,0,0,1-6.575-6.575v-9.411a6.582,6.582,0,0,1,6.575-6.575h3.923a6.582,6.582,0,0,1,6.575,6.575v9.411A6.582,6.582,0,0,1,1054.5,337.561Zm-3.923-20.732a4.751,4.751,0,0,0-4.746,4.746v9.411a4.751,4.751,0,0,0,4.746,4.746h3.923a4.751,4.751,0,0,0,4.746-4.746v-9.411a4.751,4.751,0,0,0-4.746-4.746Z" transform="translate(-743.195 6049.423)" fill="#3d2a0e"/><rect width="1.829" height="9.756" transform="translate(308.122 6366.253)" fill="#3d2a0e"/><path d="M1045.732,292.756H1043.9V266.505a6.684,6.684,0,0,0-6.676-6.676H1025V258h12.226a8.515,8.515,0,0,1,8.506,8.505Z" transform="translate(-735.78 6071.667)" fill="#3d2a0e"/><path d="M943.9,257.773l-10.389-6a.915.915,0,0,1,0-1.584l10.389-6,.915,1.584-9.017,5.206,9.017,5.207Z" transform="translate(-699.898 6077.056)" fill="#d8d8d8"/><path d="M976.538,257.773l-.915-1.584,9.018-5.207-9.018-5.206.915-1.584,10.389,6a.914.914,0,0,1,0,1.584Z" transform="translate(-716.511 6077.056)" fill="#d8d8d8"/><rect width="18.241" height="1.829" transform="translate(247.855 6335.857) rotate(-68.748)" fill="#d8d8d8"/></g></svg>