<svg xmlns="http://www.w3.org/2000/svg" width="150" height="148.185" viewBox="0 0 150 148.185"><g transform="translate(-912 -6245)"><rect width="1.21" height="3.629" transform="translate(916.839 6279.476)" fill="#eaeaea"/><rect width="1.21" height="3.024" transform="translate(916.839 6287.943)" fill="#eaeaea"/><rect width="3.024" height="1.21" transform="translate(912 6284.919)" fill="#eaeaea"/><rect width="3.024" height="1.21" transform="translate(920.468 6284.919)" fill="#eaeaea"/><path d="M1295.343,221.756a4.662,4.662,0,0,1-2.523-.739l-.984-.63a4.7,4.7,0,0,1-1.421-6.481l12.016-18.265a4.194,4.194,0,0,1,.526-3.464l.9-1.369,1.012.663-.9,1.369a3.006,3.006,0,0,0-.3,2.687.606.606,0,0,1-.064.537l-12.171,18.5a3.484,3.484,0,0,0,1.059,4.8l.984.63a3.488,3.488,0,0,0,4.81-1.055l12.093-18.379a.6.6,0,0,1,.48-.272,3,3,0,0,0,2.415-1.354l.9-1.368,1.011.663-.9,1.369a4.244,4.244,0,0,1-3.059,1.874L1299.3,219.6A4.684,4.684,0,0,1,1295.343,221.756Z" transform="translate(-374.242 6092.785)" fill="#3d2a0e"/><path d="M1326.62,174.173a23.576,23.576,0,1,1,14.617-5.084A23.555,23.555,0,0,1,1326.62,174.173Zm-.047-45.947a22.374,22.374,0,1,0,13.914,39.914l.375.474-.375-.474a22.37,22.37,0,0,0-13.914-39.914Z" transform="translate(-379.515 6117.993)" fill="#3d2a0e"/><rect width="1.21" height="4.917" transform="translate(928.289 6289.349) rotate(-55.337)" fill="#3d2a0e"/><path d="M1316.412,164.9a17.808,17.808,0,0,1,24.273-25.573l-.7.986a16.6,16.6,0,0,0-22.624,23.837Z" transform="translate(-383.291 6114.419)" fill="#3d2a0e"/><path d="M1335.89,176.05l-.03-1.209a16.812,16.812,0,0,0,1.745-.135l.157,1.2A17.737,17.737,0,0,1,1335.89,176.05Zm-1.876-.052a17.973,17.973,0,0,1-1.861-.249l.223-1.189a16.867,16.867,0,0,0,1.735.231Zm5.595-.434-.282-1.176a16.352,16.352,0,0,0,1.677-.5l.406,1.14A17.768,17.768,0,0,1,1339.608,175.564Zm-9.28-.256a18.017,18.017,0,0,1-1.768-.631l.466-1.116a16.616,16.616,0,0,0,1.648.588Zm12.813-1-.524-1.09a16.58,16.58,0,0,0,1.535-.841l.636,1.028A17.62,17.62,0,0,1,1343.142,174.306Zm-16.273-.443c-.505-.277-1-.582-1.478-.907l.683-1c.443.3.906.587,1.376.845Zm19.463-1.53-.741-.956.148-.116c.409-.324.806-.669,1.179-1.026l.836.875c-.4.383-.827.754-1.264,1.1Zm2.71-2.591-.924-.781a16.613,16.613,0,0,0,1.058-1.392l1,.679A17.815,17.815,0,0,1,1349.042,169.742Zm2.105-3.1-1.067-.569a16.609,16.609,0,0,0,.74-1.585l1.121.454A17.6,17.6,0,0,1,1351.147,166.64Zm1.406-3.475-1.163-.333a16.654,16.654,0,0,0,.393-1.705l1.192.209A17.9,17.9,0,0,1,1352.552,163.165Zm.649-3.692-1.207-.083c.026-.382.039-.769.039-1.152q0-.3-.01-.6l1.208-.044q.012.321.011.642C1353.244,158.648,1353.229,159.064,1353.2,159.473Zm-1.332-3.577a16.808,16.808,0,0,0-.338-1.717l1.173-.3a17.968,17.968,0,0,1,.362,1.842Zm-.855-3.388a16.574,16.574,0,0,0-.692-1.607l1.084-.536a17.605,17.605,0,0,1,.743,1.725Zm-1.55-3.132a16.97,16.97,0,0,0-1.014-1.427l.948-.751a17.984,17.984,0,0,1,1.087,1.53Z" transform="translate(-388.356 6110.019)" fill="#3d2a0e"/><path d="M1331.164,173.407a2.722,2.722,0,1,1,2.243-3.128A2.722,2.722,0,0,1,1331.164,173.407Z" transform="translate(-389.387 6101.798)" fill="#d8d8d8"/><path d="M1350.164,158.407a2.722,2.722,0,1,1,2.243-3.128A2.722,2.722,0,0,1,1350.164,158.407Z" transform="translate(-396.895 6107.726)" fill="#d8d8d8"/><rect width="1.21" height="6.082" transform="matrix(0.583, -0.813, 0.813, 0.583, 942.627, 6257.087)" fill="#d8d8d8"/><rect width="2.584" height="1.21" transform="translate(945.254 6268.059) rotate(-43.051)" fill="#d8d8d8"/><rect width="1.21" height="7.619" transform="matrix(0.527, -0.85, 0.85, 0.527, 946.396, 6275.379)" fill="#d8d8d8"/><path d="M1489.084,340.183a15.217,15.217,0,1,1,15.217-15.217A15.234,15.234,0,0,1,1489.084,340.183Zm0-29.225a14.007,14.007,0,1,0,14.007,14.007A14.023,14.023,0,0,0,1489.084,310.959Z" transform="translate(-447.028 6045.785)" fill="#d8d8d8"/><path d="M1485.96,341.919a19.96,19.96,0,1,1,19.96-19.96A19.983,19.983,0,0,1,1485.96,341.919Zm0-38.71a18.75,18.75,0,1,0,18.75,18.75A18.772,18.772,0,0,0,1485.96,303.21Z" transform="translate(-443.919 6048.847)" fill="#d8d8d8"/><rect width="1.21" height="3.024" transform="translate(1041.436 6347.822)" fill="#d8d8d8"/><rect width="4.839" height="1.21" transform="translate(1039.621 6347.218)" fill="#d8d8d8"/><path d="M1518.768,307.136l-1-.686,1.825-2.648a.814.814,0,0,0-.238-1.12l-1.78-1.176a.816.816,0,0,0-1.13.231l-1.828,2.722-1-.675,1.826-2.718a2.028,2.028,0,0,1,2.8-.57l1.779,1.176a2.025,2.025,0,0,1,.574,2.806Z" transform="translate(-462.736 6049.573)" fill="#d8d8d8"/><path d="M1498.6,319.024a.605.605,0,0,1-.6-.6V316.6a.6.6,0,1,1,1.21,0v1.815A.605.605,0,0,1,1498.6,319.024Z" transform="translate(-456.564 6043.314)" fill="#3d2a0e"/><path d="M1498.6,352.419a.605.605,0,0,1-.6-.6V350.6a.6.6,0,1,1,1.21,0v1.21A.605.605,0,0,1,1498.6,352.419Z" transform="translate(-456.564 6029.879)" fill="#3d2a0e"/><path d="M1482.814,335.21h-1.21a.6.6,0,1,1,0-1.21h1.21a.6.6,0,1,1,0,1.21Z" transform="translate(-449.847 6036.202)" fill="#3d2a0e"/><path d="M1514.815,335.21h-1.21a.6.6,0,1,1,0-1.21h1.21a.6.6,0,1,1,0,1.21Z" transform="translate(-462.492 6036.202)" fill="#3d2a0e"/><rect width="9.244" height="1.21" transform="translate(1041.609 6370.344) rotate(-47.732)" fill="#3d2a0e"/><circle cx="1.512" cy="1.512" r="1.512" transform="translate(1040.226 6369.597)" fill="#3d2a0e"/><rect width="22.379" height="1.21" transform="translate(1006.355 6389.556)" fill="#3d2a0e"/><path d="M1476.9,279.887h-62.3a.605.605,0,0,1-.6-.6v-8.136a2.149,2.149,0,0,1,2.146-2.147h59.215a2.149,2.149,0,0,1,2.146,2.147v8.136A.605.605,0,0,1,1476.9,279.887Zm-61.693-1.21H1476.3v-7.531a.938.938,0,0,0-.937-.937h-59.215a.938.938,0,0,0-.937.937Z" transform="translate(-423.371 6061.887)" fill="#3d2a0e"/><rect width="15.121" height="1.21" transform="translate(996.677 6335.726)" fill="#3d2a0e"/><path d="M1455.218,304.21H1453.4V303h1.814Zm-3.629,0h-1.815V303h1.815Zm-3.629,0h-1.814V303h1.814Zm-3.629,0h-1.815V303h1.815Zm-3.629,0h-1.814V303h1.814Zm-3.629,0h-1.815V303h1.815Zm-3.629,0h-1.814V303h1.814Zm-3.629,0H1428V303h1.815Z" transform="translate(-428.903 6048.452)" fill="#3d2a0e"/><rect width="22.379" height="1.21" transform="translate(999.097 6357.5)" fill="#3d2a0e"/><path d="M1447.96,325.21h-1.814V324h1.814Zm-3.629,0h-1.815V324h1.815Zm-3.629,0h-1.814V324h1.814Zm-3.629,0h-1.815V324h1.815Zm-3.629,0h-1.814V324h1.814Zm-3.629,0H1428V324h1.815Z" transform="translate(-428.903 6040.153)" fill="#3d2a0e"/><path d="M1443.331,346.468H1427.6a.605.605,0,0,1-.6-.6V338.6a.605.605,0,0,1,.6-.6h15.726a.605.605,0,0,1,.6.6v7.258A.605.605,0,0,1,1443.331,346.468Zm-15.121-1.21h14.516V339.21H1428.21Z" transform="translate(-428.508 6034.621)" fill="#3d2a0e"/><path d="M1464.427,199.581h-49.113v-1.21h49.113a3.512,3.512,0,0,0,3.508-3.508v-62.98a3.677,3.677,0,0,0-3.673-3.673h-83.379a3.677,3.677,0,0,0-3.673,3.673v3.585H1376v-3.585a4.888,4.888,0,0,1,4.883-4.883h83.379a4.888,4.888,0,0,1,4.883,4.883v62.98A4.723,4.723,0,0,1,1464.427,199.581Z" transform="translate(-408.355 6118)" fill="#eaeaea"/><path d="M1467.087,259a18.768,18.768,0,0,1-2.087-8.581V246h1.21v4.415a17.548,17.548,0,0,0,1.952,8.025Z" transform="translate(-443.524 6070.976)" fill="#eaeaea"/><rect width="52.621" height="1.21" transform="translate(1006.96 6307.903)" fill="#eaeaea"/><path d="M1413.008,182.984h-1.21V163.668a2.462,2.462,0,0,0-2.458-2.459H1387V160h22.34a3.673,3.673,0,0,1,3.668,3.668Z" transform="translate(-412.702 6104.959)" fill="#3d2a0e"/><rect width="1.21" height="39.314" transform="translate(999.097 6287.943)" fill="#3d2a0e"/><path d="M1479.29,200.073H1443v-1.21h35.686V191h1.21v8.468A.605.605,0,0,1,1479.29,200.073Z" transform="translate(-434.831 6092.709)" fill="#3d2a0e"/><path d="M1503.21,175.008H1502v-.6h1.21Zm0-2.419H1502v-1.815h1.21Zm0-3.629H1502v-1.815h1.21Zm0-3.629H1502v-1.815h1.21Zm0-3.629H1502v-1.815h1.21Zm0-3.629H1502v-1.815h1.21Zm0-3.629H1502v-1.815h1.21Zm0-3.629H1502V149h1.21Z" transform="translate(-458.145 6109.307)" fill="#3d2a0e"/><rect width="10.282" height="1.21" transform="translate(1026.315 6257.702)" fill="#3d2a0e"/><path d="M1450.847,149.21h-1.815V148h1.815Zm-3.629,0H1445.4V148h1.814Zm-3.629,0h-1.815V148h1.815Zm-3.629,0h-1.814V148h1.814Zm-3.629,0h-1.815V148h1.815Zm-3.629,0h-1.814V148h1.814Zm-3.629,0h-1.815V148h1.815Zm-3.629,0h-1.814V148h1.814Zm-3.629,0H1420V148h1.815Z" transform="translate(-425.742 6109.702)" fill="#3d2a0e"/><path d="M1445.452,206.912l-4.657-2.794a.605.605,0,0,1,0-1.037l4.657-2.794.622,1.037-3.792,2.275,3.792,2.275Z" transform="translate(-433.843 6089.04)" fill="#3d2a0e"/><path d="M1483.184,149.939l-.622-1.037,3.792-2.275-3.792-2.275.622-1.037,4.657,2.794a.605.605,0,0,1,0,1.037Z" transform="translate(-450.464 6111.553)" fill="#3d2a0e"/><rect width="19.96" height="1.21" transform="translate(971.879 6283.709)" fill="#d8d8d8"/><rect width="8.468" height="1.21" transform="translate(971.879 6292.782)" fill="#d8d8d8"/><path d="M1332.889,278.229l-1.329-1.236a5.7,5.7,0,1,0-8.583-.257l-1.4,1.152a7.516,7.516,0,1,1,11.314.341Z" transform="translate(-386.169 6063.234)" fill="#d8d8d8"/><path d="M1296.077,268.169l-.658-1.691,4.346-1.692a17.763,17.763,0,0,1,.084-4l-4.268-1.876a.907.907,0,0,1-.466-1.2l3.256-7.407a.908.908,0,0,1,1.2-.466l4.268,1.876a17.788,17.788,0,0,1,2.889-2.766l-1.692-4.346a.907.907,0,0,1,.516-1.175l7.54-2.935a.907.907,0,0,1,1.175.516l1.692,4.346a17.761,17.761,0,0,1,4.706.194l-.314,1.787a15.966,15.966,0,0,0-4.865-.1.908.908,0,0,1-.965-.57l-1.615-4.151-5.849,2.277,1.616,4.15a.906.906,0,0,1-.325,1.072,15.974,15.974,0,0,0-3.515,3.365.907.907,0,0,1-1.085.279l-4.076-1.792-2.526,5.747,4.076,1.792a.908.908,0,0,1,.529.988,15.943,15.943,0,0,0-.1,4.865.908.908,0,0,1-.57.965Z" transform="translate(-376.362 6073.174)" fill="#d8d8d8"/><path d="M1303.758,332.526l1.158,19.143h14.719l1.9-7.863h28.542l1.9,7.863h20.855l1.7-28.058Z" transform="translate(-379.808 6040.307)" fill="#d8d8d8"/><rect width="87.702" height="1.815" transform="translate(912 6391.371)" fill="#3d2a0e"/><path d="M1330.491,364.684l-1.75-.478,2.335-8.538a.907.907,0,0,1,.875-.668h27.4a.907.907,0,0,1,.881.687l2.027,8.111-1.76.44-1.856-7.424h-26Z" transform="translate(-389.68 6027.903)" fill="#3d2a0e"/><path d="M1364.895,263.373l-8.5-27.4,1.478-6.844-7.146-11.105L1346,219.916v13.226l4.724,4.724,8.5,25.508Z" transform="translate(-396.5 6082.03)" fill="#d8d8d8"/><path d="M1364.121,263.872l-8.789-27.342a.91.91,0,0,1-.037-.378l.908-8.171-6.194-9.177L1345.794,220l-.027,12.1,4.457,4.457-1.283,1.283-4.724-4.723a.908.908,0,0,1-.266-.644l.029-13.162a.907.907,0,0,1,.66-.87l5.5-1.559a.907.907,0,0,1,1,.365l6.748,10a.909.909,0,0,1,.149.608l-.923,8.309,8.729,27.157Z" transform="translate(-395.691 6082.497)" fill="#3d2a0e"/><path d="M1291.731,338.642l-2.915-45.677a.906.906,0,0,1,.905-.965h80.3a.907.907,0,0,1,.906.962l-2.768,45.677-1.812-.109,2.71-44.715h-78.371l2.854,44.712Z" transform="translate(-373.902 6052.798)" fill="#3d2a0e"/><path d="M1324.794,305.073h-10.887a.908.908,0,0,1-.907-.907v-3.327h1.814v2.419h9.073V296h1.815v8.165A.908.908,0,0,1,1324.794,305.073Z" transform="translate(-383.46 6051.218)" fill="#3d2a0e"/><path d="M1390.794,305.073h-10.887a.908.908,0,0,1-.907-.907v-3.327h1.814v2.419h9.073V296h1.815v8.165A.908.908,0,0,1,1390.794,305.073Z" transform="translate(-409.54 6051.218)" fill="#3d2a0e"/><path d="M1395.821,261.269h-1.814V238.792a.908.908,0,0,1,.286-.66c.065-.062,6.567-6.243,6.567-10.98a12.2,12.2,0,0,0-5.643-10.551v11.7a.908.908,0,0,1-.907.907h-8.468a.908.908,0,0,1-.907-.907V216.556a12,12,0,0,0-5.939,10.6c0,4.733,6.781,10.9,6.85,10.966a.907.907,0,0,1,.3.674v15.824h-1.815V239.188c-1.409-1.336-7.149-7.078-7.149-12.036a13.62,13.62,0,0,1,8.337-12.859.907.907,0,0,1,1.232.847V227.4h6.653V215.139a.907.907,0,0,1,1.251-.839c4.8,1.966,8.021,7.13,8.021,12.852,0,4.949-5.505,10.692-6.853,12.024Z" transform="translate(-408.821 6083.529)" fill="#3d2a0e"/><rect width="25.403" height="1.21" transform="translate(974.298 6271.613)" fill="#3d2a0e"/><rect width="1.21" height="6.048" transform="translate(1052.927 6341.169)" fill="#3d2a0e"/><path d="M1467.409,179.331h-23.972a3.441,3.441,0,0,1-3.437-3.437v-9.456a3.441,3.441,0,0,1,3.437-3.437h23.972a3.441,3.441,0,0,1,3.437,3.437v9.456A3.441,3.441,0,0,1,1467.409,179.331Zm-23.972-15.121a2.23,2.23,0,0,0-2.228,2.228v9.456a2.23,2.23,0,0,0,2.228,2.228h23.972a2.23,2.23,0,0,0,2.228-2.228v-9.456a2.23,2.23,0,0,0-2.228-2.228Z" transform="translate(-433.645 6103.774)" fill="#d8d8d8"/></g></svg>