<svg xmlns="http://www.w3.org/2000/svg" width="156.875" height="58" viewBox="0 0 156.875 58"><g transform="translate(1.125 0.913)"><g transform="translate(-0.629 -0.483)"><g transform="translate(0 0)"><path d="M329.261,89.656l-1.843,1.082a3.136,3.136,0,0,0-.984-1.17,2.289,2.289,0,0,0-1.257-.312,2.321,2.321,0,0,0-1.571.537,1.655,1.655,0,0,0-.623,1.324q0,1.1,1.638,1.776l1.5.614a6.407,6.407,0,0,1,2.68,1.806,4.076,4.076,0,0,1,.848,2.62,4.606,4.606,0,0,1-1.382,3.427,4.759,4.759,0,0,1-3.461,1.365,4.656,4.656,0,0,1-3.245-1.162A5.107,5.107,0,0,1,320,98.318l2.3-.508a3.929,3.929,0,0,0,.545,1.835,2.6,2.6,0,0,0,3.812.262,2.685,2.685,0,0,0,.58-2.6,2.015,2.015,0,0,0-.381-.673,3.03,3.03,0,0,0-.666-.575,6.353,6.353,0,0,0-.976-.513l-1.452-.6q-3.091-1.3-3.091-3.823a3.626,3.626,0,0,1,1.3-2.836,4.7,4.7,0,0,1,3.221-1.166A4.524,4.524,0,0,1,329.261,89.656Zm10.1,3.723V96.3a5.315,5.315,0,0,0-1.346-1.257,2.6,2.6,0,0,0-1.374-.353,2.711,2.711,0,0,0-2.057.865,3.044,3.044,0,0,0-.82,2.163,3.118,3.118,0,0,0,.79,2.194,2.659,2.659,0,0,0,2.038.865,2.813,2.813,0,0,0,1.4-.342,5.482,5.482,0,0,0,1.374-1.3v2.9a5.77,5.77,0,0,1-2.672.692,5.11,5.11,0,0,1-3.678-1.424,4.759,4.759,0,0,1-1.482-3.559,4.822,4.822,0,0,1,1.5-3.589,5.075,5.075,0,0,1,3.678-1.462,5.516,5.516,0,0,1,2.652.69Zm2.124-.409h2.194v.848a4.227,4.227,0,0,1,1.082-.865,2.466,2.466,0,0,1,1.131-.244,3.552,3.552,0,0,1,1.813.567l-1,2.008a2.1,2.1,0,0,0-1.218-.448q-1.8,0-1.8,2.711v4.924h-2.2Zm14.469,0h2.2v9.5h-2.2v-1a4.213,4.213,0,0,1-6.172-.156,5.3,5.3,0,0,1-1.276-3.628,5.133,5.133,0,0,1,1.276-3.559,4.128,4.128,0,0,1,3.2-1.424,4.039,4.039,0,0,1,2.972,1.365Zm-5.205,4.712a3.306,3.306,0,0,0,.731,2.224,2.38,2.38,0,0,0,1.891.865,2.514,2.514,0,0,0,1.969-.839,3.606,3.606,0,0,0,0-4.407,2.477,2.477,0,0,0-1.947-.848,2.419,2.419,0,0,0-1.891.865A3.148,3.148,0,0,0,350.75,97.682Zm12.37,9.952h-2.194V92.97h2.194V94a4.06,4.06,0,0,1,2.944-1.3,4.11,4.11,0,0,1,3.228,1.443,5.662,5.662,0,0,1,.011,7.176,4.161,4.161,0,0,1-6.183.078Zm5.216-9.856a3.286,3.286,0,0,0-.742-2.224,2.4,2.4,0,0,0-1.891-.865,2.5,2.5,0,0,0-1.96.831,3.161,3.161,0,0,0-.751,2.2,3.245,3.245,0,0,0,.751,2.2,2.462,2.462,0,0,0,1.947.848,2.38,2.38,0,0,0,1.882-.865A3.115,3.115,0,0,0,368.336,97.777ZM375.092,86v8.072a4.061,4.061,0,0,1,2.983-1.365,4.11,4.11,0,0,1,3.2,1.434,5.136,5.136,0,0,1,1.276,3.548,5.228,5.228,0,0,1-1.287,3.628,4.158,4.158,0,0,1-3.228,1.424,4.11,4.11,0,0,1-2.944-1.268v1H372.9V86Zm5.216,11.786a3.288,3.288,0,0,0-.74-2.222,2.38,2.38,0,0,0-1.882-.878,2.525,2.525,0,0,0-1.969.848,3.163,3.163,0,0,0-.751,2.185,3.2,3.2,0,0,0,.74,2.213,2.464,2.464,0,0,0,1.947.848,2.423,2.423,0,0,0,1.891-.848A3.13,3.13,0,0,0,380.308,97.786Zm4.11-.136a4.712,4.712,0,0,1,1.473-3.5,5.192,5.192,0,0,1,7.193,0,5.084,5.084,0,0,1,0,7.139,5.03,5.03,0,0,1-3.641,1.452,4.827,4.827,0,0,1-3.578-1.462,4.926,4.926,0,0,1-1.443-3.628Zm2.243.039a3.205,3.205,0,0,0,.759,2.252,2.955,2.955,0,0,0,4.11.011,3.59,3.59,0,0,0,.009-4.433,2.914,2.914,0,0,0-4.1,0,3.048,3.048,0,0,0-.779,2.163Zm13.166-.359-3.412-4.359h2.611l2.1,2.765,2.163-2.769h2.691l-3.509,4.359,4.063,5.142h-2.613l-2.8-3.55-2.856,3.55H395.6Z" transform="translate(-250.156 -66.95)" fill="#262626"/><circle cx="29" cy="29" r="29" transform="translate(-0.496 -0.431)" fill="#fff"/><g transform="translate(14.801 7.536)"><g transform="translate(0 0)"><path d="M93.447,55.214V66.68a2.481,2.481,0,0,1-.344,1.142,2.509,2.509,0,0,1-.9.9L80.753,74.581a3.063,3.063,0,0,1-2.488,0L66.812,68.714c-.688-.353-.686-.922,0-1.272l11.953-6.116c.411-.216.411-.545,0-.762L66.812,54.446A2.507,2.507,0,0,1,65.57,52.41V40.945a2.507,2.507,0,0,1,1.242-2.038l11.453-5.863a3.063,3.063,0,0,1,2.488,0l11.453,5.867c.688.353.686.922,0,1.272L80.253,46.3c-.409.216-.411.545,0,.762l11.953,6.12a2.531,2.531,0,0,1,.865.839A2.475,2.475,0,0,1,93.447,55.214Z" transform="translate(-65.57 -32.78)" fill="#05ec40" fill-rule="evenodd"/></g><path d="M143.939,55.214V66.68a2.481,2.481,0,0,1-.344,1.142,2.51,2.51,0,0,1-.9.9l-11.453,5.863a3.029,3.029,0,0,1-1.244.264V32.78a3.029,3.029,0,0,1,1.244.264L142.7,38.911c.688.353.686.922,0,1.272L130.744,46.3c-.409.216-.411.545,0,.762l11.953,6.12a2.531,2.531,0,0,1,.865.839A2.475,2.475,0,0,1,143.939,55.214Z" transform="translate(-116.061 -32.78)" fill="#00b52e" fill-rule="evenodd"/><path d="M145.712,132.146v11.466a2.481,2.481,0,0,1-.344,1.142l-12.8-6.531c-.409-.216-.409-.549,0-.759l12.764-6.514A2.475,2.475,0,0,1,145.712,132.146Z" transform="translate(-117.834 -109.712)" fill="#004d3f" fill-rule="evenodd"/><path d="M65.57,77.54l13.142-6.706c.409-.216.409-.549,0-.757L65.57,63.37Z" transform="translate(-65.57 -56.752)" fill="#fcff19" fill-rule="evenodd"/></g></g></g></g></svg>