<svg xmlns="http://www.w3.org/2000/svg" width="179.7" height="33.689" viewBox="0 0 179.7 33.689"><path d="M37.679,2.83A36.653,36.653,0,0,0,28.493,0a23.357,23.357,0,0,0-1.168,2.381,35.1,35.1,0,0,0-10.174,0C16.837,1.64,16.365.7,15.983,0A36.092,36.092,0,0,0,6.752,2.83,36.99,36.99,0,0,0,.194,28.052h0a37.439,37.439,0,0,0,11.23,5.637,25.468,25.468,0,0,0,2.4-3.885,22.459,22.459,0,0,1-3.773-1.819l.921-.719a26.277,26.277,0,0,0,22.459,0c.314.247.606.494.943.719A23.806,23.806,0,0,1,30.559,29.8a25.6,25.6,0,0,0,2.471,3.885,37.439,37.439,0,0,0,11.23-5.637h0A37.013,37.013,0,0,0,37.679,2.83ZM14.86,23.043a4.245,4.245,0,0,1-4-4.492,4.222,4.222,0,0,1,4-4.492,4.2,4.2,0,0,1,4,4.492,4.245,4.245,0,0,1-4,4.4Zm14.756,0a4.267,4.267,0,0,1-4-4.492,4.245,4.245,0,0,1,4-4.492,4.2,4.2,0,0,1,4,4.492,4.222,4.222,0,0,1-4,4.4Z" transform="translate(0.012)" fill="#fff"/><path d="M26.62,3.143h9.545A14.194,14.194,0,0,1,42,4.221a8.063,8.063,0,0,1,3.571,3.1,8.2,8.2,0,0,1,1.168,4.492A8.085,8.085,0,0,1,45.508,16.3a8.31,8.31,0,0,1-3.751,3.122,15.34,15.34,0,0,1-6.289,1.145H26.62Zm8.759,12.779a4.986,4.986,0,0,0,3.571-1.168,4.088,4.088,0,0,0,1.235-3.167,4,4,0,0,0-1.1-2.965A4.492,4.492,0,0,0,35.716,7.5H32.729v8.422Z" transform="translate(33.193 3.909)" fill="#fff"/><path d="M44.191,19.009a12.757,12.757,0,0,1-3.571-1.5V13.439a9.523,9.523,0,0,0,3.212,1.617,14.352,14.352,0,0,0,3.908.584,2.942,2.942,0,0,0,1.325-.225c.314-.157.449-.337.449-.561a.853.853,0,0,0-.225-.606,2.246,2.246,0,0,0-.966-.4l-2.942-.674a7.367,7.367,0,0,1-3.571-1.617,3.661,3.661,0,0,1-1.078-2.74,3.616,3.616,0,0,1,.943-2.471A5.974,5.974,0,0,1,44.3,4.725a12.757,12.757,0,0,1,4.02-.584A15.25,15.25,0,0,1,52.1,4.59a10.466,10.466,0,0,1,2.83,1.123V9.486a11.454,11.454,0,0,0-2.65-1.168,11.948,11.948,0,0,0-3.1-.382c-1.527,0-2.246.247-2.246.764a.606.606,0,0,0,.359.561,6.378,6.378,0,0,0,1.3.382l2.448.427a7.322,7.322,0,0,1,3.571,1.46,3.908,3.908,0,0,1,1.168,3.077,4.043,4.043,0,0,1-1.931,3.526,9.837,9.837,0,0,1-5.637,1.415,16.44,16.44,0,0,1-4.02-.539Z" transform="translate(50.636 5.157)" fill="#fff"/><path d="M52.393,18.533a7.569,7.569,0,0,1-3.167-2.785,7.681,7.681,0,0,1-1.056-3.975,7.1,7.1,0,0,1,1.1-3.93A7.524,7.524,0,0,1,52.505,5.1a12.106,12.106,0,0,1,5.076-.988,11.23,11.23,0,0,1,6.109,1.55v4.492a8.22,8.22,0,0,0-2-.943,7.838,7.838,0,0,0-2.426-.382,6.738,6.738,0,0,0-3.571.831,2.515,2.515,0,0,0,0,4.357,6.513,6.513,0,0,0,3.638.831,8.737,8.737,0,0,0,2.4-.337,9.636,9.636,0,0,0,2.043-.876v4.335a11.926,11.926,0,0,1-6.244,1.617,11.724,11.724,0,0,1-5.143-1.056Z" transform="translate(60.042 5.117)" fill="#fff"/><path d="M60.335,18.528A7.659,7.659,0,0,1,57.1,15.721a7.457,7.457,0,0,1-1.1-4,7.12,7.12,0,0,1,1.123-3.93,7.5,7.5,0,0,1,3.212-2.7,13.251,13.251,0,0,1,10.039,0,7.366,7.366,0,0,1,3.212,2.7,7.187,7.187,0,0,1,1.1,3.93,7.636,7.636,0,0,1-1.1,4,7.726,7.726,0,0,1-3.212,2.807,12.667,12.667,0,0,1-10.017,0Zm7.434-4.335a3.189,3.189,0,0,0,.9-2.381,3.1,3.1,0,0,0-.9-2.246,3.391,3.391,0,0,0-2.426-.853,3.481,3.481,0,0,0-2.471.853,3.189,3.189,0,0,0-.9,2.246,3.3,3.3,0,0,0,.9,2.381,3.391,3.391,0,0,0,2.471.876A3.324,3.324,0,0,0,67.769,14.194Z" transform="translate(69.798 5.121)" fill="#fff"/><path d="M77.94,4.836v5.3a4.492,4.492,0,0,0-2.426-.606A3.818,3.818,0,0,0,72.5,10.7a5.5,5.5,0,0,0-1.056,3.683v4.492H65.43V4.589h5.884V9.081A7.5,7.5,0,0,1,72.886,5.4a3.638,3.638,0,0,1,2.807-1.145,4.2,4.2,0,0,1,2.246.584Z" transform="translate(81.547 5.293)" fill="#fff"/><path d="M90.467,2.92V20.55H84.448V17.339A5.749,5.749,0,0,1,82.2,20.1a7.254,7.254,0,0,1-3.841.943,6.423,6.423,0,0,1-3.616-.988A6.738,6.738,0,0,1,72.5,17.339a9.208,9.208,0,0,1-.9-3.908,8.759,8.759,0,0,1,.9-4.043,6.818,6.818,0,0,1,6.244-3.8,5.615,5.615,0,0,1,5.75,3.728V2.92ZM83.549,15.565a3.1,3.1,0,0,0,.921-2.246,2.875,2.875,0,0,0-.9-2.246,3.391,3.391,0,0,0-2.426-.853,3.346,3.346,0,0,0-2.426.876,2.92,2.92,0,0,0-.9,2.246,3.032,3.032,0,0,0,.9,2.246,3.728,3.728,0,0,0,4.829,0Z" transform="translate(89.233 3.638)" fill="#fff"/><ellipse cx="3.122" cy="2.807" rx="3.122" ry="2.807" transform="translate(82.362 5.121)" fill="#fff"/><path d="M42.9,5.64a7.928,7.928,0,0,1-6.244,0V17.162H42.9Z" transform="translate(45.702 7.027)" fill="#fff"/></svg>