<svg xmlns="http://www.w3.org/2000/svg" width="24" height="24" viewBox="0 0 24 24"><g transform="translate(-73.6 -73.6)"><g transform="translate(73.6 86.245)"><path d="M78.642,140.821a2.521,2.521,0,1,1-2.521-2.521h2.521Z" transform="translate(-73.6 -138.3)" fill="#3d2a0e"/><path d="M105.9,140.821a2.521,2.521,0,1,1,5.042,0v6.313a2.521,2.521,0,0,1-5.042,0Z" transform="translate(-99.587 -138.3)" fill="#3d2a0e"/></g><g transform="translate(73.6 73.6)"><path d="M108.421,78.642a2.521,2.521,0,1,1,2.521-2.521v2.521Z" transform="translate(-99.587 -73.6)" fill="#3d2a0e"/><path d="M82.434,105.9a2.521,2.521,0,0,1,0,5.042H76.121a2.521,2.521,0,0,1,0-5.042Z" transform="translate(-73.6 -99.587)" fill="#3d2a0e"/></g><g transform="translate(86.245 73.6)"><path d="M170.6,108.421a2.521,2.521,0,1,1,2.521,2.521H170.6Z" transform="translate(-164.287 -99.587)" fill="#3d2a0e"/><path d="M143.342,82.434a2.521,2.521,0,1,1-5.042,0V76.121a2.521,2.521,0,0,1,5.042,0Z" transform="translate(-138.3 -73.6)" fill="#3d2a0e"/></g><g transform="translate(86.245 86.245)"><path d="M140.821,170.6a2.521,2.521,0,1,1-2.521,2.521V170.6Z" transform="translate(-138.3 -164.287)" fill="#3d2a0e"/><path d="M140.821,143.342a2.521,2.521,0,1,1,0-5.042h6.313a2.521,2.521,0,0,1,0,5.042Z" transform="translate(-138.3 -138.3)" fill="#3d2a0e"/></g></g></svg>