<svg xmlns="http://www.w3.org/2000/svg" width="140.205" height="35.502" viewBox="0 0 140.205 35.502"><g transform="translate(-105.51 -247.5)"><g transform="translate(150.354 248.029)"><path d="M429.51,333.625l1.741-4.061a11.694,11.694,0,0,0,6.879,2.155c1.823,0,2.984-.7,2.984-1.781-.042-2.984-10.981-.663-11.064-8.163-.042-3.812,3.356-6.754,8.165-6.754a12.535,12.535,0,0,1,7.75,2.321l-1.626,4.148a12.245,12.245,0,0,0-6.371-2.035c-1.492,0-2.487.7-2.487,1.617.042,2.943,11.064,1.326,11.189,8.5,0,3.895-3.316,6.63-8.04,6.63a15.659,15.659,0,0,1-9.118-2.572" transform="translate(-429.51 -306.203)" fill="#fff"/><path d="M821.82,328.076a5.056,5.056,0,1,1,0-4.974l4.839-2.681a10.588,10.588,0,1,0,0,10.336Z" transform="translate(-754.606 -306.186)" fill="#fff"/><rect width="6.051" height="29.575" transform="translate(19.596 0)" fill="#fff"/><path d="M967.1,251.32V280.9h6.051v-8.862l7.17,8.862h7.733l-9.117-10.527,8.454-9.821h-7.4l-6.837,8.165V251.32Z" transform="translate(-892.693 -251.32)" fill="#fff"/><path d="M647.93,328.116a5.571,5.571,0,0,1-4.724,2.527,5.056,5.056,0,0,1,0-10.112,5.543,5.543,0,0,1,4.724,2.61Zm0-12.7v2.4c-1-1.658-3.44-2.818-6.01-2.818-5.305,0-9.491,4.682-9.491,10.568s4.185,10.609,9.491,10.609c2.569,0,5.015-1.16,6.008-2.818v2.4h6.05V315.414Z" transform="translate(-604.344 -306.186)" fill="#fff"/></g><g transform="translate(105.51 266.185)"><path d="M112.984,386.237a3.737,3.737,0,1,1-3.737-3.737h3.737Z" transform="translate(-105.51 -382.5)" fill="#e01e5a"/><path d="M173.01,386.237a3.737,3.737,0,1,1,7.474,0v9.343a3.737,3.737,0,0,1-7.474,0Z" transform="translate(-163.667 -382.5)" fill="#e01e5a"/></g><g transform="translate(105.51 247.5)"><path d="M176.747,254.974a3.737,3.737,0,1,1,3.737-3.737v3.737Z" transform="translate(-163.667 -247.5)" fill="#36c5f0"/><path d="M118.59,315a3.737,3.737,0,0,1,0,7.474h-9.343a3.737,3.737,0,0,1,0-7.474Z" transform="translate(-105.51 -305.657)" fill="#36c5f0"/></g><g transform="translate(124.195 247.5)"><path d="M308.01,318.737a3.737,3.737,0,1,1,3.737,3.737H308.01Z" transform="translate(-298.667 -305.657)" fill="#2eb67d"/><path d="M247.984,260.58a3.737,3.737,0,0,1-7.474,0v-9.343a3.737,3.737,0,1,1,7.474,0Z" transform="translate(-240.51 -247.5)" fill="#2eb67d"/></g><g transform="translate(124.195 266.185)"><path d="M244.247,450a3.737,3.737,0,1,1-3.737,3.737V450Z" transform="translate(-240.51 -440.657)" fill="#ecb22e"/><path d="M244.247,389.974a3.737,3.737,0,0,1,0-7.474h9.343a3.737,3.737,0,0,1,0,7.474Z" transform="translate(-240.51 -382.5)" fill="#ecb22e"/></g></g></svg>