<svg xmlns="http://www.w3.org/2000/svg" width="30" height="30" viewBox="0 0 30 30"><path d="M26.786,32H3.214A3.215,3.215,0,0,0,0,35.214V58.786A3.215,3.215,0,0,0,3.214,62H26.786A3.215,3.215,0,0,0,30,58.786V35.214A3.215,3.215,0,0,0,26.786,32ZM18.569,57.694c-.562.1-.77-.248-.77-.536,0-.362.013-2.21.013-3.7a2.609,2.609,0,0,0-.757-2.056c2.478-.275,5.089-.616,5.089-4.9A3.438,3.438,0,0,0,21,43.893a4.188,4.188,0,0,0-.114-3.013c-.931-.288-3.06,1.2-3.06,1.2a10.534,10.534,0,0,0-5.571,0s-2.129-1.487-3.06-1.2a4.156,4.156,0,0,0-.114,3.013A3.363,3.363,0,0,0,8.036,46.5c0,4.259,2.5,4.621,4.975,4.9a2.427,2.427,0,0,0-.71,1.493,2.35,2.35,0,0,1-3.234-.931,2.333,2.333,0,0,0-1.708-1.145c-1.085-.013-.074.683-.074.683.723.335,1.232,1.621,1.232,1.621.65,1.989,3.757,1.319,3.757,1.319,0,.931.013,2.444.013,2.719s-.2.636-.77.536A11.11,11.11,0,0,1,4,47.094,10.627,10.627,0,0,1,14.853,36.279,10.864,10.864,0,0,1,25.982,47.094,11.008,11.008,0,0,1,18.569,57.694ZM12,53.6c-.127.027-.248-.027-.261-.114s.074-.187.2-.214.248.04.261.127S12.134,53.576,12,53.6Zm-.636-.06c0,.087-.1.161-.234.161s-.248-.06-.248-.161.1-.161.234-.161S11.364,53.442,11.364,53.542Zm-.917-.074c-.027.087-.161.127-.275.087s-.214-.127-.188-.214.161-.127.275-.1c.134.04.221.141.188.228Zm-.824-.362c-.06.074-.187.06-.288-.04s-.127-.214-.06-.275.188-.06.288.04S9.683,53.054,9.623,53.107ZM9.013,52.5c-.06.04-.174,0-.248-.1s-.074-.214,0-.261.188-.013.248.087A.2.2,0,0,1,9.013,52.5Zm-.435-.65c-.06.06-.161.027-.234-.04-.074-.087-.087-.187-.027-.234s.161-.027.234.04C8.625,51.7,8.638,51.8,8.578,51.848Zm-.449-.5a.126.126,0,0,1-.188.027c-.087-.04-.127-.114-.1-.174a.158.158,0,0,1,.188-.027C8.116,51.225,8.156,51.3,8.129,51.353Z" transform="translate(0 -32)" fill="#171515"/></svg>