<svg xmlns="http://www.w3.org/2000/svg" width="22.14" height="17.37" viewBox="0 0 22.14 17.37"><path d="M22.5-64.35a6.465,6.465,0,0,1,2.7-4.5c1.62-1.26,1.98-1.53,1.98-2.34a1.525,1.525,0,0,0-1.44-1.62c-2.7,0-7.02,5.31-7.02,11.88,0,2.97,1.44,5.49,4.5,5.49a4.456,4.456,0,0,0,4.5-4.5A4.421,4.421,0,0,0,22.5-64.35Zm-13.14,0a6.465,6.465,0,0,1,2.7-4.5c1.62-1.26,1.98-1.53,1.98-2.34a1.587,1.587,0,0,0-1.44-1.62c-2.79,0-7.02,5.31-7.02,11.88,0,2.97,1.35,5.49,4.5,5.49a4.513,4.513,0,0,0,4.5-4.5A4.456,4.456,0,0,0,9.36-64.35Z" transform="translate(-5.58 72.81)" fill="#389bd9" opacity="0.25"/></svg>