<svg xmlns="http://www.w3.org/2000/svg" width="19.672" height="19.672" viewBox="0 0 19.672 19.672"><path d="M4,8.607H.922A.922.922,0,0,0,0,9.529V18.75a.922.922,0,0,0,.922.922H4a.922.922,0,0,0,.922-.922V9.529A.922.922,0,0,0,4,8.607ZM2.459,18.135a.922.922,0,1,1,.922-.922A.922.922,0,0,1,2.459,18.135ZM14.754,3.13c0,1.63-1,2.544-1.279,3.633h3.908a2.3,2.3,0,0,1,2.288,2.232,2.782,2.782,0,0,1-.747,1.89l0,0a3.21,3.21,0,0,1-.358,3.053,3.038,3.038,0,0,1-.629,2.872A2.04,2.04,0,0,1,17.7,18.53c-.784,1.127-2.728,1.143-4.371,1.143h-.109a11.03,11.03,0,0,1-4.594-1.219A6.047,6.047,0,0,0,6.6,17.832a.461.461,0,0,1-.453-.461V9.157a.461.461,0,0,1,.137-.327c1.522-1.5,2.177-3.1,3.424-4.346a4.653,4.653,0,0,0,.976-2.263C10.855,1.51,11.212,0,11.988,0,12.91,0,14.754.307,14.754,3.13Z" fill="#fff"/></svg>