<svg xmlns="http://www.w3.org/2000/svg" xmlns:xlink="http://www.w3.org/1999/xlink" width="178.58" height="30.098" viewBox="0 0 178.58 30.098"><defs><linearGradient id="a" x1="-3.582" y1="10.618" x2="-3.582" y2="10.645" gradientUnits="objectBoundingBox"><stop offset="0" stop-color="#a82400"/><stop offset="0.01" stop-color="#a82400"/><stop offset="0.99" stop-color="#d52e02"/><stop offset="1" stop-color="#d52e02"/></linearGradient></defs><g transform="translate(-314.603 -302.941)"><g transform="translate(357.994 306.132)"><path d="M380.518,321.029a3.306,3.306,0,0,1-.839,1.341,3.128,3.128,0,0,1-1.2.733,3.478,3.478,0,0,1-1.342.172,3.143,3.143,0,0,1-1.248-.344,2.45,2.45,0,0,1-.918-.806,2.161,2.161,0,0,1-.357-1.216V314.45a2.024,2.024,0,0,1,.364-1.182,2.482,2.482,0,0,1,.932-.772,3.521,3.521,0,0,1,1.256-.338,3.672,3.672,0,0,1,1.334.152,2.989,2.989,0,0,1,1.156.667,2.8,2.8,0,0,1,.746,1.235l4.717-1.467a7.221,7.221,0,0,0-1.255-2.642,6.865,6.865,0,0,0-1.929-1.711,8.38,8.38,0,0,0-2.286-.917,9.42,9.42,0,0,0-2.3-.278,10.294,10.294,0,0,0-2.424.291,8.852,8.852,0,0,0-2.24.872,7.268,7.268,0,0,0-1.857,1.46,6.42,6.42,0,0,0-1.256,2.041,7.164,7.164,0,0,0-.469,2.629v6.46a7.169,7.169,0,0,0,.469,2.629,6.366,6.366,0,0,0,1.256,2.027,7.218,7.218,0,0,0,1.857,1.447,9.112,9.112,0,0,0,2.24.865,10.33,10.33,0,0,0,2.424.284,9.3,9.3,0,0,0,2.286-.291,8.284,8.284,0,0,0,2.279-.945,7.676,7.676,0,0,0,2-1.724,8.407,8.407,0,0,0,1.44-2.629Z" transform="translate(-369.102 -306.999)" fill="#bc2901"/><path d="M397.784,312.26a3.589,3.589,0,0,1,1.262.232,2.571,2.571,0,0,1,1.017.687,1.624,1.624,0,0,1,.417,1.1v6.777a1.829,1.829,0,0,1-.417,1.155,2.788,2.788,0,0,1-1.017.78,3.049,3.049,0,0,1-1.262.283h-.02v4.955h.02a10.487,10.487,0,0,0,3.006-.463,8.186,8.186,0,0,0,2.63-1.342,6.562,6.562,0,0,0,1.862-2.266,7.2,7.2,0,0,0,.708-3.222v-6.659a7.124,7.124,0,0,0-.708-3.2,6.753,6.753,0,0,0-1.862-2.286,8.391,8.391,0,0,0-2.63-1.373,10.23,10.23,0,0,0-3.006-.476h-.02v5.311Zm-.02,11.018a3.143,3.143,0,0,1-1.268-.283,2.783,2.783,0,0,1-1.031-.78,1.856,1.856,0,0,1-.416-1.155v-6.777a1.647,1.647,0,0,1,.416-1.1,2.575,2.575,0,0,1,1.031-.687,3.708,3.708,0,0,1,1.268-.232v-5.311a10.332,10.332,0,0,0-3.006.476,8.479,8.479,0,0,0-2.643,1.373,6.708,6.708,0,0,0-1.869,2.286,7.145,7.145,0,0,0-.707,3.2v6.659a7.218,7.218,0,0,0,.707,3.222,6.52,6.52,0,0,0,1.869,2.266,8.272,8.272,0,0,0,2.643,1.342,10.625,10.625,0,0,0,3.006.463Z" transform="translate(-373.267 -306.949)" fill="#bc2901"/><path d="M467.6,328.079a8.69,8.69,0,0,0,4.467-.9,7.243,7.243,0,0,0,1.962-1.426,6.3,6.3,0,0,0,1.341-2.027,6.528,6.528,0,0,0,.476-2.589v-7.095a8.471,8.471,0,0,0-.893-3.349,6.264,6.264,0,0,0-1.9-2.193,7.87,7.87,0,0,0-2.635-1.189,12.371,12.371,0,0,0-2.822-.361v4.123a4.337,4.337,0,0,1,1.321.393,2.692,2.692,0,0,1,1,.814,2.166,2.166,0,0,1,.416,1.248v7.886a2.373,2.373,0,0,1-.5,1.217,3.023,3.023,0,0,1-1.031.792,4.235,4.235,0,0,1-1.2.372Zm-2.735,4.049V327.4a7.783,7.783,0,0,0,2.372.647c.121.014.242.025.363.033v-4.284c-.04.006-.079.013-.119.017a4.9,4.9,0,0,1-1.387-.014,3.744,3.744,0,0,1-1.228-.4V311.466a4.449,4.449,0,0,1,1.295-.389,5.417,5.417,0,0,1,1.427-.006l.014,0v-4.123c-.092,0-.185,0-.278,0a19.639,19.639,0,0,0-2.669.192,24.4,24.4,0,0,0-2.722.529,24.65,24.65,0,0,0-2.616.826v25.361A38.95,38.95,0,0,0,464.864,332.128Z" transform="translate(-387.489 -306.949)" fill="#bc2901"/><path d="M489.355,328.409c.186.008.376.013.571.014a18.3,18.3,0,0,0,2.576-.191,23.019,23.019,0,0,0,2.63-.522,24.785,24.785,0,0,0,2.524-.793V314.195a6.848,6.848,0,0,0-.635-2.972,6.452,6.452,0,0,0-1.7-2.186,7.936,7.936,0,0,0-2.432-1.373,9.824,9.824,0,0,0-2.854-.542c-.229-.01-.455-.01-.682,0V311.5l.041.006a3.524,3.524,0,0,1,1.46.548,2.985,2.985,0,0,1,1.044,1.223,4.5,4.5,0,0,1,.4,1.988,5.4,5.4,0,0,0-1.631-.51,10.211,10.211,0,0,0-1.317-.122v4.255c.095-.007.193-.014.292-.017a7.161,7.161,0,0,1,1.381.072,5.169,5.169,0,0,1,1.117.283V323.9a7.346,7.346,0,0,1-1.137.212,9.563,9.563,0,0,1-1.162.067c-.171,0-.334-.011-.491-.027Zm-.381-13.778a8.861,8.861,0,0,0-3.33.595,6.683,6.683,0,0,0-2.379,1.559A6.311,6.311,0,0,0,481.858,319a6.612,6.612,0,0,0-.424,2.529,6.794,6.794,0,0,0,.582,2.53,6.876,6.876,0,0,0,1.6,2.213,7.716,7.716,0,0,0,2.63,1.559,10.207,10.207,0,0,0,3.11.58v-4.253a3.641,3.641,0,0,1-1.28-.357,2.794,2.794,0,0,1-1.1-.964,2.471,2.471,0,0,1-.409-1.261,2.332,2.332,0,0,1,.291-1.275,2.547,2.547,0,0,1,1.024-.99,3.594,3.594,0,0,1,1.471-.419v-4.255c-.128,0-.256,0-.381,0Zm.381-7.515a10.419,10.419,0,0,0-2.271.316,9.127,9.127,0,0,0-2.735,1.175,8,8,0,0,0-2.193,2.061l2.7,2.5a4.939,4.939,0,0,1,1.307-1.018,5.772,5.772,0,0,1,1.592-.581,4.945,4.945,0,0,1,1.6-.065Z" transform="translate(-391.997 -306.982)" fill="#bc2901"/><path d="M502.977,324.872a8.663,8.663,0,0,0,2.14,2.049,8.128,8.128,0,0,0,2.484,1.108,10.714,10.714,0,0,0,2.748.331,9.024,9.024,0,0,0,2.781-.423,7.226,7.226,0,0,0,2.365-1.269,5.988,5.988,0,0,0,1.651-2.106,6.829,6.829,0,0,0,.615-2.94,5.51,5.51,0,0,0-.554-2.483,5.273,5.273,0,0,0-1.415-1.731,8.12,8.12,0,0,0-1.909-1.128,13.532,13.532,0,0,0-2.028-.682,5.232,5.232,0,0,1-.813-.224,5.31,5.31,0,0,1-.924-.423,2.575,2.575,0,0,1-.74-.628,1.18,1.18,0,0,1-.259-.826,1.662,1.662,0,0,1,1.58-1.644,3.781,3.781,0,0,1,1.321.1,6.047,6.047,0,0,1,1.3.476,3.916,3.916,0,0,1,.99.674l2.735-3.764a9.213,9.213,0,0,0-2.213-1.322,10.579,10.579,0,0,0-2.272-.661,10.425,10.425,0,0,0-2.055-.158,8.385,8.385,0,0,0-3.23.66,6.575,6.575,0,0,0-2.286,1.652,6.031,6.031,0,0,0-1.262,2.286,5.856,5.856,0,0,0,.806,5.019,6.921,6.921,0,0,0,2.2,2.034,10.28,10.28,0,0,0,3.5,1.228,3.4,3.4,0,0,1,1.46.535,1.647,1.647,0,0,1,.654.939,1.792,1.792,0,0,1-.132,1.142,1.411,1.411,0,0,1-1,.807,3.581,3.581,0,0,1-1.671-.014,7.644,7.644,0,0,1-2-.76,9.312,9.312,0,0,1-1.955-1.42Z" transform="translate(-396.388 -306.998)" fill="#bc2901"/><path d="M520.327,324.872a8.693,8.693,0,0,0,2.141,2.049,8.1,8.1,0,0,0,2.484,1.108,10.706,10.706,0,0,0,2.748.331,9.03,9.03,0,0,0,2.781-.423,7.241,7.241,0,0,0,2.365-1.269,5.989,5.989,0,0,0,1.651-2.106,6.814,6.814,0,0,0,.615-2.94,5.533,5.533,0,0,0-.555-2.483,5.279,5.279,0,0,0-1.413-1.731,8.16,8.16,0,0,0-1.91-1.128,13.507,13.507,0,0,0-2.029-.682,5.171,5.171,0,0,1-.812-.224,5.34,5.34,0,0,1-.925-.423,2.612,2.612,0,0,1-.74-.628,1.174,1.174,0,0,1-.256-.826,1.658,1.658,0,0,1,1.578-1.644,3.784,3.784,0,0,1,1.322.1,6.024,6.024,0,0,1,1.3.476,3.9,3.9,0,0,1,.991.674l2.736-3.764a9.243,9.243,0,0,0-2.214-1.322,10.586,10.586,0,0,0-2.273-.661,10.424,10.424,0,0,0-2.054-.158,8.393,8.393,0,0,0-3.232.66,6.6,6.6,0,0,0-2.286,1.652,6.052,6.052,0,0,0-1.261,2.286,5.857,5.857,0,0,0,.806,5.019,6.917,6.917,0,0,0,2.2,2.034,10.256,10.256,0,0,0,3.495,1.228,3.388,3.388,0,0,1,1.459.535,1.65,1.65,0,0,1,.655.939,1.8,1.8,0,0,1-.132,1.142,1.417,1.417,0,0,1-1,.807,3.58,3.58,0,0,1-1.671-.014,7.646,7.646,0,0,1-2-.76,9.331,9.331,0,0,1-1.955-1.42Z" transform="translate(-399.924 -306.998)" fill="#bc2901"/><path d="M420.86,312.26a3.585,3.585,0,0,1,1.262.232,2.576,2.576,0,0,1,1.018.687,1.612,1.612,0,0,1,.416,1.1v13.633h5.51V314.281a7.144,7.144,0,0,0-.707-3.2A6.762,6.762,0,0,0,426.5,308.8a8.391,8.391,0,0,0-2.63-1.373,10.229,10.229,0,0,0-3.006-.476,10.334,10.334,0,0,0-3.026.476,8.452,8.452,0,0,0-2.642,1.373,6.7,6.7,0,0,0-1.87,2.286,7.144,7.144,0,0,0-.707,3.2v13.633h5.51V314.281a1.652,1.652,0,0,1,.417-1.1,2.561,2.561,0,0,1,1.03-.687A3.7,3.7,0,0,1,420.86,312.26Z" transform="translate(-377.971 -306.949)" fill="#bc2901"/><path d="M444.185,312.26a3.585,3.585,0,0,1,1.262.232,2.574,2.574,0,0,1,1.017.687,1.621,1.621,0,0,1,.417,1.1v13.633h5.51V314.281a7.145,7.145,0,0,0-.707-3.2,6.781,6.781,0,0,0-1.863-2.286,8.409,8.409,0,0,0-2.63-1.373,10.23,10.23,0,0,0-3.006-.476,10.333,10.333,0,0,0-3.026.476,8.482,8.482,0,0,0-2.643,1.373,6.7,6.7,0,0,0-1.869,2.286,7.155,7.155,0,0,0-.708,3.2v13.633h5.51V314.281a1.652,1.652,0,0,1,.416-1.1,2.57,2.57,0,0,1,1.031-.687A3.7,3.7,0,0,1,444.185,312.26Z" transform="translate(-382.725 -306.949)" fill="#bc2901"/></g><g transform="translate(314.603 302.941)"><path d="M314.6,302.941a63.824,63.824,0,0,0,37.23,0l-.321,7.891a6.309,6.309,0,0,0-.467,11.5l.478,7.515c-11.929-2.3-23.474-1.907-36.611,0l.478-7.515a6.309,6.309,0,0,0-.467-11.5Z" transform="translate(-314.603 -302.941)" fill="url(#a)"/><path d="M339.053,321.012a2.481,2.481,0,0,1-.629,1.006,2.352,2.352,0,0,1-.9.549,2.581,2.581,0,0,1-1.006.129,2.352,2.352,0,0,1-.936-.258,1.84,1.84,0,0,1-.689-.6,1.611,1.611,0,0,1-.267-.912v-4.844a1.515,1.515,0,0,1,.272-.888,1.865,1.865,0,0,1,.7-.579,2.636,2.636,0,0,1,.941-.253,2.759,2.759,0,0,1,1,.114,2.241,2.241,0,0,1,.867.5,2.109,2.109,0,0,1,.56.927l3.538-1.1a5.425,5.425,0,0,0-.942-1.982,5.114,5.114,0,0,0-1.447-1.283,6.254,6.254,0,0,0-1.714-.689,7.054,7.054,0,0,0-1.725-.208,7.755,7.755,0,0,0-1.818.217,6.669,6.669,0,0,0-1.68.654,5.477,5.477,0,0,0-1.392,1.095,4.806,4.806,0,0,0-.942,1.531,5.4,5.4,0,0,0-.352,1.972v4.845a5.4,5.4,0,0,0,.352,1.971,4.748,4.748,0,0,0,.942,1.521,5.407,5.407,0,0,0,1.392,1.085,6.812,6.812,0,0,0,1.68.649,7.71,7.71,0,0,0,1.818.213,6.9,6.9,0,0,0,1.714-.219,6.2,6.2,0,0,0,1.71-.707,5.78,5.78,0,0,0,1.5-1.294,6.324,6.324,0,0,0,1.08-1.972Z" transform="translate(-317.841 -304.51)" fill="#fff"/></g></g></svg>