<svg xmlns="http://www.w3.org/2000/svg" width="150.5" height="46.82" viewBox="0 0 150.5 46.82"><g transform="translate(801.636 -383.5)"><path d="M1102.729,694.465a.7.7,0,0,0-.7.7v4.905h-4.905a.7.7,0,0,0,0,1.4h5.606a.7.7,0,0,0,.7-.7v-5.606A.7.7,0,0,0,1102.729,694.465Z" transform="translate(-1793.76 -287.971)" fill="#fff"/><path d="M36.432,40.765h-16.9a.7.7,0,0,1-.677-.883L21.63,29.6H.7A.7.7,0,0,1,.16,28.453L8.418,18.46a.7.7,0,0,1,.515-.254h.024a.7.7,0,0,1,.508.217l3.85,4.032,3.3-4a.7.7,0,0,1,.524-.254h.027a.692.692,0,0,1,.509.23l5.366,5.925L24.7,18.222,18.872.925A.7.7,0,0,1,19.536,0h16.9A.7.7,0,0,1,37.1.925l-5.825,17.3L33.933,28.1H65.257a.7.7,0,0,1,.7.7v4.905H98.193V29.5H76.469a.7.7,0,0,1,0-1.4H86.981V23.9H82.076a.7.7,0,0,1-.7-.7V12.683H71.567v7.849a.7.7,0,0,1-.7.7H41.641a.7.7,0,1,1,0-1.4H70.165V11.983a.7.7,0,0,1,.7-.7H81.375v-4.2H71.029L59.965,12.61a.711.711,0,0,1-.314.074H37.227a.7.7,0,1,1,0-1.4H59.486L70.55,5.75a.711.711,0,0,1,.314-.074H82.076a.7.7,0,0,1,.7.7v4.905H104.5a.7.7,0,0,1,.7.7v5.606a.7.7,0,1,1-1.4,0V12.683H82.776v9.811h9.811v-4.2H87.681a.7.7,0,0,1,0-1.4h5.606a.7.7,0,0,1,.7.7v5.606a.7.7,0,0,1-.7.7H88.382v4.2H98.894a.7.7,0,0,1,.7.7v5.606a.7.7,0,0,1-.7.7H65.257a.7.7,0,0,1-.7-.7V29.5H34.311l2.8,10.38a.7.7,0,0,1-.677.883ZM20.511,1.4l5.582,16.575a.7.7,0,0,1,.013.406L20.451,39.363H35.518L32.859,29.5h-3.9a.7.7,0,0,1,0-1.4h3.524l-2.62-9.718a.7.7,0,0,1,.013-.406L35.457,1.4Zm-3.33,18.575L10.387,28.2H22.008l.6-2.229ZM9,19.96,2.189,28.2H8.569l3.847-4.656Z" transform="translate(-801.137 384)" fill="#fff"/><path d="M36.432,41.265h-16.9a1.2,1.2,0,0,1-1.16-1.513l2.6-9.652H.7a1.2,1.2,0,0,1-.926-1.965l8.258-9.994a1.2,1.2,0,0,1,.882-.435h.042a1.206,1.206,0,0,1,.87.372L13.288,21.7l2.943-3.561a1.2,1.2,0,0,1,1.815-.042L22.8,23.346l1.377-5.107L18.4,1.084A1.2,1.2,0,0,1,19.536-.5h16.9A1.2,1.2,0,0,1,37.57,1.084L31.793,18.239,34.316,27.6H65.257a1.2,1.2,0,0,1,1.2,1.2v4.405H97.693V30H76.469a1.2,1.2,0,0,1,0-2.4H86.481V24.4H82.076a1.2,1.2,0,0,1-1.2-1.2V13.183H72.067v7.349a1.2,1.2,0,0,1-1.2,1.2H41.641a1.2,1.2,0,1,1,0-2.4H69.665V11.983a1.2,1.2,0,0,1,1.2-1.2H80.875v-3.2H71.147L60.188,13.057a1.216,1.216,0,0,1-.537.126H37.227a1.2,1.2,0,0,1,0-2.4H59.368L70.326,5.3a1.216,1.216,0,0,1,.537-.127H82.076a1.2,1.2,0,0,1,1.2,1.2v4.405H104.5a1.2,1.2,0,0,1,1.2,1.2v5.606a1.2,1.2,0,1,1-2.4,0V13.183H83.276v8.811h8.811v-3.2H87.681a1.2,1.2,0,0,1,0-2.4h5.606a1.2,1.2,0,0,1,1.2,1.2v5.606a1.2,1.2,0,0,1-1.2,1.2H88.882v3.2H98.894a1.2,1.2,0,0,1,1.2,1.2v5.606a1.2,1.2,0,0,1-1.2,1.2H65.257a1.2,1.2,0,0,1-1.2-1.2V30H34.964l2.628,9.75a1.2,1.2,0,0,1-1.159,1.513ZM8.957,18.705H8.95a.2.2,0,0,0-.147.072L.545,28.771A.2.2,0,0,0,.7,29.1H22.283L19.342,40.012a.2.2,0,0,0,.194.253h16.9a.208.208,0,0,0,.161-.08.2.2,0,0,0,.033-.173L33.659,29h31.4v5.405a.2.2,0,0,0,.2.2H98.894a.2.2,0,0,0,.2-.2V28.8a.2.2,0,0,0-.2-.2H87.882V23.4h5.405a.2.2,0,0,0,.2-.2V17.589a.2.2,0,0,0-.2-.2H87.681a.2.2,0,0,0,0,.4h5.406v5.2H82.276V12.183H104.3v5.406a.2.2,0,1,0,.4,0V11.983a.2.2,0,0,0-.2-.2H82.276V6.377a.2.2,0,0,0-.2-.2H70.863a.212.212,0,0,0-.092.022L59.6,11.782H37.227a.2.2,0,0,0,0,.4H59.651a.212.212,0,0,0,.092-.022L70.911,6.578H81.875v5.2H70.866a.2.2,0,0,0-.2.2v8.349H41.641a.2.2,0,1,0,0,.4H70.866a.2.2,0,0,0,.2-.2V12.183H81.875V23.195a.2.2,0,0,0,.2.2h5.405v5.2H76.469a.2.2,0,0,0,0,.4H98.693v5.2H65.458V28.8a.2.2,0,0,0-.2-.2H33.55l-2.8-10.394L36.622.765A.2.2,0,0,0,36.432.5h-16.9a.2.2,0,0,0-.19.265l5.874,17.442-1.932,7.169-5.981-6.6a.194.194,0,0,0-.138-.066h-.016a.2.2,0,0,0-.15.073l-3.659,4.428L9.1,18.768A.2.2,0,0,0,8.957,18.705ZM36.17,39.863H19.8l5.825-21.611a.2.2,0,0,0,0-.116L19.815.9H36.153l-5.8,17.234a.2.2,0,0,0,0,.116L33.135,28.6H28.958a.2.2,0,0,0,0,.4h4.285Zm-15.067-1H34.865L32.476,30H28.958a1.2,1.2,0,0,1,0-2.4H31.83l-2.45-9.088a1.194,1.194,0,0,1,.022-.7L34.761,1.9H21.207l5.36,15.915a1.194,1.194,0,0,1,.022.7ZM22.391,28.7H9.326l7.838-9.486,6,6.623Zm-10.942-1H21.625l.43-1.6L17.2,20.74ZM8.8,28.7H1.127l7.842-9.49,4.116,4.31Zm-5.554-1H8.334l3.414-4.132L9.023,20.713Z" transform="translate(-801.137 384)" fill="rgba(0,0,0,0)"/><path d="M1143.814,656.005a.7.7,0,0,0-.7.7v15.686h-6.266l3.753-4.228a.7.7,0,0,0-1.048-.93l-4.789,5.394a.7.7,0,0,0,.524,1.166h8.526a.7.7,0,0,0,.7-.7V656.706A.7.7,0,0,0,1143.814,656.005Z" transform="translate(-1821.228 -260.291)" fill="#fff"/><path d="M1202.239,685.02a.7.7,0,0,0-.991,0l-6.666,6.722V688a.7.7,0,0,0-.7-.7h-2.305a.7.7,0,0,0-.5.211l-4.169,4.268a3.449,3.449,0,1,1-2.529-5.812,3.387,3.387,0,0,1,1.812.523l-2.32,2.4a.7.7,0,1,0,1.007.975l2.858-2.954a.7.7,0,0,0-.017-.992,4.791,4.791,0,0,0-3.341-1.352,4.87,4.87,0,1,0,3.551,8.173l3.945-4.038h1.309v4.746a.7.7,0,0,0,1.2.494l7.864-7.931A.7.7,0,0,0,1202.239,685.02Z" transform="translate(-1853.583 -280.847)" fill="#fff"/><g transform="translate(-760.196 417.706)"><path d="M890.39,735.166a.7.7,0,0,0-.7-.7H872.871a.7.7,0,0,0,0,1.4h16.818A.7.7,0,0,0,890.39,735.166Z" transform="translate(-872.17 -734.465)" fill="#fff"/><path d="M954.128,754.465h-16.58a.7.7,0,0,0,0,1.4h16.58a.7.7,0,0,0,0-1.4Z" transform="translate(-918.719 -748.859)" fill="#fff"/><path d="M899.177,755.166a.7.7,0,0,0-.7-.7h-5.606a.7.7,0,0,0,0,1.4h5.606A.7.7,0,0,0,899.177,755.166Z" transform="translate(-886.564 -748.859)" fill="#fff"/><path d="M918.477,774.465h-5.606a.7.7,0,0,0,0,1.4h5.606a.7.7,0,0,0,0-1.4Z" transform="translate(-900.958 -763.253)" fill="#fff"/><path d="M962.729,774.465h-5.606a.7.7,0,0,0,0,1.4h5.606a.7.7,0,0,0,0-1.4Z" transform="translate(-932.806 -763.253)" fill="#fff"/></g></g></svg>